<svg width="256" height="256" viewBox="0 0 256 256" fill="none" xmlns="http://www.w3.org/2000/svg">
<g clip-path="url(#clip0_1314_27)">
<rect width="256" height="256" rx="40" fill="#242938"/>
<path d="M94.6309 143.826C97.6438 143.826 99.9149 146.246 99.9149 149.459C99.9149 150.418 99.7216 151.382 99.3082 152.45L99.0335 153.104L85.1509 188.579C83.695 192.179 81.3317 193.995 78.1219 193.995C74.9577 193.995 72.7126 192.375 71.4455 189.172L62.0183 163.055L52.5535 188.57C51.6283 191.098 50.0211 194 45.793 194C42.1447 194 40.4401 192.069 39.1309 189.121L38.9036 188.59L24.8725 153.213C24.2649 151.712 24 150.587 24 149.46C24 145.935 26.689 143.826 29.2849 143.826C31.8308 143.826 33.9856 145.527 35.1444 148.406L35.3627 148.997L45.7894 178.131L56.0909 149.125C57.2452 145.692 58.5347 143.826 62.0263 143.826C65.1028 143.826 66.5346 145.702 67.6245 148.575L67.8249 149.125L78.1264 178.131L88.5567 148.987C89.6448 145.761 91.9159 143.826 94.6309 143.826ZM126.045 143.96C144.87 143.96 151.551 157.403 151.551 168.911C151.551 180.484 144.87 193.999 126.048 193.999C118.038 193.999 111.399 191.373 106.851 186.402C102.779 181.96 100.539 175.747 100.539 168.911C100.539 162.085 102.783 155.898 106.851 151.485C111.191 146.787 117.432 144.203 124.961 143.977L126.045 143.96ZM199.69 133C201.224 133.001 202.702 133.572 203.83 134.6C204.958 135.628 205.654 137.038 205.78 138.55L205.8 139.045V164.029L221.947 147.53L222.739 146.692C224.207 145.172 225.791 143.825 227.893 143.825C231.062 143.825 233.452 146.189 233.452 149.32C233.452 151.553 231.958 153.206 230.268 154.891L229.842 155.313L216.5 169.038L231.069 183.454L231.865 184.27C233.03 185.521 234 186.913 234 188.641C234 191.545 231.516 193.998 228.579 193.998C226.286 193.998 224.684 192.526 223.175 190.984L221.958 189.742L205.797 173.123V187.952C205.796 189.553 205.152 191.088 204.007 192.22C202.862 193.352 201.31 193.989 199.691 193.991C198.158 193.99 196.682 193.421 195.554 192.394C194.426 191.368 193.729 189.96 193.601 188.45L193.58 187.955V139.04C193.582 137.439 194.227 135.903 195.372 134.771C196.518 133.639 198.07 133.002 199.69 133ZM181.391 143.826C185.606 143.826 188.327 146.036 188.327 149.459C188.327 152.666 186.371 154.819 183.457 154.819C182.977 154.819 182.499 154.766 182.031 154.663L181.613 154.57C180.98 154.423 180.324 154.275 179.193 154.275C172.302 154.275 169.249 158.667 169.076 168.914L169.067 169.861V187.956C169.067 191.923 165.994 193.999 162.96 193.999C160.075 193.999 157.157 192.126 156.873 188.537L156.849 187.956V149.865C156.849 146.482 159.535 143.826 162.96 143.826C164.494 143.828 165.971 144.401 167.099 145.429C168.226 146.458 168.921 147.868 169.047 149.38C170.576 147.626 172.471 146.221 174.602 145.263C176.734 144.304 179.05 143.813 181.391 143.826ZM126.045 153.731C118.054 153.731 112.892 159.688 112.892 168.911C112.892 178.441 117.932 184.363 126.045 184.363C134.035 184.363 139.198 178.298 139.198 168.911C139.198 159.688 134.035 153.731 126.045 153.731Z" fill="#D4256E"/>
<g clip-path="url(#clip1_1314_27)">
<path d="M147.236 71.4618L147.742 71.4789C150.735 71.6824 152.698 73.6876 152.907 76.747L152.925 77.2977V114.106C152.925 117.708 150.745 119.945 147.232 119.945C144.546 119.945 141.682 118.548 141.428 114.678L141.41 114.109V113.222C137.994 117.572 132.559 119.945 125.896 119.945C112.294 119.945 103.158 110.203 103.158 95.7023C103.158 81.2045 112.455 71.4618 126.297 71.4618C132.107 71.4618 137.081 73.3703 140.573 76.8847L141.141 77.4849V77.2977C141.141 73.9176 143.704 71.4618 147.236 71.4618ZM215.732 71.4618C227.877 71.4592 234.165 78.5871 234.432 92.6471L234.442 93.5954V113.973C234.442 117.765 232.223 119.941 228.348 119.941C224.687 119.941 222.595 118.02 222.403 114.511L222.389 113.973V93.5962C222.389 85.0669 219.718 81.4234 213.451 81.4234C207.026 81.4234 203.788 85.1455 203.58 92.7907L203.569 93.5962V113.977C203.569 117.769 201.35 119.945 197.478 119.945C193.818 119.945 191.725 118.023 191.534 114.516L191.519 113.977V93.3388C191.519 84.8796 188.928 81.426 182.579 81.426C176.335 81.426 173.065 84.8317 172.848 91.5509L172.835 92.2837V114.105C172.835 117.762 170.558 119.945 166.741 119.945C163.09 119.945 160.996 118.075 160.796 114.658L160.779 114.106V77.5602C160.779 73.3472 163.843 71.4618 166.873 71.4618C170.27 71.4618 172.749 73.7243 172.833 76.8701C175.605 73.496 180.292 71.4618 185.532 71.4618C192.571 71.4618 197.779 74.352 200.678 79.8415C203.317 74.4973 208.731 71.4618 215.732 71.4618ZM29.9585 61.0068C32.7802 61.0068 35.6351 62.947 35.9005 66.6649L35.9206 67.236V72.9069H43.7387C46.9026 72.9069 49.0276 74.9343 49.0276 77.9569C49.0276 80.9976 47.2536 82.8069 44.1351 82.989L43.6025 83.0036L35.9197 83.007V104.773C35.9197 108.92 37.6833 109.452 39.2198 109.452C40.3338 109.452 41.1466 109.159 41.7639 108.891L42.0564 108.761C42.5166 108.524 43.0277 108.398 43.5475 108.393C46.0156 108.393 47.7303 111.198 47.7303 113.714C47.7303 115.069 47.1934 116.811 45.683 117.635L44.8536 118.089C42.9652 119.064 40.4307 119.942 36.4025 119.942C28.0789 119.941 24.2296 115.993 24.0087 107.166L24 106.35V67.236C24 63.1454 26.9989 61.0043 29.9585 61.0068ZM77.1249 71.1711C86.4665 71.1711 94.3466 76.7633 97.6913 85.7603C98.5469 88.0648 98.0579 91.0156 94.2584 92.618L93.6936 92.8378L66.2904 102.605C68.5132 107.154 72.8409 109.851 77.991 109.851C80.1015 109.826 82.1913 109.44 84.166 108.71C86.5179 107.9 88.7131 106.707 90.6589 105.18L91.6454 104.361C92.5965 103.589 93.7876 103.158 95.0224 103.138C97.2766 103.138 99.3143 104.731 99.7674 106.847C100.041 108.109 99.7255 109.399 98.8804 110.526L98.5119 110.97L98.4796 110.995C95.1673 113.824 90.9915 116.185 86.408 117.816C84.6955 118.425 82.9398 118.91 81.1549 119.267C79.194 119.673 77.1965 119.883 75.192 119.891C65.0707 119.891 57.1234 114.125 53.3868 104.069C51.081 97.8596 51.026 91.4218 53.2383 85.9467C55.6837 79.9082 60.6854 75.3909 67.7108 72.8881C70.9097 71.7474 74.078 71.1711 77.1249 71.1711ZM128.309 81.9553C120.636 81.9553 115.48 87.5312 115.48 95.8322C115.48 103.981 120.581 109.452 128.176 109.452C137.039 109.452 141.008 102.545 141.008 95.7023C141.008 86.2041 134.63 81.9553 128.309 81.9553ZM75.6268 80.6119C74.4673 80.6119 73.2756 80.7864 72.0735 81.1318L71.1698 81.4225C64.1925 83.91 62.6489 89.6749 63.4652 94.3016L63.5612 94.7925L85.7716 86.8753C84.0534 83.7483 80.5857 80.6119 75.6268 80.6119Z" fill="#D4256E"/>
</g>
</g>
<defs>
<clipPath id="clip0_1314_27">
<rect width="256" height="256" rx="40" fill="white"/>
</clipPath>
<clipPath id="clip1_1314_27">
<rect width="447" height="59" fill="white" transform="translate(24 61)"/>
</clipPath>
</defs>
</svg>
