<svg width="18" height="18" viewBox="0 0 18 18" fill="none" xmlns="http://www.w3.org/2000/svg">
<path d="M16.1497 5.33381C16.1612 5.4937 16.1612 5.65363 16.1612 5.81352C16.1612 10.6904 12.4493 16.3097 5.66497 16.3097C3.57486 16.3097 1.63325 15.7043 0 14.6536C0.296965 14.6879 0.582469 14.6993 0.890859 14.6993C2.61545 14.6993 4.20303 14.1168 5.4708 13.1232C3.84898 13.0889 2.48984 12.0267 2.02155 10.5648C2.25 10.599 2.47841 10.6219 2.71828 10.6219C3.04949 10.6219 3.38073 10.5762 3.68909 10.4963C1.99874 10.1536 0.730934 8.66884 0.730934 6.8757V6.83003C1.22203 7.10414 1.79314 7.27546 2.39843 7.29827C1.40477 6.63582 0.753785 5.50513 0.753785 4.22593C0.753785 3.54067 0.936492 2.9125 1.25631 2.36427C3.0723 4.60284 5.80201 6.06475 8.86289 6.22467C8.8058 5.95056 8.77152 5.66505 8.77152 5.37952C8.77152 3.3465 10.4162 1.69043 12.4606 1.69043C13.5228 1.69043 14.4822 2.13586 15.156 2.8554C15.9898 2.69551 16.7893 2.38712 17.4974 1.96454C17.2233 2.82116 16.6408 3.5407 15.8756 3.99752C16.618 3.91761 17.3375 3.71198 17.9999 3.42648C17.4975 4.15741 16.8693 4.8084 16.1497 5.33381Z" fill="#3E3E3E"/>
</svg>
