<svg width="31" height="31" viewBox="0 0 31 31" fill="none" xmlns="http://www.w3.org/2000/svg">
<path d="M17.7778 15.4649L30.6273 2.64974C30.8812 2.35401 31.0139 1.97361 30.9988 1.58456C30.9838 1.19551 30.8221 0.82645 30.546 0.551142C30.27 0.275833 29.8999 0.11455 29.5098 0.0995224C29.1197 0.0844949 28.7383 0.21683 28.4418 0.470082L15.5923 13.2852L2.74279 0.454623C2.45092 0.163533 2.05506 0 1.64229 0C1.22952 0 0.833663 0.163533 0.541792 0.454623C0.249922 0.745713 0.0859502 1.14052 0.0859502 1.55218C0.0859502 1.96384 0.249922 2.35865 0.541792 2.64974L13.4068 15.4649L0.541792 28.28C0.379536 28.4186 0.247754 28.5891 0.154718 28.7809C0.061682 28.9727 0.00940026 29.1816 0.00115505 29.3945C-0.00709017 29.6074 0.0288783 29.8197 0.106804 30.018C0.184729 30.2164 0.30293 30.3966 0.453985 30.5472C0.605039 30.6979 0.785688 30.8158 0.984592 30.8935C1.1835 30.9712 1.39636 31.0071 1.60983 30.9988C1.82329 30.9906 2.03275 30.9385 2.22505 30.8457C2.41735 30.7529 2.58834 30.6215 2.72729 30.4597L15.5923 17.6445L28.4418 30.4597C28.7383 30.7129 29.1197 30.8452 29.5098 30.8302C29.8999 30.8152 30.27 30.6539 30.546 30.3786C30.8221 30.1033 30.9838 29.7342 30.9988 29.3452C31.0139 28.9561 30.8812 28.5757 30.6273 28.28L17.7778 15.4649Z" fill="#2D2D2D"/>
</svg>
