<svg width="30" height="22" viewBox="0 0 30 22" fill="none" xmlns="http://www.w3.org/2000/svg">
<path d="M1.828 21C1.40267 21 1.074 20.8937 0.842 20.681C0.629333 20.449 0.523 20.1203 0.523 19.695V1.86C0.523 1.43467 0.629333 1.11567 0.842 0.902999C1.074 0.670999 1.40267 0.554999 1.828 0.554999H12.616C12.9447 0.554999 13.196 0.641999 13.37 0.815999C13.544 0.989999 13.631 1.23167 13.631 1.541C13.631 1.86967 13.544 2.121 13.37 2.295C13.196 2.469 12.9447 2.556 12.616 2.556H2.843V9.632H12.007C12.3357 9.632 12.587 9.719 12.761 9.893C12.935 10.0477 13.022 10.2893 13.022 10.618C13.022 10.9467 12.935 11.198 12.761 11.372C12.587 11.546 12.3357 11.633 12.007 11.633H2.843V18.999H12.616C12.9447 18.999 13.196 19.086 13.37 19.26C13.544 19.434 13.631 19.6757 13.631 19.985C13.631 20.3137 13.544 20.565 13.37 20.739C13.196 20.913 12.9447 21 12.616 21H1.828ZM18.2712 21.203C17.8846 21.203 17.5946 21.0967 17.4012 20.884C17.2079 20.6713 17.1112 20.3717 17.1112 19.985V7.892C17.1112 7.50533 17.2079 7.21533 17.4012 7.022C17.5946 6.80933 17.8749 6.703 18.2422 6.703C18.6096 6.703 18.8899 6.80933 19.0832 7.022C19.2959 7.21533 19.4022 7.50533 19.4022 7.892V10.386L19.0832 10.038C19.4892 8.91667 20.1466 8.07567 21.0552 7.515C21.9832 6.935 23.0466 6.645 24.2452 6.645C25.3666 6.645 26.2946 6.848 27.0292 7.254C27.7832 7.66 28.3439 8.27867 28.7112 9.11C29.0786 9.922 29.2622 10.9563 29.2622 12.213V19.985C29.2622 20.3717 29.1559 20.6713 28.9432 20.884C28.7499 21.0967 28.4696 21.203 28.1022 21.203C27.7156 21.203 27.4159 21.0967 27.2032 20.884C27.0099 20.6713 26.9132 20.3717 26.9132 19.985V12.358C26.9132 11.0433 26.6522 10.0863 26.1302 9.487C25.6276 8.86833 24.8156 8.559 23.6942 8.559C22.3989 8.559 21.3646 8.965 20.5912 9.777C19.8372 10.5697 19.4602 11.633 19.4602 12.967V19.985C19.4602 20.797 19.0639 21.203 18.2712 21.203Z" fill="#3D3D3D"/>
</svg>
