<svg width="27" height="22" viewBox="0 0 27 22" fill="none" xmlns="http://www.w3.org/2000/svg">
<path d="M1.799 21.203C1.393 21.203 1.074 21.0967 0.842 20.884C0.629333 20.652 0.523 20.3233 0.523 19.898V1.86C0.523 1.43467 0.629333 1.11567 0.842 0.902999C1.074 0.670999 1.40267 0.554999 1.828 0.554999H12.355C12.6837 0.554999 12.935 0.641999 13.109 0.815999C13.283 0.989999 13.37 1.23167 13.37 1.541C13.37 1.86967 13.283 2.121 13.109 2.295C12.935 2.469 12.6837 2.556 12.355 2.556H2.901V9.69H11.746C12.0747 9.69 12.326 9.777 12.5 9.951C12.6933 10.125 12.79 10.3667 12.79 10.676C12.79 11.0047 12.6933 11.256 12.5 11.43C12.326 11.604 12.0747 11.691 11.746 11.691H2.901V19.898C2.901 20.768 2.53367 21.203 1.799 21.203ZM19.9623 21.261C18.9956 21.261 18.1256 21.0773 17.3523 20.71C16.5983 20.3233 15.999 19.8013 15.5543 19.144C15.1096 18.4867 14.8873 17.752 14.8873 16.94C14.8873 15.896 15.1483 15.0743 15.6703 14.475C16.2116 13.8757 17.0913 13.4503 18.3093 13.199C19.5466 12.9477 21.2286 12.822 23.3553 12.822H24.6603V14.359H23.3843C21.8183 14.359 20.581 14.4363 19.6723 14.591C18.783 14.7263 18.1546 14.968 17.7873 15.316C17.4393 15.664 17.2653 16.157 17.2653 16.795C17.2653 17.5877 17.536 18.2353 18.0773 18.738C18.638 19.2407 19.392 19.492 20.3393 19.492C21.1126 19.492 21.7893 19.3083 22.3693 18.941C22.9686 18.5737 23.4326 18.071 23.7613 17.433C24.1093 16.795 24.2833 16.0603 24.2833 15.229V11.923C24.2833 10.7243 24.0416 9.864 23.5583 9.342C23.075 8.80067 22.2823 8.53 21.1803 8.53C20.5036 8.53 19.827 8.617 19.1503 8.791C18.4736 8.965 17.7583 9.24533 17.0043 9.632C16.7336 9.76733 16.5016 9.81567 16.3083 9.777C16.115 9.719 15.9603 9.61267 15.8443 9.458C15.7283 9.30333 15.6606 9.12933 15.6413 8.936C15.622 8.72333 15.6606 8.52033 15.7573 8.327C15.8733 8.13367 16.0473 7.979 16.2793 7.863C17.13 7.43767 17.971 7.12833 18.8023 6.935C19.6336 6.74167 20.4263 6.645 21.1803 6.645C22.3983 6.645 23.4036 6.848 24.1963 7.254C24.989 7.64067 25.5786 8.24 25.9653 9.052C26.352 9.84467 26.5453 10.8693 26.5453 12.126V19.985C26.5453 20.3717 26.4486 20.6713 26.2553 20.884C26.0813 21.0967 25.8203 21.203 25.4723 21.203C25.105 21.203 24.8246 21.0967 24.6313 20.884C24.438 20.6713 24.3413 20.3717 24.3413 19.985V17.723H24.6023C24.4476 18.4577 24.148 19.086 23.7033 19.608C23.278 20.13 22.7463 20.536 22.1083 20.826C21.4703 21.116 20.755 21.261 19.9623 21.261Z" fill="#3D3D3D"/>
</svg>
