<svg width="13" height="15" viewBox="0 0 13 15" fill="none" xmlns="http://www.w3.org/2000/svg">
<path d="M5.01533 14.095C4.00199 14.095 3.223 13.981 2.67833 13.753C2.14633 13.525 1.77899 13.1703 1.57633 12.689C1.37366 12.2077 1.25966 11.587 1.23433 10.827L0.854328 0.433999H2.41233L2.79233 10.219C2.81766 10.8397 2.87466 11.321 2.96333 11.663C3.06466 11.9923 3.28 12.2203 3.60933 12.347C3.95133 12.4737 4.48333 12.537 5.20533 12.537C5.47133 12.537 5.66133 12.613 5.77533 12.765C5.902 12.9043 5.96533 13.0753 5.96533 13.278C5.96533 13.4807 5.87666 13.6707 5.69933 13.848C5.522 14.0127 5.294 14.095 5.01533 14.095ZM5.01562 14.095L5.20563 12.537C5.52229 12.537 5.87063 12.537 6.25063 12.537C6.64329 12.5243 7.03596 12.5117 7.42863 12.499C7.83396 12.4863 8.20763 12.461 8.54963 12.423C8.89163 12.3723 9.17663 12.309 9.40463 12.233C9.86063 12.0683 10.2153 11.8657 10.4686 11.625C10.722 11.3717 10.8993 11.0423 11.0006 10.637C11.1146 10.219 11.1716 9.687 11.1716 9.041C11.1716 8.509 11.102 8.015 10.9626 7.559C10.8233 7.103 10.627 6.73567 10.3736 6.457C10.1203 6.17833 9.81629 6.039 9.46163 6.039C9.17029 6.039 8.90429 6.153 8.66363 6.381C8.43563 6.59633 8.25196 6.875 8.11263 7.217C7.98596 7.559 7.92263 7.901 7.92263 8.243C7.92263 8.509 7.97329 8.737 8.07463 8.927C8.18863 9.117 8.37229 9.269 8.62563 9.383C8.87896 9.48433 9.20829 9.535 9.61363 9.535C9.98096 9.535 10.3483 9.497 10.7156 9.421C11.0956 9.345 11.4186 9.24367 11.6846 9.117L11.7606 10.447C11.558 10.5863 11.33 10.7003 11.0766 10.789C10.8233 10.8777 10.5573 10.941 10.2786 10.979C9.99996 11.017 9.72129 11.036 9.44263 11.036C8.79663 11.036 8.24563 10.9347 7.78963 10.732C7.34629 10.5167 7.00429 10.2317 6.76363 9.877C6.53563 9.50967 6.42163 9.09167 6.42163 8.623C6.42163 8.14167 6.49763 7.66033 6.64963 7.179C6.80163 6.685 7.01696 6.23533 7.29563 5.83C7.57429 5.42467 7.90996 5.10167 8.30263 4.861C8.69529 4.60767 9.13229 4.481 9.61363 4.481C10.2976 4.481 10.8613 4.70267 11.3046 5.146C11.7606 5.58933 12.0963 6.172 12.3116 6.894C12.5396 7.60333 12.6536 8.357 12.6536 9.155C12.6536 10.105 12.489 10.922 12.1596 11.606C11.843 12.2773 11.311 12.8347 10.5636 13.278C10.2723 13.4427 9.91763 13.582 9.49963 13.696C9.09429 13.7973 8.64463 13.8797 8.15063 13.943C7.66929 14.0063 7.16263 14.0443 6.63063 14.057C6.09863 14.0823 5.56029 14.095 5.01562 14.095ZM9.25263 2.524C8.98663 2.524 8.75863 2.43533 8.56863 2.258C8.39129 2.068 8.30263 1.84633 8.30263 1.593C8.30263 1.33967 8.39129 1.118 8.56863 0.928C8.75863 0.738 8.98663 0.643 9.25263 0.643C9.50596 0.643 9.72129 0.738 9.89862 0.928C10.0886 1.118 10.1836 1.33967 10.1836 1.593C10.1836 1.84633 10.0886 2.068 9.89862 2.258C9.72129 2.43533 9.50596 2.524 9.25263 2.524Z" fill="#3D3D3D"/>
</svg>
