<svg width="30" height="30" viewBox="0 0 30 30" fill="none" xmlns="http://www.w3.org/2000/svg">
<path d="M15 8.75C11.55 8.75 8.75 11.55 8.75 15C8.75 18.45 11.55 21.25 15 21.25C18.45 21.25 21.25 18.45 21.25 15C21.25 11.55 18.45 8.75 15 8.75ZM2.5 16.25H5C5.6875 16.25 6.25 15.6875 6.25 15C6.25 14.3125 5.6875 13.75 5 13.75H2.5C1.8125 13.75 1.25 14.3125 1.25 15C1.25 15.6875 1.8125 16.25 2.5 16.25ZM25 16.25H27.5C28.1875 16.25 28.75 15.6875 28.75 15C28.75 14.3125 28.1875 13.75 27.5 13.75H25C24.3125 13.75 23.75 14.3125 23.75 15C23.75 15.6875 24.3125 16.25 25 16.25ZM13.75 2.5V5C13.75 5.6875 14.3125 6.25 15 6.25C15.6875 6.25 16.25 5.6875 16.25 5V2.5C16.25 1.8125 15.6875 1.25 15 1.25C14.3125 1.25 13.75 1.8125 13.75 2.5ZM13.75 25V27.5C13.75 28.1875 14.3125 28.75 15 28.75C15.6875 28.75 16.25 28.1875 16.25 27.5V25C16.25 24.3125 15.6875 23.75 15 23.75C14.3125 23.75 13.75 24.3125 13.75 25ZM7.4875 5.725C7.37186 5.60912 7.2345 5.51719 7.08328 5.45446C6.93206 5.39173 6.76996 5.35945 6.60625 5.35945C6.44254 5.35945 6.28044 5.39173 6.12922 5.45446C5.978 5.51719 5.84064 5.60912 5.725 5.725C5.60912 5.84064 5.51719 5.978 5.45446 6.12922C5.39173 6.28044 5.35945 6.44254 5.35945 6.60625C5.35945 6.76996 5.39173 6.93206 5.45446 7.08328C5.51719 7.2345 5.60912 7.37186 5.725 7.4875L7.05 8.8125C7.5375 9.3 8.3375 9.3 8.8125 8.8125C9.2875 8.325 9.3 7.525 8.8125 7.05L7.4875 5.725ZM22.95 21.1875C22.8344 21.0716 22.697 20.9797 22.5458 20.917C22.3946 20.8542 22.2325 20.8219 22.0688 20.8219C21.905 20.8219 21.7429 20.8542 21.5917 20.917C21.4405 20.9797 21.3031 21.0716 21.1875 21.1875C21.0716 21.3031 20.9797 21.4405 20.917 21.5917C20.8542 21.7429 20.8219 21.905 20.8219 22.0688C20.8219 22.2325 20.8542 22.3946 20.917 22.5458C20.9797 22.697 21.0716 22.8344 21.1875 22.95L22.5125 24.275C23 24.7625 23.8 24.7625 24.275 24.275C24.3909 24.1594 24.4828 24.022 24.5455 23.8708C24.6083 23.7196 24.6406 23.5575 24.6406 23.3938C24.6406 23.23 24.6083 23.0679 24.5455 22.9167C24.4828 22.7655 24.3909 22.6281 24.275 22.5125L22.95 21.1875ZM24.275 7.4875C24.3909 7.37186 24.4828 7.2345 24.5455 7.08328C24.6083 6.93206 24.6406 6.76996 24.6406 6.60625C24.6406 6.44254 24.6083 6.28044 24.5455 6.12922C24.4828 5.978 24.3909 5.84064 24.275 5.725C24.1594 5.60912 24.022 5.51719 23.8708 5.45446C23.7196 5.39173 23.5575 5.35945 23.3938 5.35945C23.23 5.35945 23.0679 5.39173 22.9167 5.45446C22.7655 5.51719 22.6281 5.60912 22.5125 5.725L21.1875 7.05C20.7 7.5375 20.7 8.3375 21.1875 8.8125C21.675 9.2875 22.475 9.3 22.95 8.8125L24.275 7.4875ZM8.8125 22.95C8.92838 22.8344 9.02031 22.697 9.08304 22.5458C9.14577 22.3946 9.17806 22.2325 9.17806 22.0688C9.17806 21.905 9.14577 21.7429 9.08304 21.5917C9.02031 21.4405 8.92838 21.3031 8.8125 21.1875C8.69686 21.0716 8.5595 20.9797 8.40828 20.917C8.25706 20.8542 8.09496 20.8219 7.93125 20.8219C7.76754 20.8219 7.60544 20.8542 7.45422 20.917C7.303 20.9797 7.16564 21.0716 7.05 21.1875L5.725 22.5125C5.2375 23 5.2375 23.8 5.725 24.275C6.2125 24.75 7.0125 24.7625 7.4875 24.275L8.8125 22.95V22.95Z" fill="#3D3D3D"/>
</svg>
