<svg width="24" height="24" viewBox="0 0 24 24" fill="none" xmlns="http://www.w3.org/2000/svg">
<path d="M3.28256 11.2302C3.19298 11.1449 3.12192 11.0436 3.07344 10.9321C3.02496 10.8207 3 10.7012 3 10.5805C3 10.4598 3.02496 10.3403 3.07344 10.2288C3.12192 10.1173 3.19298 10.0161 3.28256 9.93079L11.3187 2.26938C11.4081 2.18398 11.5144 2.11624 11.6313 2.07001C11.7482 2.02379 11.8736 2 12.0001 2C12.1267 2 12.2521 2.02379 12.369 2.07001C12.4859 2.11624 12.5922 2.18398 12.6816 2.26938L20.7177 9.93079C20.8072 10.0161 20.8782 10.1174 20.9266 10.2289C20.9751 10.3403 21 10.4598 21 10.5805C21 10.7011 20.9751 10.8206 20.9266 10.9321C20.8782 11.0436 20.8072 11.1448 20.7177 11.2302C20.6282 11.3155 20.522 11.3832 20.4051 11.4293C20.2881 11.4755 20.1628 11.4993 20.0363 11.4993C19.9097 11.4993 19.7844 11.4755 19.6675 11.4293C19.5505 11.3832 19.4443 11.3155 19.3548 11.2302L12.9645 5.13904V20.0806C12.9645 20.3245 12.8629 20.5583 12.682 20.7307C12.5012 20.9031 12.2559 21 12.0001 21C11.7444 21 11.4991 20.9031 11.3183 20.7307C11.1374 20.5583 11.0358 20.3245 11.0358 20.0806V5.13904L4.64548 11.2302C4.55604 11.3156 4.44981 11.3833 4.33288 11.4295C4.21595 11.4758 4.0906 11.4995 3.96402 11.4995C3.83743 11.4995 3.71209 11.4758 3.59516 11.4295C3.47823 11.3833 3.372 11.3156 3.28256 11.2302Z" fill="#1B1B1B"/>
</svg>
