<svg width="11" height="13" viewBox="0 0 11 13" fill="none" xmlns="http://www.w3.org/2000/svg">
<path d="M4.24975 12.08C3.39642 12.08 2.74042 11.984 2.28175 11.792C1.83375 11.6 1.52442 11.3013 1.35375 10.896C1.18308 10.4907 1.08708 9.968 1.06575 9.328L0.74575 0.575999H2.05775L2.37775 8.816C2.39908 9.33867 2.44708 9.744 2.52175 10.032C2.60708 10.3093 2.78842 10.5013 3.06575 10.608C3.35375 10.7147 3.80175 10.768 4.40975 10.768C4.63375 10.768 4.79375 10.832 4.88975 10.96C4.99642 11.0773 5.04975 11.2213 5.04975 11.392C5.04975 11.5627 4.97508 11.7227 4.82575 11.872C4.67642 12.0107 4.48442 12.08 4.24975 12.08ZM4.25 12.08L4.41 10.768C4.67667 10.768 4.97 10.768 5.29 10.768C5.62067 10.7573 5.95133 10.7467 6.282 10.736C6.62333 10.7253 6.938 10.704 7.226 10.672C7.514 10.6293 7.754 10.576 7.946 10.512C8.33 10.3733 8.62867 10.2027 8.842 10C9.05533 9.78667 9.20467 9.50933 9.29 9.168C9.386 8.816 9.434 8.368 9.434 7.824C9.434 7.376 9.37533 6.96 9.258 6.576C9.14067 6.192 8.97533 5.88267 8.762 5.648C8.54867 5.41333 8.29267 5.296 7.994 5.296C7.74867 5.296 7.52467 5.392 7.322 5.584C7.13 5.76533 6.97533 6 6.858 6.288C6.75133 6.576 6.698 6.864 6.698 7.152C6.698 7.376 6.74067 7.568 6.826 7.728C6.922 7.888 7.07667 8.016 7.29 8.112C7.50333 8.19733 7.78067 8.24 8.122 8.24C8.43133 8.24 8.74067 8.208 9.05 8.144C9.37 8.08 9.642 7.99467 9.866 7.888L9.93 9.008C9.75933 9.12533 9.56733 9.22133 9.354 9.296C9.14067 9.37067 8.91667 9.424 8.682 9.456C8.44733 9.488 8.21267 9.504 7.978 9.504C7.434 9.504 6.97 9.41867 6.586 9.248C6.21267 9.06667 5.92467 8.82667 5.722 8.528C5.53 8.21867 5.434 7.86667 5.434 7.472C5.434 7.06667 5.498 6.66133 5.626 6.256C5.754 5.84 5.93533 5.46133 6.17 5.12C6.40467 4.77867 6.68733 4.50667 7.018 4.304C7.34867 4.09067 7.71667 3.984 8.122 3.984C8.698 3.984 9.17267 4.17067 9.546 4.544C9.93 4.91733 10.2127 5.408 10.394 6.016C10.586 6.61333 10.682 7.248 10.682 7.92C10.682 8.72 10.5433 9.408 10.266 9.984C9.99933 10.5493 9.55133 11.0187 8.922 11.392C8.67667 11.5307 8.378 11.648 8.026 11.744C7.68467 11.8293 7.306 11.8987 6.89 11.952C6.48467 12.0053 6.058 12.0373 5.61 12.048C5.162 12.0693 4.70867 12.08 4.25 12.08ZM7.818 2.336C7.594 2.336 7.402 2.26133 7.242 2.112C7.09267 1.952 7.018 1.76533 7.018 1.552C7.018 1.33867 7.09267 1.152 7.242 0.992C7.402 0.832 7.594 0.752 7.818 0.752C8.03133 0.752 8.21267 0.832 8.362 0.992C8.522 1.152 8.602 1.33867 8.602 1.552C8.602 1.76533 8.522 1.952 8.362 2.112C8.21267 2.26133 8.03133 2.336 7.818 2.336Z" fill="#3D3D3D"/>
</svg>
