<svg width="550" height="518" viewBox="0 0 550 518" fill="none" xmlns="http://www.w3.org/2000/svg">
<g clip-path="url(#clip0_913_1344)">
<path d="M399.303 293.944V437.038L423.233 476.046L425.055 479.013H519.479L521.387 293.944H399.303Z" fill="#292929"/>
<path opacity="0.1" d="M399.303 293.944V437.038L423.233 476.046L424.702 293.944H399.303Z" fill="black"/>
<path d="M171.349 290.128V433.222L147.418 472.23L145.597 475.196H51.1728L49.2649 290.128H171.349Z" fill="#292929"/>
<path opacity="0.1" d="M171.349 290.128V433.222L147.418 472.23L145.95 290.128H171.349Z" fill="black"/>
<path d="M550 287.266V295.852H36.8657V283.45L84.5546 258.647H508.034L550 287.266Z" fill="#999999"/>
<g filter="url(#filter0_d_913_1344)">
<path d="M399.5 439L426 478.257L146 474.5L171.5 434L399.5 439Z" fill="#060606" fill-opacity="0.07" shape-rendering="crispEdges"/>
</g>
<path opacity="0.1" d="M550 287.267V295.852H36.8657V283.45L550 287.267Z" fill="black"/>
<path d="M110.307 330.194H87.4162L77.8784 323.517H120.799L110.307 330.194Z" fill="#FF9F1C"/>
<path d="M110.307 357.859H87.4162L77.8784 351.182H120.799L110.307 357.859Z" fill="#FF9F1C"/>
<path d="M110.307 396.972H87.4162L77.8784 390.294H120.799L110.307 396.972Z" fill="#FF9F1C"/>
<path d="M110.307 436.084H87.4162L77.8784 429.407H120.799L110.307 436.084Z" fill="#FF9F1C"/>
<path d="M460.344 334.01H483.236L492.773 327.332H449.853L460.344 334.01Z" fill="#FF9F1C"/>
<path d="M460.344 361.675H483.236L492.773 354.997H449.853L460.344 361.675Z" fill="#FF9F1C"/>
<path d="M460.344 400.788H483.236L492.773 394.11H449.853L460.344 400.788Z" fill="#FF9F1C"/>
<path d="M460.344 439.9H483.236L492.773 433.222H449.853L460.344 439.9Z" fill="#FF9F1C"/>
<g filter="url(#filter1_d_913_1344)">
<path d="M475.933 93.173H283.224C282.267 93.1729 281.319 93.3613 280.435 93.7276C279.551 94.0939 278.747 94.6308 278.071 95.3077C277.394 95.9846 276.857 96.7882 276.491 97.6727C276.125 98.5571 275.936 99.5051 275.936 100.462V230.3C275.936 231.258 276.125 232.206 276.491 233.09C276.857 233.975 277.394 234.778 278.071 235.455C278.747 236.132 279.551 236.669 280.435 237.035C281.319 237.401 282.267 237.59 283.224 237.59H356.378L353.637 255.091C353.637 255.091 337.975 263.413 348.988 263.658C360 263.903 411.883 263.658 411.883 263.658C411.883 263.658 421.917 263.658 406.009 254.846L403.431 237.59H475.933C476.89 237.59 477.838 237.401 478.722 237.035C479.606 236.669 480.41 236.132 481.087 235.455C481.763 234.778 482.3 233.975 482.666 233.09C483.033 232.206 483.221 231.258 483.221 230.3V100.462C483.221 99.5051 483.033 98.5571 482.666 97.6727C482.3 96.7882 481.763 95.9846 481.087 95.3077C480.41 94.6308 479.606 94.0939 478.722 93.7276C477.838 93.3613 476.89 93.1728 475.933 93.173Z" fill="#373737"/>
</g>
<path d="M476.246 100.883H282.911V209.074H476.246V100.883Z" fill="#1B1B1B"/>
<path d="M379.578 98.6804C380.254 98.6804 380.802 98.1325 380.802 97.4565C380.802 96.7806 380.254 96.2327 379.578 96.2327C378.903 96.2327 378.355 96.7806 378.355 97.4565C378.355 98.1325 378.903 98.6804 379.578 98.6804Z" fill="#F2F2F2"/>
<path d="M379.579 232.327C382.147 232.327 384.228 230.245 384.228 227.677C384.228 225.108 382.147 223.026 379.579 223.026C377.011 223.026 374.929 225.108 374.929 227.677C374.929 230.245 377.011 232.327 379.579 232.327Z" fill="#F2F2F2"/>
<path d="M372.333 276.876V279.324H240.669V277.366L240.85 276.876L244.095 268.064H369.641L372.333 276.876Z" fill="#3E3E3E"/>
<path d="M423.001 274.48C422.761 275.505 421.856 276.587 419.81 277.61C412.468 281.282 397.54 276.631 397.54 276.631C397.54 276.631 386.037 274.673 386.037 269.533C386.36 269.312 386.697 269.111 387.046 268.933C390.132 267.3 400.367 263.269 418.514 269.104C419.851 269.524 421.045 270.306 421.963 271.365C422.37 271.765 422.676 272.256 422.857 272.797C423.037 273.339 423.087 273.915 423.001 274.48Z" fill="#3E3E3E"/>
<path opacity="0.1" d="M423.001 274.48C414.015 277.924 406.005 278.181 397.784 272.47C394.676 270.172 390.912 268.932 387.046 268.933C390.132 267.3 400.367 263.269 418.514 269.104C419.851 269.524 421.045 270.306 421.963 271.365C422.37 271.765 422.676 272.256 422.857 272.797C423.037 273.339 423.087 273.915 423.001 274.48Z" fill="black"/>
<path d="M411.734 272.47C413.491 272.47 414.915 272.032 414.915 271.491C414.915 270.95 413.491 270.512 411.734 270.512C409.977 270.512 408.552 270.95 408.552 271.491C408.552 272.032 409.977 272.47 411.734 272.47Z" fill="#F2F2F2"/>
<path opacity="0.1" d="M372.333 276.876V279.324H240.669V277.366L240.85 276.876H372.333Z" fill="black"/>
<path d="M73.2069 0.00012937C71.8707 -0.109603 70.5326 0.189359 69.3701 0.8574C68.2286 1.63925 67.5092 3.00898 66.7748 4.28359C63.967 9.21514 60.1658 13.5097 55.612 16.8952C52.2952 19.3256 48.0782 22.3559 48.6457 26.8368C48.9451 28.3166 49.4917 29.7353 50.2625 31.0334C53.3223 37.2114 61.6722 41.9856 60.8509 49.0352C63.891 43.9448 59.8247 41.4278 62.8647 36.3375C64.3125 33.9134 66.8275 31.177 69.0133 32.6993C69.7452 33.2091 70.2258 34.1233 70.9878 34.5706C72.8061 35.6378 74.7406 33.5975 76.3501 32.1523C81.9004 27.169 89.7933 28.4745 96.7001 30.0272C99.9607 30.7602 103.542 31.7219 105.47 34.8389C108.004 38.9371 103.062 43.3632 101.813 47.9965C101.711 48.3914 101.706 48.805 101.799 49.202C101.892 49.5991 102.079 49.9678 102.346 50.2766C102.612 50.5854 102.949 50.8251 103.328 50.9753C103.707 51.1254 104.117 51.1814 104.522 51.1386C106.595 50.9341 109.05 50.7666 109.172 49.857C111.78 49.9498 114.974 49.6545 116.092 46.9389C116.433 45.8645 116.614 44.7455 116.627 43.6182C117.037 39.0567 118.973 34.8952 120.255 30.5538C121.537 26.2123 122.095 21.1244 119.931 17.2752C119.159 15.9946 118.204 14.8335 117.096 13.8289C104.816 1.94267 88.6702 -0.0175142 73.2069 0.00012937Z" fill="black"/>
<path d="M63.5216 57.9392C63.5216 57.9392 66.1923 80.1993 56.3997 81.9801C46.6071 83.761 65.3021 114.035 65.3021 114.035L109.814 119.377L99.1311 83.7609C99.1311 83.7609 92.0092 81.0897 96.4604 63.2816C100.912 45.4735 63.5216 57.9392 63.5216 57.9392Z" fill="#FFB8B8"/>
<path d="M36.3694 440.368L39.9307 489.34H58.625L53.2842 440.368H36.3694Z" fill="#FFB8B8"/>
<path d="M173.466 347.766L176.136 388.724L196.612 379.821L188.599 345.985L173.466 347.766Z" fill="#FFB8B8"/>
<path d="M23.0159 253.383C23.0159 253.383 23.9061 305.027 29.2475 321.944C34.589 338.862 33.6987 339.752 32.8085 342.424C31.9183 345.095 31.028 343.314 31.028 347.766C31.028 352.218 29.2475 422.56 31.028 428.793C32.8085 435.026 25.6866 445.71 31.028 446.601C36.3694 447.491 61.296 446.601 62.1863 441.258C63.0765 435.916 55.0644 434.135 58.6253 430.574C62.1863 427.012 67.5277 353.999 67.5277 353.999L79.991 303.246L103.137 276.534H152.1L167.234 335.3C167.234 335.3 161.002 352.218 165.454 352.218C169.905 352.218 196.612 357.56 196.612 337.971C196.612 318.383 187.709 260.506 185.929 258.725C184.149 256.945 186.819 250.712 184.149 248.041C181.478 245.369 150.32 226.671 138.747 223.109C127.173 219.548 110.938 215.309 110.938 215.309L23.0159 253.383Z" fill="#151515"/>
<path d="M196.612 372.697C196.612 372.697 183.258 368.245 177.027 381.601C170.795 394.957 173.466 398.519 173.466 398.519C173.466 398.519 193.941 405.642 197.502 402.081C199.051 400.531 203.971 399.993 209.035 399.879C216.747 399.706 218.799 388.792 211.515 386.251C211.298 386.175 211.078 386.109 210.856 386.053C203.734 384.273 196.612 372.697 196.612 372.697Z" fill="black"/>
<path d="M83.5518 72.6309C98.3017 72.6309 110.259 60.6715 110.259 45.9187C110.259 31.166 98.3017 19.2066 83.5518 19.2066C68.8019 19.2066 56.8447 31.166 56.8447 45.9187C56.8447 60.6715 68.8019 72.6309 83.5518 72.6309Z" fill="#FFB8B8"/>
<path d="M48.8326 93.1102C48.8326 93.1102 92.4541 102.014 103.137 87.7678C113.82 73.5213 118.271 127.836 118.271 127.836L123.612 184.822L115.6 215.986C115.6 215.986 73.7592 249.821 60.4056 252.493C47.0521 255.164 26.5767 256.945 26.5767 256.945C26.5767 256.945 32.8084 158.11 32.8084 156.329C32.8084 154.548 48.8326 93.1102 48.8326 93.1102Z" fill="#FF9F1C"/>
<path d="M62.0991 76.411C62.0991 76.411 52.3937 70.8501 49.723 76.1925C47.0523 81.5349 22.1257 94.891 19.4549 94.891C16.7842 94.891 24.7964 168.795 21.2354 177.699C17.6745 186.603 0.760005 251.602 10.5526 256.945C20.3452 262.287 13.2233 251.602 23.0159 264.958C32.8085 278.314 80.8812 278.314 83.5519 272.972C86.2226 267.63 62.1863 227.561 66.6374 190.164C71.0886 152.767 78.2105 101.124 71.9789 94.0006C65.7472 86.8774 62.0991 76.411 62.0991 76.411Z" fill="#151515"/>
<path d="M94.2346 82.4253L95.4746 78.1572C95.4746 78.1572 132.515 90.439 134.295 98.4526C136.076 106.466 135.185 162.562 128.954 167.014C122.722 171.466 113.82 178.589 120.051 189.274C126.283 199.959 133.405 211.534 138.746 212.424C144.088 213.315 153.88 219.548 151.21 225.78C148.539 232.013 116.491 220.438 116.491 220.438C116.491 220.438 95.1249 204.411 96.0151 179.479C96.9053 154.548 94.2346 82.4253 94.2346 82.4253Z" fill="#151515"/>
<path d="M125.393 187.493L104.027 227.561C104.027 227.561 72.869 259.616 90.6738 263.177C108.479 266.739 118.271 233.794 118.271 233.794L141.417 200.849L125.393 187.493Z" fill="#FFB8B8"/>
<path d="M74.5079 6.98929C73.4314 6.90951 72.3531 7.11869 71.3845 7.59521C70.5088 8.23494 69.787 9.0623 69.2719 10.0168C66.8974 13.5893 63.8021 16.6255 60.1849 18.9306C57.4848 20.6484 54.0521 22.7902 54.514 25.9573C54.7648 27.0191 55.2111 28.025 55.8301 28.9234C58.3296 33.3341 59.3246 38.439 58.6646 43.4658L66.0889 32.6723C67.2674 30.959 69.3148 29.0249 71.0941 30.1009C71.6899 30.4612 72.0811 31.1074 72.7014 31.4235C74.1816 32.1778 75.7563 30.7357 77.0666 29.7143C81.5847 26.1921 88.0099 27.1148 93.6323 28.2122C96.2866 28.7303 99.202 29.4101 100.771 31.6131C103.379 35.2742 100.656 40.5642 102.178 44.7936C102.604 44.4953 102.965 44.1145 103.242 43.6737C103.518 43.233 103.703 42.7413 103.785 42.2278C105.908 42.2934 108.508 42.0847 109.418 40.1653C109.694 39.4131 109.842 38.6196 109.854 37.8182C110.188 34.5942 111.763 31.6529 112.807 28.5844C113.851 25.5159 114.305 21.9198 112.543 19.1992C111.899 18.2774 111.121 17.4565 110.235 16.7633C100.239 8.36226 87.0956 6.97683 74.5079 6.98929Z" fill="black"/>
<path d="M125.393 94.891L133.687 97.093C133.687 97.093 152.99 146.534 148.539 180.37C144.088 214.205 141.417 207.082 141.417 207.082C141.417 207.082 134.295 191.055 118.271 194.616L125.393 94.891Z" fill="#151515"/>
<path d="M37.6027 482.868C35.4559 485.786 35.8863 489.957 33.9847 493.04C32.3364 495.713 29.2298 497.114 27.1681 499.482C26.5102 500.269 25.9237 501.113 25.4155 502.004C23.503 505.208 21.9484 509.315 23.832 512.536C25.3473 515.128 28.5323 516.141 31.4534 516.831C35.1454 517.703 38.9815 518.402 42.7162 517.735C46.4508 517.068 50.1008 514.781 51.4324 511.228C51.6941 510.334 52.0052 509.456 52.3644 508.597C54.3886 504.612 60.7378 504.569 62.8095 500.607C64.2593 497.835 62.9266 494.484 61.5944 491.653L57.5257 483.008C56.1755 480.139 50.7019 481.789 47.8484 481.101C44.1269 480.205 40.28 479.217 37.6027 482.868Z" fill="black"/>
<path d="M7.88184 205.301L45.2717 263.177C45.2717 263.177 68.4179 292.561 75.5397 279.205C82.6616 265.849 50.6131 243.589 50.6131 243.589L26.5768 199.068L7.88184 205.301Z" fill="#FFB8B8"/>
<path d="M26.5767 96.6718L19.4548 94.891C19.4548 94.891 5.21106 99.343 1.65012 118.042C-1.91081 136.74 0.759884 211.534 5.21106 212.424C9.66224 213.315 27.1954 199.401 30.0019 202.351C32.8084 205.301 23.906 190.164 26.5767 182.151C29.2474 174.137 26.5767 96.6718 26.5767 96.6718Z" fill="#151515"/>
<path d="M358.983 140H335.974V145.54H358.983V140Z" fill="#FF9F1C"/>
<path d="M438.663 140H430.567V145.54H438.663V140Z" fill="#FF9F1C"/>
<path d="M454.855 140H446.759V145.54H454.855V140Z" fill="#FF9F1C"/>
<path d="M422.046 140H367.079V145.54H422.046V140Z" fill="#FF9F1C"/>
<path d="M330.009 175.799H307V181.339H330.009V175.799Z" fill="#FF9F1C"/>
<path d="M409.689 175.799H401.593V181.339H409.689V175.799Z" fill="#FF9F1C"/>
<path d="M425.88 175.799H417.785V181.339H425.88V175.799Z" fill="#FF9F1C"/>
<path d="M393.071 175.799H338.105V181.339H393.071V175.799Z" fill="#FF9F1C"/>
<path d="M425.028 152.359H402.019V157.899H425.028V152.359Z" fill="#FF9F1C"/>
<path d="M456.133 152.359H433.124V157.899H456.133V152.359Z" fill="#FF9F1C"/>
<path d="M315.096 152.359H307V157.899H315.096V152.359Z" fill="#FF9F1C"/>
<path d="M331.287 152.359H323.192V157.899H331.287V152.359Z" fill="#FF9F1C"/>
<path d="M394.349 152.359H339.383V157.899H394.349V152.359Z" fill="#FF9F1C"/>
<path d="M377.305 164.292H354.296V169.832H377.305V164.292Z" fill="#FF9F1C"/>
<path d="M346.201 164.292H323.192V169.832H346.201V164.292Z" fill="#FF9F1C"/>
<path d="M315.096 164.292H307V169.832H315.096V164.292Z" fill="#FF9F1C"/>
<path d="M456.133 164.292H448.037V169.832H456.133V164.292Z" fill="#FF9F1C"/>
<path d="M439.942 164.292H384.975V169.832H439.942V164.292Z" fill="#FF9F1C"/>
</g>
<defs>
<filter id="filter0_d_913_1344" x="126" y="414" width="320" height="84.2573" filterUnits="userSpaceOnUse" color-interpolation-filters="sRGB">
<feFlood flood-opacity="0" result="BackgroundImageFix"/>
<feColorMatrix in="SourceAlpha" type="matrix" values="0 0 0 0 0 0 0 0 0 0 0 0 0 0 0 0 0 0 127 0" result="hardAlpha"/>
<feOffset/>
<feGaussianBlur stdDeviation="10"/>
<feComposite in2="hardAlpha" operator="out"/>
<feColorMatrix type="matrix" values="0 0 0 0 0.0235294 0 0 0 0 0.0235294 0 0 0 0 0.0235294 0 0 0 0.11 0"/>
<feBlend mode="normal" in2="BackgroundImageFix" result="effect1_dropShadow_913_1344"/>
<feBlend mode="normal" in="SourceGraphic" in2="effect1_dropShadow_913_1344" result="shape"/>
</filter>
<filter id="filter1_d_913_1344" x="271.936" y="93.173" width="215.285" height="178.594" filterUnits="userSpaceOnUse" color-interpolation-filters="sRGB">
<feFlood flood-opacity="0" result="BackgroundImageFix"/>
<feColorMatrix in="SourceAlpha" type="matrix" values="0 0 0 0 0 0 0 0 0 0 0 0 0 0 0 0 0 0 127 0" result="hardAlpha"/>
<feOffset dy="4"/>
<feGaussianBlur stdDeviation="2"/>
<feComposite in2="hardAlpha" operator="out"/>
<feColorMatrix type="matrix" values="0 0 0 0 0 0 0 0 0 0 0 0 0 0 0 0 0 0 0.25 0"/>
<feBlend mode="normal" in2="BackgroundImageFix" result="effect1_dropShadow_913_1344"/>
<feBlend mode="normal" in="SourceGraphic" in2="effect1_dropShadow_913_1344" result="shape"/>
</filter>
<clipPath id="clip0_913_1344">
<rect width="550" height="518" fill="white"/>
</clipPath>
</defs>
</svg>
