<svg width="550" height="518" viewBox="0 0 550 518" fill="none" xmlns="http://www.w3.org/2000/svg">
<g clip-path="url(#clip0_573_182)">
<path d="M399.303 293.944V437.038L423.233 476.046L425.055 479.013H519.479L521.387 293.944H399.303Z" fill="#292929"/>
<path opacity="0.1" d="M399.303 293.944V437.038L423.233 476.046L424.702 293.944H399.303Z" fill="black"/>
<path d="M171.349 290.128V433.222L147.418 472.23L145.597 475.196H51.173L49.2651 290.128H171.349Z" fill="#292929"/>
<path opacity="0.1" d="M171.349 290.128V433.222L147.418 472.23L145.95 290.128H171.349Z" fill="black"/>
<path d="M550 287.266V295.852H36.8657V283.45L84.5546 258.647H508.034L550 287.266Z" fill="#999999"/>
<g filter="url(#filter0_d_573_182)">
<path d="M399.5 439L426 478.257L146 474.5L171.5 434L399.5 439Z" fill="#060606" fill-opacity="0.07" shape-rendering="crispEdges"/>
</g>
<path opacity="0.1" d="M550 287.267V295.852H36.8657V283.45L550 287.267Z" fill="black"/>
<path d="M110.307 330.194H87.4162L77.8784 323.517H120.799L110.307 330.194Z" fill="#FFB703"/>
<path d="M110.307 357.859H87.4162L77.8784 351.182H120.799L110.307 357.859Z" fill="#FFB703"/>
<path d="M110.307 396.972H87.4162L77.8784 390.294H120.799L110.307 396.972Z" fill="#FFB703"/>
<path d="M110.307 436.084H87.4162L77.8784 429.407H120.799L110.307 436.084Z" fill="#FFB703"/>
<path d="M460.344 334.01H483.236L492.773 327.333H449.853L460.344 334.01Z" fill="#FFB703"/>
<path d="M460.344 361.675H483.236L492.773 354.998H449.853L460.344 361.675Z" fill="#FFB703"/>
<path d="M460.344 400.788H483.236L492.773 394.11H449.853L460.344 400.788Z" fill="#FFB703"/>
<path d="M460.344 439.9H483.236L492.773 433.222H449.853L460.344 439.9Z" fill="#FFB703"/>
<g filter="url(#filter1_d_573_182)">
<path d="M475.933 93.1731H283.224C282.267 93.173 281.319 93.3614 280.435 93.7277C279.551 94.094 278.747 94.6309 278.07 95.3078C277.394 95.9847 276.857 96.7884 276.491 97.6728C276.124 98.5573 275.936 99.5052 275.936 100.462V230.301C275.936 231.258 276.124 232.206 276.491 233.09C276.857 233.975 277.394 234.778 278.07 235.455C278.747 236.132 279.551 236.669 280.435 237.035C281.319 237.402 282.267 237.59 283.224 237.59H356.378L353.637 255.091C353.637 255.091 337.975 263.414 348.987 263.658C360 263.903 411.882 263.658 411.882 263.658C411.882 263.658 421.916 263.658 406.009 254.847L403.431 237.59H475.933C476.89 237.59 477.837 237.402 478.722 237.035C479.606 236.669 480.409 236.132 481.086 235.455C481.763 234.778 482.3 233.975 482.666 233.09C483.032 232.206 483.221 231.258 483.221 230.301V100.462C483.221 99.5052 483.032 98.5573 482.666 97.6728C482.3 96.7884 481.763 95.9847 481.086 95.3078C480.409 94.6309 479.606 94.094 478.722 93.7277C477.837 93.3614 476.89 93.173 475.933 93.1731V93.1731Z" fill="#373737"/>
</g>
<path d="M476.246 100.883H282.911V209.074H476.246V100.883Z" fill="#1B1B1B"/>
<path d="M379.579 98.6804C380.254 98.6804 380.802 98.1325 380.802 97.4565C380.802 96.7806 380.254 96.2327 379.579 96.2327C378.903 96.2327 378.355 96.7806 378.355 97.4565C378.355 98.1325 378.903 98.6804 379.579 98.6804Z" fill="#F2F2F2"/>
<path d="M379.579 232.327C382.147 232.327 384.228 230.245 384.228 227.677C384.228 225.108 382.147 223.026 379.579 223.026C377.011 223.026 374.929 225.108 374.929 227.677C374.929 230.245 377.011 232.327 379.579 232.327Z" fill="#F2F2F2"/>
<path d="M372.333 276.876V279.324H240.669V277.366L240.85 276.876L244.095 268.064H369.641L372.333 276.876Z" fill="#3E3E3E"/>
<path d="M423.001 274.48C422.761 275.505 421.856 276.587 419.81 277.61C412.468 281.282 397.539 276.631 397.539 276.631C397.539 276.631 386.037 274.673 386.037 269.533C386.36 269.312 386.697 269.111 387.045 268.933C390.132 267.3 400.367 263.269 418.514 269.104C419.85 269.524 421.045 270.306 421.963 271.365C422.37 271.765 422.676 272.256 422.856 272.797C423.037 273.339 423.086 273.915 423.001 274.48Z" fill="#3E3E3E"/>
<path opacity="0.1" d="M423.001 274.48C414.015 277.924 406.005 278.181 397.785 272.47C394.676 270.172 390.912 268.932 387.046 268.933C390.133 267.3 400.367 263.269 418.514 269.104C419.851 269.524 421.045 270.306 421.964 271.365C422.37 271.765 422.677 272.256 422.857 272.797C423.037 273.339 423.087 273.915 423.001 274.48Z" fill="black"/>
<path d="M411.734 272.47C413.491 272.47 414.915 272.032 414.915 271.491C414.915 270.95 413.491 270.512 411.734 270.512C409.977 270.512 408.552 270.95 408.552 271.491C408.552 272.032 409.977 272.47 411.734 272.47Z" fill="#F2F2F2"/>
<path opacity="0.1" d="M372.333 276.876V279.324H240.669V277.366L240.85 276.876H372.333Z" fill="black"/>
<path d="M73.2067 0.000220923C71.8704 -0.109511 70.5324 0.189451 69.3699 0.857491C68.2284 1.63935 67.5089 3.00907 66.7746 4.28369C63.9668 9.21523 60.1656 13.5098 55.6118 16.8953C52.2949 19.3257 48.078 22.356 48.6455 26.8369C48.9449 28.3167 49.4914 29.7354 50.2622 31.0335C53.3221 37.2115 61.672 41.9857 60.8507 49.0353C63.8907 43.9449 59.8244 41.4279 62.8645 36.3376C64.3122 33.9135 66.8272 31.1771 69.0131 32.6994C69.7449 33.2092 70.2255 34.1234 70.9876 34.5706C72.8059 35.6379 74.7403 33.5976 76.3499 32.1524C81.9001 27.1691 89.7931 28.4746 96.6998 30.0273C99.9605 30.7603 103.542 31.722 105.469 34.839C108.004 38.9372 103.062 43.3633 101.813 47.9966C101.711 48.3914 101.706 48.8051 101.799 49.2021C101.892 49.5992 102.079 49.9679 102.345 50.2767C102.612 50.5855 102.949 50.8252 103.328 50.9753C103.707 51.1255 104.117 51.1815 104.522 51.1387C106.594 50.9342 109.049 50.7667 109.172 49.8571C111.779 49.9499 114.974 49.6545 116.091 46.939C116.433 45.8646 116.613 44.7455 116.627 43.6182C117.037 39.0568 118.973 34.8953 120.255 30.5539C121.537 26.2124 122.095 21.1245 119.931 17.2753C119.158 15.9947 118.203 14.8336 117.096 13.829C104.816 1.94276 88.6699 -0.0174226 73.2067 0.000220923Z" fill="black"/>
<path d="M63.5216 57.9393C63.5216 57.9393 66.1923 80.1994 56.3997 81.9802C46.6071 83.761 65.3021 114.035 65.3021 114.035L109.814 119.377L99.1311 83.761C99.1311 83.761 92.0092 81.0898 96.4604 63.2817C100.912 45.4736 63.5216 57.9393 63.5216 57.9393Z" fill="#FFB8B8"/>
<path d="M36.3691 440.368L39.9304 489.34H58.6247L53.2839 440.368H36.3691Z" fill="#FFB8B8"/>
<path d="M173.466 347.766L176.136 388.724L196.612 379.821L188.6 345.985L173.466 347.766Z" fill="#FFB8B8"/>
<path d="M23.0156 253.383C23.0156 253.383 23.9058 305.026 29.2473 321.944C34.5888 338.862 33.6985 339.752 32.8082 342.423C31.918 345.095 31.0278 343.314 31.0278 347.766C31.0278 352.218 29.2473 422.56 31.0278 428.793C32.8082 435.026 25.6864 445.71 31.0278 446.601C36.3692 447.491 61.2958 446.601 62.186 441.258C63.0763 435.916 55.0641 434.135 58.6251 430.574C62.186 427.012 67.5274 353.999 67.5274 353.999L79.9907 303.246L103.137 276.534H152.1L167.234 335.3C167.234 335.3 161.002 352.218 165.453 352.218C169.905 352.218 196.612 357.56 196.612 337.971C196.612 318.383 187.709 260.506 185.929 258.725C184.148 256.945 186.819 250.712 184.148 248.041C181.478 245.369 150.319 226.671 138.746 223.109C127.173 219.548 110.938 215.309 110.938 215.309L23.0156 253.383Z" fill="#151515"/>
<path d="M196.612 372.697C196.612 372.697 183.258 368.245 177.026 381.601C170.795 394.957 173.465 398.519 173.465 398.519C173.465 398.519 193.941 405.642 197.502 402.081C199.051 400.531 203.971 399.993 209.035 399.879C216.747 399.706 218.799 388.792 211.515 386.251C211.298 386.175 211.078 386.109 210.855 386.053C203.733 384.272 196.612 372.697 196.612 372.697Z" fill="black"/>
<path d="M83.5518 72.6308C98.3017 72.6308 110.259 60.6714 110.259 45.9187C110.259 31.166 98.3017 19.2065 83.5518 19.2065C68.8019 19.2065 56.8447 31.166 56.8447 45.9187C56.8447 60.6714 68.8019 72.6308 83.5518 72.6308Z" fill="#FFB8B8"/>
<path d="M48.8326 93.1103C48.8326 93.1103 92.4541 102.014 103.137 87.7679C113.82 73.5214 118.271 127.836 118.271 127.836L123.612 184.822L115.6 215.986C115.6 215.986 73.7592 249.822 60.4056 252.493C47.0521 255.164 26.5767 256.945 26.5767 256.945C26.5767 256.945 32.8084 158.11 32.8084 156.329C32.8084 154.548 48.8326 93.1103 48.8326 93.1103Z" fill="#FFB703"/>
<path d="M62.0988 76.4111C62.0988 76.4111 52.3934 70.8502 49.7227 76.1926C47.052 81.535 22.1254 94.8911 19.4547 94.8911C16.784 94.8911 24.7961 168.795 21.2352 177.699C17.6742 186.603 0.75976 251.602 10.5524 256.945C20.3449 262.287 13.2231 251.602 23.0157 264.958C32.8082 278.314 80.881 278.314 83.5517 272.972C86.2224 267.63 62.186 227.561 66.6372 190.164C71.0884 152.767 78.2103 101.124 71.9786 94.0007C65.747 86.8775 62.0988 76.4111 62.0988 76.4111Z" fill="#151515"/>
<path d="M94.2349 82.4254L95.4749 78.1572C95.4749 78.1572 132.515 90.4391 134.295 98.4527C136.076 106.466 135.186 162.562 128.954 167.014C122.722 171.466 113.82 178.589 120.052 189.274C126.283 199.959 133.405 211.534 138.747 212.424C144.088 213.315 153.881 219.548 151.21 225.781C148.539 232.013 116.491 220.438 116.491 220.438C116.491 220.438 95.1251 204.411 96.0153 179.479C96.9056 154.548 94.2349 82.4254 94.2349 82.4254Z" fill="#151515"/>
<path d="M125.393 187.493L104.027 227.561C104.027 227.561 72.8688 259.616 90.6735 263.178C108.478 266.739 118.271 233.794 118.271 233.794L141.417 200.849L125.393 187.493Z" fill="#FFB8B8"/>
<path d="M74.5076 6.98923C73.4311 6.90945 72.3529 7.11863 71.3843 7.59515C70.5085 8.23488 69.7867 9.06224 69.2716 10.0168C66.8971 13.5892 63.8019 16.6255 60.1846 18.9306C57.4846 20.6483 54.0518 22.7901 54.5138 25.9572C54.7646 27.0191 55.2109 28.025 55.8299 28.9234C58.3293 33.334 59.3244 38.439 58.6644 43.4657L66.0887 32.6723C67.2672 30.9589 69.3145 29.0248 71.0939 30.1008C71.6897 30.4611 72.0809 31.1073 72.7012 31.4234C74.1814 32.1777 75.7561 30.7357 77.0664 29.7142C81.5845 26.192 88.0097 27.1147 93.6321 28.2122C96.2864 28.7303 99.2018 29.41 100.771 31.6131C103.378 35.2741 100.656 40.5641 102.177 44.7935C102.603 44.4952 102.965 44.1144 103.241 43.6737C103.517 43.2329 103.702 42.7412 103.785 42.2277C105.907 42.2933 108.508 42.0846 109.418 40.1652C109.694 39.4131 109.842 38.6195 109.854 37.8181C110.187 34.5941 111.763 31.6528 112.807 28.5843C113.851 25.5158 114.305 21.9197 112.543 19.1992C111.899 18.2774 111.121 17.4564 110.235 16.7633C100.239 8.3622 87.0954 6.97677 74.5076 6.98923Z" fill="black"/>
<path d="M125.393 94.8911L133.687 97.0932C133.687 97.0932 152.99 146.535 148.539 180.37C144.088 214.205 141.417 207.082 141.417 207.082C141.417 207.082 134.295 191.055 118.271 194.616L125.393 94.8911Z" fill="#151515"/>
<path d="M37.6027 482.868C35.4559 485.786 35.8863 489.957 33.9847 493.04C32.3364 495.713 29.2298 497.114 27.1681 499.482C26.5102 500.269 25.9237 501.113 25.4155 502.004C23.503 505.208 21.9484 509.315 23.832 512.536C25.3473 515.128 28.5323 516.14 31.4534 516.831C35.1454 517.703 38.9815 518.401 42.7162 517.735C46.4508 517.068 50.1008 514.781 51.4324 511.228C51.6941 510.334 52.0052 509.456 52.3644 508.597C54.3886 504.611 60.7378 504.568 62.8095 500.607C64.2593 497.835 62.9266 494.484 61.5944 491.653L57.5257 483.008C56.1755 480.139 50.7019 481.789 47.8484 481.101C44.1269 480.204 40.28 479.217 37.6027 482.868Z" fill="black"/>
<path d="M7.88184 205.301L45.2717 263.177C45.2717 263.177 68.4179 292.561 75.5397 279.205C82.6616 265.849 50.6131 243.589 50.6131 243.589L26.5768 199.068L7.88184 205.301Z" fill="#FFB8B8"/>
<path d="M26.5767 96.6719L19.4548 94.8911C19.4548 94.8911 5.21106 99.3431 1.65012 118.042C-1.91081 136.74 0.759884 211.534 5.21106 212.425C9.66224 213.315 27.1954 199.401 30.0019 202.351C32.8084 205.301 23.906 190.164 26.5767 182.151C29.2474 174.137 26.5767 96.6719 26.5767 96.6719Z" fill="#151515"/>
<path d="M358.984 140H335.975V145.54H358.984V140Z" fill="#FFB703"/>
<path d="M438.663 140H430.567V145.54H438.663V140Z" fill="#FFB703"/>
<path d="M454.855 140H446.759V145.54H454.855V140Z" fill="#FFB703"/>
<path d="M422.045 140H367.079V145.54H422.045V140Z" fill="#FFB703"/>
<path d="M330.009 175.799H307V181.339H330.009V175.799Z" fill="#FFB703"/>
<path d="M409.689 175.799H401.593V181.339H409.689V175.799Z" fill="#FFB703"/>
<path d="M425.88 175.799H417.785V181.339H425.88V175.799Z" fill="#FFB703"/>
<path d="M393.071 175.799H338.105V181.339H393.071V175.799Z" fill="#FFB703"/>
<path d="M425.028 152.359H402.019V157.899H425.028V152.359Z" fill="#FFB703"/>
<path d="M456.133 152.359H433.124V157.899H456.133V152.359Z" fill="#FFB703"/>
<path d="M315.096 152.359H307V157.899H315.096V152.359Z" fill="#FFB703"/>
<path d="M331.287 152.359H323.191V157.899H331.287V152.359Z" fill="#FFB703"/>
<path d="M394.349 152.359H339.383V157.899H394.349V152.359Z" fill="#FFB703"/>
<path d="M377.305 164.292H354.296V169.832H377.305V164.292Z" fill="#FFB703"/>
<path d="M346.201 164.292H323.191V169.832H346.201V164.292Z" fill="#FFB703"/>
<path d="M315.096 164.292H307V169.832H315.096V164.292Z" fill="#FFB703"/>
<path d="M456.133 164.292H448.037V169.832H456.133V164.292Z" fill="#FFB703"/>
<path d="M439.941 164.292H384.975V169.832H439.941V164.292Z" fill="#FFB703"/>
</g>
<defs>
<filter id="filter0_d_573_182" x="126" y="414" width="320" height="84.2573" filterUnits="userSpaceOnUse" color-interpolation-filters="sRGB">
<feFlood flood-opacity="0" result="BackgroundImageFix"/>
<feColorMatrix in="SourceAlpha" type="matrix" values="0 0 0 0 0 0 0 0 0 0 0 0 0 0 0 0 0 0 127 0" result="hardAlpha"/>
<feOffset/>
<feGaussianBlur stdDeviation="10"/>
<feComposite in2="hardAlpha" operator="out"/>
<feColorMatrix type="matrix" values="0 0 0 0 0.0235294 0 0 0 0 0.0235294 0 0 0 0 0.0235294 0 0 0 0.11 0"/>
<feBlend mode="normal" in2="BackgroundImageFix" result="effect1_dropShadow_573_182"/>
<feBlend mode="normal" in="SourceGraphic" in2="effect1_dropShadow_573_182" result="shape"/>
</filter>
<filter id="filter1_d_573_182" x="271.936" y="93.1731" width="215.285" height="178.594" filterUnits="userSpaceOnUse" color-interpolation-filters="sRGB">
<feFlood flood-opacity="0" result="BackgroundImageFix"/>
<feColorMatrix in="SourceAlpha" type="matrix" values="0 0 0 0 0 0 0 0 0 0 0 0 0 0 0 0 0 0 127 0" result="hardAlpha"/>
<feOffset dy="4"/>
<feGaussianBlur stdDeviation="2"/>
<feComposite in2="hardAlpha" operator="out"/>
<feColorMatrix type="matrix" values="0 0 0 0 0 0 0 0 0 0 0 0 0 0 0 0 0 0 0.25 0"/>
<feBlend mode="normal" in2="BackgroundImageFix" result="effect1_dropShadow_573_182"/>
<feBlend mode="normal" in="SourceGraphic" in2="effect1_dropShadow_573_182" result="shape"/>
</filter>
<clipPath id="clip0_573_182">
<rect width="550" height="518" fill="white"/>
</clipPath>
</defs>
</svg>
