<svg width="780" height="802" viewBox="0 0 780 802" fill="none" xmlns="http://www.w3.org/2000/svg">
<g clip-path="url(#clip0_551_46)">
<path d="M279.228 204.178C278.824 200.985 278.007 197.857 276.798 194.874C276.644 194.31 276.374 193.785 276.006 193.331C275.637 192.877 275.178 192.504 274.658 192.238C273.962 192.057 273.233 192.048 272.534 192.214L261.628 193.883C260.716 193.924 259.842 194.264 259.14 194.85C257.72 196.344 259.119 198.749 259.075 200.81C259.026 203.128 256.967 205.009 254.735 205.632C252.456 206.092 250.105 206.063 247.838 205.546L232.589 203.176C237.08 201.742 241.077 199.074 244.125 195.477C246.131 193.099 247.199 188.66 244.299 187.534C243.437 187.298 242.539 187.226 241.65 187.322C234.742 187.375 229.305 181.606 222.838 179.176C218.698 177.722 214.205 177.613 210 178.867C205.795 180.121 202.095 182.672 199.427 186.156L207.55 186.548C208.315 186.506 209.072 186.708 209.714 187.125C211.494 188.588 209.281 191.398 209.532 193.689C209.858 196.665 213.809 197.3 216.787 197.601C219.765 197.902 223.544 200.322 222.111 202.951C207.142 208.108 191.909 192.87 176.188 194.746C172.209 195.221 168.452 196.784 164.567 197.767C140.837 203.772 116.304 187.75 92.0619 191.143C86.6726 192.062 81.3759 193.459 76.2345 195.318C72.9352 196.402 69.4937 197.573 67.0964 200.086C64.6991 202.598 63.7867 206.896 66.0578 209.523C59.7981 210.039 53.4967 209.44 47.4462 207.754C49.0824 208.664 50.4435 209.997 51.3868 211.614C52.33 213.231 52.8206 215.073 52.8069 216.945C43.0333 218.539 33.5183 221.441 24.5182 225.572C26.1979 228.366 28.1599 230.98 30.3733 233.373L18 241.324C22.1803 242.377 24.3416 248.078 21.9106 251.639C26.2451 249.71 28.9314 244.721 33.5664 243.71C36.6029 243.047 39.6927 244.289 42.5733 245.456C45.4539 246.624 48.62 247.755 51.6021 246.879C54.5841 246.003 56.7837 242.136 54.8888 239.672C67.6349 235.953 80.8077 233.894 94.0807 233.548C95.1047 233.419 96.1432 233.616 97.0489 234.111C98.7767 235.31 98.3221 237.9 98.2291 240.001C98.136 242.102 99.7734 244.864 101.651 243.917C99.442 245.833 101.33 249.439 103.45 251.454C105.569 253.469 108.124 256.249 106.826 258.87C106.487 259.554 105.913 260.101 105.587 260.791C104.625 262.828 106.153 265.203 107.954 266.556C109.755 267.909 111.961 268.855 113.212 270.728C114.464 272.602 113.895 275.881 111.658 276.143L105.299 268.067C103.126 270.32 101.637 273.143 101.003 276.209C107.746 281.723 108.761 292.945 103.115 299.579C100.23 302.969 96.1274 305.029 92.5466 307.673C88.9658 310.317 85.6524 314.082 85.6614 318.534C85.6769 326.225 85.0486 333.371 87.9302 340.501C93.2438 353.65 99.3785 366.451 106.298 378.829C108.115 382.08 110.464 385.643 114.145 386.202C109.493 374.875 105.305 363.371 101.581 351.691C104.006 351.701 106.809 351.893 108.231 353.858C109.408 355.486 109.155 357.698 109.521 359.673C109.986 361.587 110.762 363.411 111.818 365.073L134.033 404.653C135.875 407.934 137.987 411.456 141.507 412.785C143.757 413.634 146.361 413.474 148.432 414.697C150.056 415.656 151.149 417.358 152.804 418.261C157.484 420.814 163.992 415.917 168.365 418.966C169.616 419.837 170.411 421.222 171.564 422.22C175.603 425.719 182.229 423.378 186.892 425.988C189.897 427.67 191.454 431.034 193.057 434.082C197.072 441.718 203.569 449.199 212.173 449.807C214.876 449.998 217.637 449.486 220.279 450.087C222.921 450.688 225.522 452.994 225.098 455.671C224.371 460.26 226.638 465.285 226.029 469.891C224.92 478.281 213.021 481.968 211.999 490.369C211.775 492.208 212.126 494.107 211.688 495.908C211.151 498.114 209.494 499.911 208.905 502.104C207.789 506.261 210.767 510.398 214.038 513.194C217.309 515.99 221.21 518.402 222.999 522.316C224.889 526.454 223.96 531.278 224.575 535.786C225.917 545.625 234.415 552.92 243.16 557.624C245.824 559.057 248.685 560.444 250.41 562.93C252.66 566.175 252.436 570.452 253.188 574.329C255.029 583.825 263.02 591.648 263.247 601.318C263.409 608.19 259.589 614.425 257.307 620.91C255.168 627.123 254.394 633.724 255.038 640.264C255.682 646.803 257.728 653.127 261.038 658.803C262.745 661.686 264.786 664.404 265.993 667.529C268.148 673.105 267.449 679.445 269.436 685.083C272.062 692.538 279.28 698.696 278.589 706.57C281.865 713.375 289.101 716.719 296.376 718.745L309.416 722.375C311.913 723.07 314.522 723.771 317.064 723.268C319.606 722.764 322.033 720.653 321.967 718.062C315.573 716.619 308.973 715.085 303.702 711.188C298.431 707.291 294.82 700.351 296.82 694.108C297.747 691.212 299.72 687.869 297.845 685.477C296.771 684.107 294.807 683.75 293.595 682.5C291.706 680.551 292.355 677.276 293.714 674.926C295.072 672.575 297.035 670.475 297.583 667.816C297.86 666.328 297.675 664.792 297.053 663.412C296.432 662.033 295.404 660.876 294.107 660.098C296.524 659.185 298.723 657.774 300.561 655.956C302.258 654.018 303.042 651.029 301.707 648.825C305.672 649.328 310.352 649.574 312.955 646.541C315.034 644.118 314.891 640.497 314.07 637.412C313.248 634.328 311.86 631.332 311.817 628.14C320.963 628.574 330.13 628.263 339.226 627.211C337.91 622.78 334.921 619.036 330.892 616.772C335.012 616.075 338.765 611.143 340.066 607.172C341.368 603.201 341.036 598.876 340.232 594.775C339.923 593.719 339.88 592.603 340.108 591.527C340.572 590.048 342.025 589.146 343.368 588.374L363.816 576.629C365.036 576.017 366.142 575.201 367.086 574.215C369.228 571.698 368.911 567.898 367.814 564.78C366.717 561.662 364.96 558.73 364.537 555.452C363.274 545.648 373.767 538.613 377.309 529.384C378.698 525.762 378.982 521.825 379.251 517.955C379.539 513.798 379.561 508.97 376.37 506.291C373.311 503.724 368.532 504.297 365.331 501.908C362.396 499.718 361.384 495.466 358.178 493.697C355.266 492.091 351.616 493.112 348.378 492.357C342.677 491.027 339.089 484.455 333.267 483.846C329.981 483.503 326.263 485.109 323.571 483.196C321.198 481.51 321.103 478.121 320.652 475.245C319.86 470.775 317.718 466.656 314.515 463.441C311.311 460.227 307.199 458.071 302.733 457.265C299.346 456.722 295.659 456.928 292.777 455.067C289.86 453.182 288.522 449.652 286.23 447.041C282.536 442.834 276.718 441.339 271.268 440.057L249.1 434.845C245.165 433.92 240.092 433.429 237.981 436.877C237.355 438.19 236.913 439.582 236.665 441.014C235.874 443.606 234.281 445.88 232.117 447.51C229.952 449.14 227.326 450.041 224.617 450.084C222.759 446.915 219.75 444.585 216.216 443.582C213.968 442.956 211.562 442.886 209.418 441.964C208.25 441.394 207.211 440.592 206.364 439.607C205.518 438.621 204.881 437.473 204.493 436.233C204.105 434.993 203.974 433.686 204.109 432.394C204.243 431.101 204.64 429.85 205.275 428.716C206.553 426.44 207.046 423.807 206.679 421.222C206.312 418.638 205.105 416.246 203.243 414.416C199.474 411.031 194.02 410.213 188.965 410.552C187.641 407.663 189.855 404.403 192.24 402.303C194.626 400.203 197.523 398.139 198.042 395.004C198.859 390.072 192.567 386.325 187.79 387.796C183.012 389.267 179.963 393.908 177.948 398.483C176.791 401.108 175.808 403.872 173.984 406.085C172.159 408.298 169.222 409.883 166.443 409.173C162.509 408.167 160.99 403.493 160.119 399.526C158.951 394.205 157.776 388.809 158.021 383.366C158.266 377.923 160.101 372.335 164.113 368.65C170.653 362.645 180.684 363.234 189.509 364.192C187.424 361.842 187.94 357.883 190.17 355.671C191.348 354.625 192.763 353.881 194.293 353.505C195.823 353.129 197.421 353.132 198.95 353.514C201.609 354.067 204.005 355.5 205.751 357.581C208.259 360.639 208.972 364.768 210.868 368.239C212.763 371.711 217.026 374.671 220.514 372.809C223.528 371.2 224.006 367.021 223.256 363.688C222.506 360.355 220.913 357.115 221.185 353.709C221.703 347.211 228.438 343.3 234.381 340.624C240.324 337.948 247.129 334.348 248.07 327.898C248.103 326.635 248.341 325.386 248.776 324.2C249.435 323.152 250.351 322.291 251.437 321.697C268.781 310.233 286.414 298.628 306.239 292.364C307.27 292.038 307.391 292.4 308.442 292.145C309.913 291.295 308.938 288.942 307.528 287.994C306.118 287.047 304.232 286.32 303.875 284.659C303.612 283.438 304.331 282.239 304.518 281.003C304.977 277.968 301.347 275.166 298.528 276.379C296.935 274.27 300.086 271.819 302.634 271.118C310.285 269.012 318.138 267.729 326.061 267.29C326.976 267.145 327.912 267.304 328.727 267.744C330.058 268.665 329.888 270.78 328.945 272.096C328.002 273.412 326.535 274.238 325.359 275.352C324.075 276.603 323.16 278.183 322.712 279.919C322.264 281.655 322.302 283.48 322.821 285.197C326.957 287.301 331.454 289.467 336.035 288.726C340.616 287.984 344.682 282.836 342.529 278.725C340.523 274.896 334.5 274.033 333.465 269.836C332.252 264.923 339.205 260.554 337.639 255.742C336.953 253.634 334.853 252.394 333.241 250.872C331.338 249.006 330.043 246.608 329.527 243.993C329.011 241.378 329.298 238.668 330.35 236.219C327.725 236.681 325.027 236.506 322.484 235.71C319.94 234.914 317.624 233.52 315.731 231.644C312.234 228.114 309.445 222.546 304.479 222.704C299.923 222.849 295.998 228.166 291.737 226.544C290.689 226.145 289.584 225.333 288.568 225.808C288.235 226.025 287.956 226.314 287.751 226.654C287.547 226.994 287.422 227.376 287.386 227.771C286.303 232.948 288.166 238.848 285.345 243.322C282.275 248.19 275.173 248.865 271.451 253.255C269.431 255.639 268.648 258.85 266.791 261.362C264.934 263.875 260.992 265.472 258.763 263.283C259.859 261.031 260.158 258.473 259.612 256.029C259.066 253.585 257.707 251.398 255.757 249.826C253.688 248.476 251.458 247.391 249.118 246.597C246.504 245.49 244.017 244.104 241.701 242.462C240.541 241.762 239.598 240.753 238.978 239.548C238.488 238.039 238.554 236.405 239.165 234.94C240.295 231.7 242.289 228.829 244.931 226.639C247.573 224.449 250.763 223.022 254.156 222.513C257.124 222.109 260.577 222.251 262.541 219.99C263.58 218.793 264.125 216.984 265.634 216.498C266.598 216.304 267.6 216.428 268.489 216.85L279.565 220.749C280.8 221.307 282.161 221.532 283.51 221.402C284.18 221.312 284.79 220.972 285.219 220.45C285.648 219.929 285.864 219.264 285.824 218.59C285.47 216.75 282.639 215.867 282.897 214.012C283.041 213.411 283.364 212.867 283.824 212.453C287.821 208.198 292.709 204.88 298.139 202.735C303.569 200.591 309.405 199.673 315.231 200.049C316.629 202.345 314.418 205.065 312.578 207.025C310.738 208.985 309.26 212.488 311.485 213.997C312.396 214.462 313.411 214.691 314.434 214.661C317.161 215.03 319.811 215.834 322.283 217.043C326.111 218.708 329.864 220.531 333.545 222.511C333.22 220.084 332.91 217.527 333.829 215.257C334.749 212.988 337.363 211.208 339.647 212.092C341.847 212.943 342.976 215.858 345.32 216.125C348.448 216.481 349.681 211.86 348.375 208.996C347.069 206.132 344.483 203.733 344.267 200.593C344.121 198.474 344.927 195.846 343.235 194.563C342.633 194.178 341.95 193.938 341.239 193.863L298.986 186.086C296.477 185.624 292.852 185.978 292.741 188.527C292.679 189.95 293.949 191.358 293.386 192.666C292.786 194.063 290.812 193.935 289.375 194.429C287.144 195.195 286.025 197.844 286.24 200.193C286.632 202.527 287.536 204.745 288.886 206.689C286.138 205.539 281.976 205.328 279.228 204.178Z" fill="#292929" fill-opacity="0.1"/>
<path d="M247.13 168.596C244.466 167.714 241.595 167.673 238.906 168.478C236.218 169.284 233.842 170.896 232.101 173.098C231.405 174.014 230.821 175.277 231.403 176.269C232.238 177.691 234.366 177.13 235.934 176.621C238.24 175.797 240.75 175.737 243.092 176.45C244.565 176.956 245.883 177.85 247.362 178.337C248.082 178.638 248.871 178.737 249.643 178.624C250.416 178.512 251.143 178.19 251.747 177.696C252.762 176.66 252.826 175.05 252.827 173.599C252.898 173.114 252.859 172.619 252.714 172.151C252.569 171.682 252.321 171.252 251.988 170.892C251.396 170.549 250.73 170.352 250.047 170.317C248.516 170.034 247.132 169.225 246.134 168.031" fill="#292929" fill-opacity="0.1"/>
<path d="M262.366 164.353C261.769 164.321 261.175 164.442 260.639 164.706C260.103 164.97 259.644 165.367 259.307 165.86C258.969 166.352 258.763 166.923 258.71 167.518C258.656 168.113 258.757 168.711 259.002 169.256C260.833 169.756 262.746 169.88 264.626 169.623C265.564 169.477 266.438 169.057 267.138 168.416C267.838 167.774 268.332 166.94 268.558 166.018C266.344 166.421 264.059 165.984 262.149 164.794" fill="#292929" fill-opacity="0.1"/>
<path d="M313.482 157.268C308.498 158.327 303.657 159.972 299.058 162.168C301.226 163.002 303.069 164.509 304.315 166.469C305.561 168.429 306.145 170.738 305.98 173.055C305.785 173.944 305.808 174.868 306.046 175.746C306.575 177.031 308.11 177.513 309.46 177.843C311.885 178.581 314.416 178.904 316.949 178.799C318.215 178.732 319.445 178.351 320.528 177.69C321.61 177.028 322.51 176.107 323.147 175.01C323.514 173.969 323.945 172.951 324.436 171.962C327.671 167.035 337.281 172.993 340.754 168.231C341.977 166.553 341.865 164.028 343.46 162.698C344.285 162.119 345.241 161.754 346.242 161.636C353.227 160.249 360.282 159.244 367.376 158.626C370.737 158.333 375.118 157.126 375.146 153.752C362.485 151.265 349.358 153.031 337.805 158.776C333.642 160.861 328.136 165.248 324.127 162.483C322.626 161.448 322.7 158.661 320.634 157.497C318.521 156.307 315.725 156.791 313.482 157.268Z" fill="#292929" fill-opacity="0.1"/>
<path d="M354.886 165.012L360.83 166.154C359.736 166.106 358.644 166.291 357.627 166.698C356.611 167.105 355.692 167.724 354.934 168.514C354.175 169.304 353.594 170.247 353.229 171.279C352.863 172.312 352.722 173.41 352.815 174.501C358.381 176.361 364.448 174.551 370.311 174.799C376.174 175.046 382.995 179.234 381.994 185.017C381.691 186.766 380.681 188.513 381.207 190.208C381.575 191.396 382.622 192.239 383.214 193.333C384.446 195.613 383.461 198.497 381.905 200.57C380.349 202.643 378.258 204.296 376.892 206.499C373.496 211.977 375.426 219.06 377.449 225.18C378.034 227.492 379.114 229.65 380.615 231.504C383.613 234.692 388.498 234.969 392.873 235.033C396.057 235.079 399.705 234.922 401.718 232.454C404.347 229.233 402.509 224.207 404.24 220.426C405.812 216.992 409.817 215.519 413.446 214.474C420.093 212.56 426.868 210.933 433.152 208.041C440.956 204.451 448.25 198.856 456.827 198.394C459.234 198.265 461.7 198.549 464.018 197.889C466.336 197.23 468.537 195.225 468.362 192.821C468.212 190.768 466.475 189.259 465.117 187.711C463.759 186.163 462.693 183.782 463.941 182.143L486.424 177.943C484.83 173.599 483.588 167.878 487.25 165.051C488.572 164.031 490.341 163.623 491.466 162.39C493.383 160.288 492.419 156.666 490.206 154.879C487.992 153.091 485 152.676 482.164 152.441C472.306 151.622 462.392 152.163 452.514 152.704C433.206 153.763 413.899 154.821 394.591 155.88C390.704 156.093 386.216 155.767 382.651 157.094C379.634 158.216 377.488 160.278 374.036 161.002C367.664 162.338 360.652 161.434 354.886 165.012Z" fill="#292929" fill-opacity="0.1"/>
<path d="M461.356 211.996C460.75 211.9 460.131 212.041 459.626 212.388C459.292 212.756 459.093 213.227 459.063 213.723C458.679 215.911 459.136 218.163 460.342 220.029C460.957 220.944 461.805 221.678 462.799 222.155C463.793 222.631 464.896 222.833 465.994 222.739C468.67 222.398 470.642 220.114 473.102 219C476.894 217.284 492.997 214.61 481.858 208.59C478.019 206.516 475.539 208.347 472.513 209.713C469.071 211.475 465.213 212.264 461.356 211.996V211.996Z" fill="#292929" fill-opacity="0.1"/>
<path d="M558.922 161.614C557.622 162.145 556.534 163.093 555.828 164.308C555.503 164.925 555.427 165.643 555.617 166.315C555.807 166.986 556.247 167.558 556.847 167.914C557.333 168.09 557.848 168.172 558.365 168.155L563.653 168.313C565.9 168.38 568.707 168.858 569.31 171.024C569.759 172.632 568.755 174.698 569.966 175.847C570.486 176.25 571.11 176.493 571.765 176.549C573.507 176.997 575.327 177.055 577.094 176.721C580.942 175.689 578.92 173.34 580.132 171.248C581.987 168.048 581.666 169.985 584.933 168.151C587.346 166.796 590.464 164.339 588.45 160.887C584.948 154.883 564.091 159.035 558.922 161.614Z" fill="#292929" fill-opacity="0.1"/>
<path d="M663.31 158.595L660.239 159.005C653.314 159.93 646.349 160.862 639.679 162.942C642.566 164.084 645.596 164.828 648.683 165.152C650.383 165.236 652.071 165.476 653.727 165.869C656.673 166.747 659.641 169.012 662.488 167.851C664.252 167.132 664.828 165.294 666.29 164.32C667.3 163.648 671.128 162.559 671.556 161.88C675.016 156.392 665.97 158.24 663.31 158.595Z" fill="#292929" fill-opacity="0.1"/>
<path d="M676.795 172.556C672.693 174.85 668.887 177.638 665.462 180.857C664.019 182.213 662.545 183.901 662.676 185.877C662.85 188.504 665.648 190.027 668.072 191.054L677.889 195.211C679.08 193.532 677.99 191.215 676.759 189.565C675.528 187.915 674.066 186.006 674.609 184.02C675.23 181.755 677.992 180.983 680.308 180.592C684.082 179.956 694.262 180.007 693.039 173.924C691.598 166.757 680.584 170.438 676.795 172.556Z" fill="#292929" fill-opacity="0.1"/>
<path d="M674.821 578.167C673.886 580.873 673.798 584.061 675.414 586.424C677.229 589.075 680.859 590.063 684 589.391C687.128 588.559 689.916 586.766 691.972 584.265C693.851 582.17 695.398 579.798 696.557 577.232C698.174 573.235 699.315 569.06 699.955 564.795L703.003 548.788C703.684 545.211 703.658 534.243 697.084 537.816C695.288 538.793 691.13 546.5 689.248 548.686C685.855 552.625 685.407 556.448 683.621 561.22C681.384 567.197 676.889 572.179 674.821 578.167Z" fill="#292929" fill-opacity="0.1"/>
<path d="M588.941 347.415C589.333 349.52 589.719 351.737 589.029 353.764C588.339 355.791 586.17 357.485 584.121 356.864C582.531 356.382 581.612 354.783 580.483 353.563C574.204 346.784 560.038 350.709 556.159 342.321C554.576 338.898 555.651 334.797 554.572 331.183C553.891 329.094 552.535 327.291 550.718 326.057C548.901 324.822 546.726 324.226 544.534 324.363C542.534 324.651 540.588 325.232 538.757 326.087C526.493 331 513.618 334.22 500.486 335.661C497.99 335.813 495.521 336.262 493.132 336.999C487.74 338.954 484.056 343.954 481.434 349.056C478.812 354.159 476.876 359.682 473.361 364.215C469.666 368.979 464.489 372.315 459.66 375.923C457.8 377.122 456.251 378.746 455.141 380.661C454.094 382.811 454.153 385.311 454.234 387.701L455.221 416.726C455.348 420.459 455.507 424.326 457.178 427.667C459.264 431.839 463.385 434.572 466.244 438.257C469.162 442.044 470.682 446.724 470.547 451.503C470.486 453.425 470.295 455.697 471.791 456.904C472.701 457.494 473.766 457.801 474.851 457.784L514.107 460.998C521.012 461.563 528.665 462.492 533.173 467.754C535.301 470.237 537.01 473.809 540.269 474.075C541.667 474.189 543.027 473.616 544.425 473.505C547.953 473.225 551.052 475.903 553.008 478.853C555.968 483.348 557.311 488.717 556.818 494.077C556.497 497.442 555.454 500.713 555.229 504.086C554.374 516.918 565.25 528.067 565.461 540.925C565.585 548.489 561.995 555.556 558.495 562.262C564.144 570.822 559.518 582.219 561.767 592.225C563.901 601.718 571.815 609.15 573.787 618.678C574.689 623.04 574.742 628.408 578.587 630.654C580.275 631.477 582.145 631.851 584.019 631.742C595.323 631.876 606.498 629.331 616.63 624.317C621.385 621.956 626.313 618.433 627.144 613.189C627.814 608.96 625.669 604.23 627.852 600.546C630.423 596.204 637.012 596.549 640.796 593.211C646.935 587.795 642.148 577.468 644.635 569.668C646.871 562.657 654.568 558.932 658.383 552.64C659.884 549.934 660.961 547.013 661.577 543.98C663.325 536.731 664.413 529.339 664.828 521.894C664.929 517.37 665.263 512.855 665.827 508.366C669.94 482.807 695.203 465.693 703.405 441.139C704.188 438.795 704.556 435.671 702.471 434.344C701.234 433.754 699.831 433.607 698.499 433.929L680.403 436.21C678.155 436.494 675.772 436.759 673.708 435.825C671.644 434.891 670.165 432.28 671.26 430.296C674.333 424.728 668.011 417.691 665.202 411.985C657.638 396.62 648.63 382.009 638.3 368.349C637.639 367.646 637.225 366.747 637.121 365.788L642.256 365.959C640.523 359.737 637.662 352.928 631.618 350.652C628.212 349.369 624.441 349.813 620.807 350.011C610.4 350.58 599.242 349.008 588.941 347.415Z" fill="#292929" fill-opacity="0.1"/>
<path d="M622.431 207.202C625.155 210.095 628.206 213.162 632.147 213.666C639.107 214.556 644.111 207.358 647.297 201.105C647.415 202.699 648.15 204.184 649.346 205.245C650.542 206.305 652.104 206.857 653.7 206.783C655.418 206.494 657.058 205.853 658.517 204.9C672.306 197.363 687.752 193.369 703.467 193.278C703.316 192.087 703.611 190.883 704.296 189.897C704.98 188.912 706.005 188.215 707.174 187.94C710.369 187.307 713.247 190.07 714.788 192.94C716.329 195.81 717.29 199.136 719.739 201.284C722.188 203.433 726.929 203.339 727.896 200.228C728.824 197.242 725.714 194.695 723.129 192.934C720.545 191.173 717.821 187.914 719.561 185.316C732.765 182.393 746.05 179.458 759.561 178.877C761.861 178.958 764.153 178.563 766.294 177.717C768.354 176.706 769.992 174.411 769.438 172.183C766.489 172.876 763.401 172.675 760.568 171.606C757.734 170.537 755.282 168.648 753.526 166.18C772.273 164.633 792.213 163.314 808.827 172.137C810.82 176.418 800.659 179.979 803.378 183.84C804.245 185.071 805.982 185.216 807.488 185.244C819.033 185.458 830.645 185.668 842.06 183.925C846.232 183.288 850.445 182.389 854.633 182.905C861.609 183.766 867.576 188.421 874.439 189.939C877.232 190.557 880.364 190.578 882.719 188.953C885.073 187.328 886.085 183.628 884.156 181.515C890.618 175.181 901.342 176.751 909.867 179.783C918.391 182.816 926.467 187.706 935.49 188.382C941.96 188.867 948.519 187.126 954.912 188.233C958.93 188.928 962.669 190.715 966.595 191.814C974.022 193.891 981.877 193.452 989.588 193.552C1009.26 193.817 1028.72 197.685 1047 204.962C1049.38 205.737 1051.56 207.024 1053.38 208.734C1055.08 210.556 1055.95 213.387 1054.81 215.601L1035.92 212.841C1037.7 216.345 1042.3 216.942 1046.04 218.151C1049.78 219.36 1053.66 223.49 1051.41 226.714C1047.36 225.424 1043.69 229.475 1041.64 233.203C1039.59 236.93 1037.1 241.395 1032.85 241.622C1029.05 241.825 1024.45 238.587 1021.98 241.478C1025.4 245.798 1028.33 250.486 1030.72 255.455C1033.17 260.557 1034.91 266.985 1031.6 271.575C1031.08 272.394 1030.29 273.006 1029.37 273.307C1026.66 273.991 1024.91 270.684 1022.97 268.68C1020.53 266.154 1016.83 265.439 1013.53 264.255C1010.22 263.07 1006.74 260.74 1006.48 257.236C1006.32 255.056 1007.47 253.029 1008.31 251.014C1009.74 247.618 1010.36 243.939 1010.14 240.262C1009.95 237.305 1009.12 234.228 1007 232.162C1004.87 230.096 1001.21 229.44 998.927 231.333C997.863 232.216 997.011 233.628 995.629 233.681C993.188 233.775 991.314 229.518 989.35 230.971C989.581 232.519 989.26 234.099 988.444 235.435C982.584 240.532 973.581 238.376 966.026 240.176C962.434 241.205 958.994 242.707 955.799 244.644C954.603 245.155 953.586 246.009 952.875 247.098C951.932 248.931 952.972 251.278 954.634 252.497C956.397 253.578 958.378 254.255 960.434 254.477C969.644 256.222 978.988 258.922 986.26 264.839C993.531 270.756 998.3 280.537 995.999 289.625L977.836 272.267C978.526 279.556 978.917 286.864 979.01 294.192C979.128 295.623 978.931 297.063 978.435 298.41C977.14 301.27 973.63 302.233 970.555 302.864C969.7 303.027 968.888 303.368 968.174 303.867C967.461 304.365 966.86 305.009 966.413 305.756C965.965 306.503 965.681 307.336 965.578 308.201C965.475 309.066 965.557 309.942 965.817 310.773C966.91 314.335 969.634 317.112 972.128 319.88C974.623 322.647 977.078 325.792 977.404 329.503C977.731 333.215 974.931 337.398 971.215 337.14C968.398 336.945 966.308 334.422 965.106 331.866C963.904 329.31 963.189 326.463 961.384 324.291C955.919 317.717 943.644 320.534 938.749 313.526C937.501 314.942 936.636 316.653 936.235 318.497C935.834 320.342 935.911 322.258 936.459 324.064C938.737 322.638 941.855 323.963 943.566 326.035C945.277 328.107 946.084 330.763 947.428 333.091C949.241 336.231 952.127 339.015 952.38 342.632C952.313 344 952.336 345.371 952.449 346.736C952.899 348.928 954.751 350.502 956.036 352.334C959.024 356.597 958.876 362.454 956.95 367.291C955.024 372.128 951.564 376.169 948.136 380.088C942.149 386.933 936.04 393.737 928.943 399.421C926.918 401.043 924.756 402.637 923.495 404.905C922.234 407.172 922.169 410.355 924.107 412.08C922.72 412.149 920.233 412.832 918.846 412.901C918.359 407.337 918.253 401.745 918.529 396.166C913.056 393.538 907.163 400.577 907.869 406.608C908.576 412.639 912.937 417.479 916.042 422.697C918.313 426.513 920.001 430.962 919.243 435.337C918.484 439.713 914.58 443.749 910.157 443.363C903.121 442.749 900.178 432.648 893.212 431.492C892.597 431.347 891.952 431.411 891.378 431.674C890.344 432.241 890.164 433.625 890.106 434.804C889.821 440.588 889.574 446.601 891.832 451.934C895.134 459.735 903.666 466.287 901.876 474.568C892.235 470.086 887.223 459.272 884.947 448.885C882.671 438.498 882.292 427.594 878.212 417.775C875.114 421.746 868.603 418.463 865.773 414.297C863.089 410.347 861.437 405.778 858.834 401.775C856.23 397.772 852.242 394.188 847.473 393.968C842.472 393.737 838.135 397.169 834.322 400.412C831.185 403.079 827.966 405.85 826.132 409.537C823.465 414.901 824.163 421.224 824.034 427.214C823.895 433.689 822.523 440.521 818.11 445.261C813.698 450.002 805.553 451.653 800.686 447.38C798.146 445.15 796.915 441.818 795.819 438.619C790.537 423.2 786.138 407.492 782.643 391.572C781.825 395.206 778.635 399.889 775.588 397.749C774.904 397.173 774.35 396.459 773.962 395.654C768.278 386.018 757.75 380.238 747.114 376.772C736.477 373.306 725.286 371.69 714.768 367.881C708.873 365.745 703.243 362.941 697.988 359.521C696.649 361.49 695.866 363.784 695.724 366.161C695.582 368.538 696.086 370.909 697.182 373.023C699.515 377.155 704.795 379.545 709.315 378.101C711.65 377.355 713.623 375.733 715.94 374.932C718.258 374.131 721.368 374.524 722.381 376.758C723.351 378.895 721.885 381.481 722.613 383.713C723.72 387.112 728.846 387.374 730.638 390.467C731.972 392.768 730.875 395.825 728.971 397.682C727.067 399.539 724.526 400.557 722.202 401.85C714.66 406.045 709.297 413.205 702.706 418.776C696.115 424.347 686.815 428.414 678.96 424.841C680.833 415.358 669.539 408.396 667.461 398.956C666.777 395.849 667.132 392.548 666.155 389.52C664.742 385.136 660.853 382.122 657.663 378.8C653.793 374.727 650.779 369.919 648.797 364.662C646.816 359.405 645.907 353.803 646.125 348.189C646.297 344.288 647.014 340.323 646.125 336.52C645.236 332.717 642.088 329.037 638.188 329.209C629.278 329.603 618.055 330.265 613.38 322.669C611.712 319.958 610.986 315.988 613.398 313.911C615.1 312.445 617.611 312.583 619.846 312.803L639.92 314.778C644.615 315.24 649.69 315.621 653.719 313.167C657.747 310.712 659.493 304.195 655.763 301.307C653.037 299.197 648.153 299.311 647.361 295.956C646.701 293.162 649.793 289.991 648.123 287.656C646.926 285.981 644.233 286.446 642.602 287.701C640.97 288.956 639.786 290.792 637.96 291.742C634.757 293.41 630.93 291.823 627.484 290.745C624.037 289.666 619.418 289.574 617.746 292.776C615.877 296.356 619.404 301.047 617.549 304.635C615.096 309.378 606.789 306.678 603.345 310.758C599.392 315.44 606.034 322.421 604.701 328.402C602.999 329.245 601.108 329.632 599.212 329.525C597.316 329.419 595.479 328.822 593.883 327.794C592.312 326.725 591.06 325.251 590.261 323.528C589.461 321.805 589.143 319.897 589.341 318.008C589.671 315.317 591.074 312.571 590.134 310.028C589.374 307.973 587.311 306.749 585.393 305.689L565.886 294.907C564.075 298.268 566.364 302.433 569.228 304.957C572.091 307.481 575.678 309.382 577.559 312.704C578.749 315.005 579.016 317.674 578.305 320.165C577.594 322.657 575.959 324.783 573.734 326.109C573.455 326.302 573.138 326.431 572.804 326.49C572.47 326.548 572.128 326.533 571.8 326.446C571.489 326.263 571.217 326.02 571.002 325.73C570.787 325.44 570.632 325.11 570.546 324.76C567.104 315.95 561.937 307.265 553.675 302.663C545.413 298.061 533.542 299.007 528.124 306.759C526.837 308.6 525.974 310.699 524.853 312.646C518.897 322.988 506.129 327.886 494.2 327.566C493.033 327.631 491.872 327.358 490.856 326.78C488.928 325.449 489.015 322.623 489.31 320.298L490.563 310.432C490.814 308.451 491.178 306.261 492.746 305.025C494.956 303.281 498.144 304.381 500.958 304.341C503.09 304.241 505.14 303.488 506.83 302.184C508.52 300.879 509.768 299.087 510.405 297.049C510.973 294.992 510.97 292.818 510.394 290.762C509.819 288.706 508.693 286.847 507.139 285.383C505.849 284.172 504.118 282.649 504.799 281.016C505.071 280.564 505.439 280.177 505.876 279.883C506.313 279.588 506.81 279.393 507.331 279.311C512.386 277.843 517.728 277.458 522.698 275.725C527.669 273.993 532.49 270.448 533.667 265.317C534.028 263.744 534.192 261.839 535.605 261.06C536.313 260.76 537.074 260.605 537.844 260.602C540.539 260.219 542.992 258.84 544.722 256.738C546.452 254.635 547.331 251.961 547.189 249.243C549.571 247.578 552.909 248.802 555.213 250.573C557.518 252.344 559.553 254.684 562.357 255.447C567.583 256.87 572.634 252.242 578.05 252.22C580.327 252.211 582.685 253.017 584.828 252.244C587 251.461 588.297 249.299 589.965 247.701C591.632 246.103 594.557 245.129 596.096 246.85L594.786 237.138C597.426 237.805 600.178 237.899 602.857 237.415C605.537 236.93 608.082 235.878 610.321 234.329L593.379 228.603C592.789 228.456 592.244 228.165 591.794 227.756C590.563 226.429 591.786 224.362 592.788 222.854C595.184 219.246 595.586 213.304 591.646 211.508C588.956 210.282 585.869 211.753 583.287 213.193L570.921 220.089C570.528 222.44 573.403 223.773 575.184 225.356C576.262 226.314 577.024 227.576 577.372 228.976C577.72 230.375 577.636 231.847 577.132 233.198C576.627 234.549 575.726 235.716 574.547 236.546C573.368 237.376 571.965 237.829 570.523 237.847C571.338 238.906 571.903 240.134 572.179 241.441C572.454 242.748 572.432 244.101 572.114 245.398L563.794 245.997C562.86 246.185 561.89 245.995 561.095 245.47C560.205 244.679 560.326 243.294 560.119 242.122C559.622 239.292 556.852 237.309 554.024 236.801C551.197 236.292 548.305 236.944 545.505 237.588C544.317 238.015 543.011 237.985 541.843 237.503C541.174 237.068 540.665 236.426 540.395 235.674C539.167 232.698 540.315 229.199 542.286 226.654C544.257 224.108 546.956 222.248 549.379 220.129C555.175 215.043 559.433 208.437 561.672 201.058C566.253 199.138 570.995 196.53 575.575 194.611C582.636 191.035 590.555 189.501 598.441 190.18L613.952 190.476C618.545 190.564 623.261 190.676 627.508 192.427C631.754 194.179 635.486 197.966 635.779 202.551C635.867 203.07 635.822 203.603 635.648 204.1C635.474 204.597 635.177 205.041 634.784 205.392C634.184 205.719 633.505 205.872 632.823 205.834C628.54 205.984 626.714 207.052 622.431 207.202Z" fill="#292929" fill-opacity="0.1"/>
<path d="M498.796 255.823C499.402 255.25 499.838 254.52 500.056 253.714C500.274 252.909 500.267 252.059 500.033 251.258C498.559 250.688 496.954 250.542 495.401 250.836C493.848 251.129 492.408 251.85 491.242 252.918C490.323 253.848 489.531 254.895 488.887 256.032C486.849 259.358 485.046 263.331 486.227 267.049C486.323 267.454 486.5 267.836 486.746 268.173C486.991 268.509 487.302 268.793 487.659 269.008C488.188 269.22 488.759 269.31 489.328 269.269C491.574 269.266 493.817 269.128 496.046 268.856C497.414 268.688 499.004 268.302 499.533 267.028C500.228 265.354 498.545 263.459 499.036 261.714C499.359 260.933 499.848 260.233 500.469 259.661C500.778 259.373 501.015 259.017 501.161 258.621C501.308 258.226 501.361 257.802 501.315 257.382C501.117 256.563 499.863 256.099 499.412 256.81" fill="#292929" fill-opacity="0.1"/>
<path d="M510.439 240.726C508.444 240.267 506.388 240.138 504.352 240.343C503.901 240.33 503.455 240.431 503.055 240.638C502.667 240.924 502.386 241.332 502.255 241.796C501.825 243.176 501.931 244.668 502.551 245.975C503.172 247.281 504.262 248.305 505.603 248.844C506.335 249.012 507.035 249.294 507.68 249.678C509.401 251.014 508.304 253.745 508.63 255.9C508.996 258.32 511.337 260.351 510.908 262.76C510.57 264.659 508.543 266.162 508.869 268.062C509.211 270.052 511.736 270.65 513.749 270.81C514.915 271.014 516.116 270.876 517.206 270.413C518.298 269.666 519.076 268.541 519.387 267.254C520.211 264.801 520.557 262.212 520.407 259.629C520.398 258.454 520.103 257.299 519.547 256.263C518.941 255.443 518.269 254.674 517.539 253.963C513.682 249.476 517.743 242.784 510.439 240.726Z" fill="#292929" fill-opacity="0.1"/>
<path opacity="0.8" d="M733.023 321.011C733.023 321.011 681.131 444.275 595.726 452.925C595.726 452.925 325.551 483.741 294.321 547.551C294.321 547.551 208.66 279.815 177.43 270.891" stroke="#8B8B8B" stroke-width="2" stroke-miterlimit="10"/>
<path opacity="0.8" d="M294.241 547.155C430.242 407.115 733.484 320.614 733.484 320.614M294.241 547.155C294.241 280.067 601.593 202.216 601.593 202.216M294.241 547.155C294.241 547.155 470.242 302.774 686.457 237.357M733.484 320.614C670.131 336.678 594.946 454.339 594.946 454.339M733.484 320.614C624.295 221.138 177.35 270.494 177.35 270.494M594.946 454.339C594.946 454.339 316.549 251.753 177.35 270.494M594.946 454.339C594.946 454.339 606.998 317.371 686.457 237.357M177.35 270.494C294.241 141.665 601.593 202.216 601.593 202.216M601.593 202.216C661.131 212.328 686.457 237.357 686.457 237.357" stroke="#8B8B8B" stroke-width="2" stroke-miterlimit="10"/>
<path fill-rule="evenodd" clip-rule="evenodd" d="M177.708 259.738C179.293 259.665 179.799 259.649 183.837 259.649C187.874 259.649 188.38 259.666 189.964 259.738C191.547 259.81 192.628 260.063 193.574 260.429C194.565 260.803 195.464 261.388 196.207 262.145C196.964 262.887 197.547 263.785 197.92 264.777C198.288 265.723 198.539 266.804 198.612 268.386C198.685 269.974 198.701 270.479 198.701 274.516C198.701 278.555 198.684 279.06 198.612 280.646C198.541 282.227 198.288 283.308 197.92 284.254C197.547 285.247 196.963 286.146 196.207 286.889C195.464 287.646 194.565 288.229 193.574 288.602C192.628 288.97 191.547 289.221 189.966 289.294C188.38 289.367 187.874 289.384 183.837 289.384C179.799 289.384 179.293 289.366 177.708 289.294C176.127 289.223 175.046 288.97 174.1 288.602C173.108 288.229 172.209 287.645 171.466 286.889C170.71 286.146 170.125 285.248 169.752 284.256C169.385 283.31 169.134 282.228 169.061 280.647C168.988 279.059 168.972 278.553 168.972 274.516C168.972 270.478 168.989 269.972 169.061 268.388C169.133 266.804 169.385 265.723 169.752 264.777C170.125 263.785 170.711 262.886 171.468 262.144C172.21 261.388 173.108 260.802 174.099 260.429C175.045 260.063 176.126 259.811 177.707 259.738H177.708ZM189.843 262.414C188.276 262.343 187.805 262.328 183.837 262.328C179.868 262.328 179.397 262.343 177.83 262.414C176.38 262.48 175.593 262.722 175.069 262.927C174.376 263.197 173.88 263.517 173.36 264.037C172.866 264.517 172.487 265.102 172.249 265.747C172.045 266.272 171.803 267.058 171.737 268.509C171.665 270.076 171.65 270.547 171.65 274.516C171.65 278.486 171.665 278.956 171.737 280.524C171.803 281.974 172.045 282.761 172.249 283.285C172.487 283.93 172.866 284.515 173.36 284.995C173.839 285.488 174.424 285.868 175.069 286.106C175.593 286.31 176.38 286.552 177.83 286.618C179.397 286.69 179.866 286.705 183.837 286.705C187.807 286.705 188.276 286.69 189.843 286.618C191.293 286.552 192.08 286.31 192.604 286.106C193.297 285.836 193.793 285.515 194.314 284.995C194.807 284.515 195.187 283.93 195.424 283.285C195.628 282.761 195.87 281.974 195.937 280.524C196.008 278.956 196.023 278.486 196.023 274.516C196.023 270.547 196.008 270.076 195.937 268.509C195.87 267.058 195.628 266.272 195.424 265.747C195.154 265.054 194.834 264.558 194.314 264.037C193.834 263.544 193.25 263.165 192.604 262.927C192.08 262.722 191.293 262.48 189.843 262.414V262.414ZM181.938 279.099C182.998 279.541 184.179 279.601 185.278 279.268C186.378 278.936 187.328 278.232 187.966 277.277C188.604 276.321 188.891 275.174 188.777 274.031C188.664 272.888 188.157 271.82 187.343 271.009C186.825 270.491 186.198 270.094 185.507 269.847C184.817 269.6 184.08 269.509 183.351 269.581C182.621 269.653 181.917 269.886 181.288 270.263C180.659 270.64 180.121 271.152 179.714 271.762C179.307 272.371 179.04 273.064 178.932 273.789C178.824 274.514 178.879 275.255 179.091 275.956C179.304 276.658 179.67 277.304 180.162 277.848C180.654 278.391 181.261 278.819 181.938 279.099ZM178.434 269.113C179.143 268.403 179.986 267.84 180.913 267.456C181.84 267.072 182.833 266.874 183.837 266.874C184.84 266.874 185.834 267.072 186.76 267.456C187.687 267.84 188.53 268.403 189.239 269.113C189.949 269.822 190.512 270.665 190.896 271.592C191.279 272.519 191.477 273.513 191.477 274.516C191.477 275.52 191.279 276.514 190.896 277.441C190.512 278.368 189.949 279.21 189.239 279.92C187.806 281.353 185.863 282.158 183.837 282.158C181.81 282.158 179.867 281.353 178.434 279.92C177.001 278.487 176.196 276.543 176.196 274.516C176.196 272.49 177.001 270.546 178.434 269.113V269.113ZM193.172 268.012C193.347 267.847 193.488 267.647 193.586 267.426C193.683 267.205 193.735 266.966 193.738 266.724C193.742 266.483 193.697 266.243 193.606 266.019C193.515 265.795 193.38 265.591 193.209 265.42C193.039 265.249 192.835 265.114 192.611 265.023C192.387 264.933 192.147 264.888 191.906 264.891C191.664 264.895 191.425 264.947 191.204 265.044C190.983 265.141 190.783 265.282 190.618 265.458C190.295 265.8 190.118 266.254 190.125 266.724C190.132 267.194 190.322 267.643 190.654 267.976C190.987 268.308 191.436 268.498 191.906 268.505C192.376 268.512 192.83 268.335 193.172 268.012V268.012Z" fill="#FFB703"/>
<g clip-path="url(#clip1_551_46)">
<path d="M305.908 540.387C305.928 540.675 305.928 540.964 305.928 541.252C305.928 550.04 299.24 560.167 287.016 560.167C283.25 560.167 279.752 559.076 276.809 557.183C277.344 557.244 277.859 557.265 278.414 557.265C281.522 557.265 284.382 556.215 286.666 554.425C283.744 554.363 281.295 552.449 280.452 549.814C280.863 549.876 281.275 549.917 281.707 549.917C282.304 549.917 282.9 549.835 283.456 549.691C280.41 549.073 278.126 546.397 278.126 543.166V543.084C279.011 543.578 280.04 543.886 281.131 543.927C279.34 542.734 278.167 540.696 278.167 538.391C278.167 537.156 278.496 536.024 279.073 535.036C282.345 539.07 287.263 541.705 292.778 541.993C292.675 541.499 292.614 540.984 292.614 540.47C292.614 536.806 295.577 533.822 299.261 533.822C301.174 533.822 302.903 534.624 304.117 535.921C305.619 535.633 307.06 535.077 308.336 534.316C307.842 535.859 306.792 537.156 305.414 537.979C306.751 537.835 308.048 537.465 309.241 536.95C308.336 538.267 307.204 539.44 305.908 540.387V540.387Z" fill="#FFB703"/>
</g>
<path fill-rule="evenodd" clip-rule="evenodd" d="M605.997 188.015C596.738 188.015 589.24 195.515 589.24 204.775C589.24 212.191 594.036 218.455 600.697 220.676C601.535 220.822 601.849 220.319 601.849 219.88C601.849 219.481 601.828 218.162 601.828 216.758C597.618 217.533 596.529 215.732 596.194 214.789C596.005 214.307 595.188 212.82 594.476 212.421C593.89 212.107 593.052 211.332 594.455 211.311C595.775 211.29 596.718 212.526 597.032 213.029C598.54 215.564 600.949 214.852 601.912 214.412C602.059 213.322 602.499 212.589 602.98 212.17C599.252 211.751 595.356 210.306 595.356 203.895C595.356 202.072 596.005 200.564 597.074 199.391C596.906 198.972 596.32 197.254 597.241 194.95C597.241 194.95 598.645 194.51 601.849 196.668C603.19 196.29 604.614 196.102 606.038 196.102C607.463 196.102 608.887 196.29 610.228 196.668C613.432 194.489 614.836 194.95 614.836 194.95C615.757 197.254 615.171 198.972 615.003 199.391C616.071 200.564 616.721 202.052 616.721 203.895C616.721 210.327 612.804 211.751 609.076 212.17C609.683 212.694 610.207 213.699 610.207 215.271C610.207 217.512 610.186 219.314 610.186 219.88C610.186 220.319 610.5 220.843 611.338 220.676C614.664 219.552 617.555 217.414 619.602 214.562C621.65 211.709 622.752 208.286 622.753 204.775C622.753 195.515 615.255 188.015 605.997 188.015Z" fill="#FFB703"/>
<path fill-rule="evenodd" clip-rule="evenodd" d="M716.807 306.33C716.807 305.635 717.083 304.969 717.574 304.478C718.065 303.986 718.731 303.71 719.426 303.71H745.536C745.88 303.71 746.221 303.777 746.539 303.909C746.857 304.04 747.147 304.233 747.39 304.476C747.634 304.72 747.827 305.009 747.959 305.327C748.09 305.645 748.158 305.986 748.158 306.33V332.445C748.158 332.789 748.091 333.13 747.959 333.448C747.828 333.766 747.635 334.056 747.391 334.299C747.148 334.543 746.859 334.736 746.541 334.868C746.223 335 745.882 335.067 745.537 335.067H719.426C719.082 335.067 718.741 334.999 718.423 334.868C718.105 334.736 717.817 334.543 717.573 334.299C717.33 334.056 717.137 333.767 717.006 333.449C716.874 333.131 716.807 332.79 716.807 332.446V306.33ZM729.216 315.666H733.461V317.798C734.074 316.572 735.642 315.469 737.997 315.469C742.513 315.469 743.584 317.911 743.584 322.39V330.689H739.013V323.411C739.013 320.86 738.401 319.42 736.844 319.42C734.685 319.42 733.788 320.972 733.788 323.411V330.689H729.216V315.666ZM721.378 330.493H725.95V315.469H721.378V330.492V330.493ZM726.604 310.569C726.613 310.96 726.543 311.35 726.399 311.714C726.255 312.078 726.04 312.41 725.766 312.69C725.493 312.97 725.166 313.192 724.805 313.344C724.444 313.496 724.056 313.574 723.665 313.574C723.273 313.574 722.886 313.496 722.525 313.344C722.164 313.192 721.837 312.97 721.563 312.69C721.289 312.41 721.074 312.078 720.931 311.714C720.787 311.35 720.717 310.96 720.726 310.569C720.743 309.801 721.06 309.069 721.609 308.532C722.158 307.994 722.896 307.693 723.665 307.693C724.433 307.693 725.171 307.994 725.721 308.532C726.27 309.069 726.587 309.801 726.604 310.569V310.569Z" fill="#FFB703"/>
<path d="M700.389 220.453C702.289 220.453 703.82 221.99 703.91 223.8V252.891L700.294 249.819L698.309 248.013L696.139 246.123L697.042 249.101H678.076C676.18 249.101 674.645 247.664 674.645 245.754V223.806C674.645 221.996 676.181 220.459 678.082 220.459H700.379L700.389 220.453ZM692.122 228.135H692.079L691.805 228.404C694.608 229.217 695.964 230.485 695.964 230.485C694.159 229.581 692.527 229.127 690.902 228.943C689.73 228.763 688.552 228.859 687.56 228.943H687.285C686.652 228.943 685.301 229.217 683.49 229.94C682.861 230.215 682.497 230.394 682.497 230.394C682.497 230.394 683.849 229.037 686.836 228.314L686.652 228.135C686.652 228.135 684.393 228.045 681.954 229.851C681.954 229.851 679.516 234.101 679.516 239.338C679.516 239.338 680.867 241.688 684.573 241.777C684.573 241.777 685.116 241.059 685.661 240.426C683.581 239.792 682.768 238.525 682.768 238.525C682.768 238.525 682.953 238.615 683.222 238.795H683.301C683.344 238.795 683.365 238.816 683.385 238.837V238.847C683.407 238.869 683.428 238.884 683.464 238.884C683.913 239.068 684.356 239.248 684.721 239.427C685.355 239.697 686.162 239.971 687.155 240.151C688.411 240.336 689.852 240.421 691.493 240.151C692.301 239.967 693.114 239.792 693.927 239.427C694.45 239.158 695.098 238.889 695.811 238.43C695.811 238.43 695.003 239.697 692.833 240.33C693.277 240.959 693.905 241.682 693.905 241.682C697.615 241.598 699.056 239.248 699.135 239.348C699.135 234.117 696.681 229.861 696.681 229.861C694.474 228.219 692.405 228.156 692.041 228.156L692.115 228.13L692.122 228.135ZM692.349 234.101C693.299 234.101 694.065 234.909 694.065 235.902C694.065 236.905 693.294 237.712 692.349 237.712C691.398 237.712 690.633 236.904 690.633 235.912C690.633 234.908 691.403 234.101 692.349 234.101ZM686.21 234.101C687.155 234.101 687.921 234.909 687.921 235.902C687.921 236.905 687.151 237.712 686.205 237.712C685.254 237.712 684.484 236.904 684.484 235.912C684.484 234.908 685.254 234.101 686.205 234.101H686.21Z" fill="#FFB703"/>
<path d="M613.05 459.275V441.725C613.05 440.107 611.743 438.8 610.125 438.8H582.805C581.187 438.8 579.88 440.107 579.88 441.725V459.275C579.88 460.894 581.187 462.2 582.805 462.2H610.125C611.743 462.2 613.05 460.894 613.05 459.275ZM610.495 441.511C611.139 442.154 610.788 442.817 610.437 443.149L602.52 450.403L610.125 458.32C610.359 458.593 610.515 459.022 610.242 459.314C609.988 459.626 609.403 459.607 609.15 459.412L600.628 452.138L596.455 455.941L592.302 452.138L583.78 459.412C583.527 459.607 582.942 459.626 582.688 459.314C582.415 459.022 582.571 458.593 582.805 458.32L590.41 450.403L582.493 443.149C582.142 442.817 581.791 442.154 582.435 441.511C583.078 440.867 583.741 441.179 584.287 441.647L596.455 451.475L608.643 441.647C609.189 441.179 609.852 440.867 610.495 441.511V441.511Z" fill="#FFB703"/>
</g>
<defs>
<clipPath id="clip0_551_46">
<rect width="780" height="841" fill="white"/>
</clipPath>
<clipPath id="clip1_551_46">
<rect width="32.4323" height="32.4379" fill="white" transform="translate(276.809 530.775)"/>
</clipPath>
</defs>
</svg>
