<svg width="720" height="803" viewBox="0 0 720 803" fill="none" xmlns="http://www.w3.org/2000/svg">
<g clip-path="url(#clip0_551_46)">
<path d="M280.844 204.178C280.44 200.985 279.623 197.857 278.414 194.874C278.26 194.31 277.99 193.785 277.621 193.331C277.252 192.877 276.793 192.504 276.273 192.238C275.578 192.057 274.848 192.048 274.149 192.214L263.244 193.883C262.331 193.924 261.457 194.264 260.756 194.85C259.335 196.344 260.734 198.749 260.691 200.81C260.642 203.128 258.583 205.009 256.35 205.632C254.071 206.092 251.72 206.063 249.453 205.546L234.205 203.176C238.696 201.742 242.693 199.074 245.74 195.477C247.747 193.099 248.815 188.66 245.914 187.534C245.053 187.298 244.154 187.226 243.266 187.322C236.357 187.375 230.921 181.606 224.453 179.176C220.314 177.722 215.82 177.613 211.616 178.867C207.411 180.121 203.71 182.672 201.043 186.156L209.166 186.548C209.93 186.506 210.688 186.708 211.33 187.125C213.11 188.588 210.897 191.398 211.147 193.689C211.473 196.665 215.424 197.3 218.402 197.601C221.381 197.902 225.159 200.322 223.726 202.951C208.757 208.108 193.524 192.87 177.803 194.746C173.825 195.221 170.067 196.784 166.183 197.767C142.452 203.772 117.919 187.75 93.6774 191.143C88.2881 192.062 82.9914 193.459 77.85 195.318C74.5506 196.402 71.1092 197.573 68.7119 200.086C66.3146 202.598 65.4022 206.896 67.6733 209.523C61.4136 210.039 55.1122 209.44 49.0617 207.754C50.6979 208.664 52.059 209.997 53.0022 211.614C53.9455 213.231 54.436 215.073 54.4224 216.945C44.6487 218.539 35.1338 221.441 26.1337 225.572C27.8134 228.366 29.7754 230.98 31.9888 233.373L19.6155 241.324C23.7958 242.377 25.9571 248.078 23.5261 251.639C27.8606 249.71 30.5469 244.721 35.1819 243.71C38.2184 243.047 41.3082 244.289 44.1888 245.456C47.0694 246.624 50.2355 247.755 53.2176 246.879C56.1996 246.003 58.3992 242.136 56.5043 239.672C69.2504 235.953 82.4232 233.894 95.6962 233.548C96.7202 233.419 97.7587 233.616 98.6644 234.111C100.392 235.31 99.9376 237.9 99.8445 240.001C99.7515 242.102 101.389 244.864 103.267 243.917C101.057 245.833 102.946 249.439 105.065 251.454C107.185 253.469 109.739 256.249 108.442 258.87C108.103 259.554 107.529 260.101 107.203 260.791C106.241 262.828 107.768 265.203 109.569 266.556C111.37 267.909 113.577 268.855 114.828 270.728C116.079 272.602 115.511 275.881 113.274 276.143L106.914 268.067C104.742 270.32 103.252 273.143 102.618 276.209C109.362 281.723 110.376 292.945 104.731 299.579C101.846 302.969 97.7429 305.029 94.162 307.673C90.5812 310.317 87.2679 314.082 87.2769 318.534C87.2924 326.225 86.6641 333.371 89.5457 340.501C94.8593 353.65 100.994 366.451 107.914 378.829C109.731 382.08 112.079 385.643 115.76 386.202C111.108 374.875 106.92 363.371 103.197 351.691C105.622 351.701 108.425 351.893 109.846 353.858C111.024 355.486 110.771 357.698 111.136 359.673C111.602 361.587 112.378 363.411 113.433 365.073L135.649 404.653C137.49 407.934 139.603 411.456 143.123 412.785C145.373 413.634 147.976 413.474 150.048 414.697C151.671 415.656 152.765 417.358 154.42 418.261C159.1 420.814 165.607 415.917 169.981 418.966C171.231 419.837 172.027 421.222 173.179 422.22C177.218 425.719 183.844 423.378 188.507 425.988C191.512 427.67 193.07 431.034 194.673 434.082C198.688 441.718 205.184 449.199 213.789 449.807C216.492 449.998 219.253 449.486 221.895 450.087C224.537 450.688 227.137 452.994 226.713 455.671C225.986 460.26 228.253 465.285 227.644 469.891C226.535 478.281 214.637 481.968 213.615 490.369C213.391 492.208 213.741 494.107 213.303 495.908C212.766 498.114 211.11 499.911 210.521 502.104C209.405 506.261 212.382 510.398 215.653 513.194C218.924 515.99 222.826 518.402 224.614 522.316C226.504 526.454 225.576 531.278 226.191 535.786C227.533 545.625 236.03 552.92 244.775 557.624C247.44 559.057 250.3 560.444 252.025 562.93C254.276 566.175 254.052 570.452 254.803 574.329C256.644 583.825 264.636 591.648 264.863 601.318C265.024 608.19 261.204 614.425 258.923 620.91C256.784 627.123 256.01 633.724 256.653 640.264C257.297 646.803 259.344 653.127 262.653 658.803C264.36 661.686 266.402 664.404 267.609 667.529C269.764 673.105 269.065 679.445 271.051 685.083C273.678 692.538 280.895 698.696 280.204 706.57C283.481 713.375 290.716 716.719 297.992 718.745L311.031 722.375C313.528 723.07 316.137 723.771 318.679 723.268C321.222 722.764 323.648 720.653 323.582 718.062C317.188 716.619 310.589 715.085 305.318 711.188C300.046 707.291 296.436 700.351 298.436 694.108C299.363 691.212 301.336 687.869 299.46 685.477C298.386 684.107 296.422 683.75 295.211 682.5C293.322 680.551 293.971 677.276 295.329 674.926C296.687 672.575 298.651 670.475 299.199 667.816C299.475 666.328 299.29 664.792 298.669 663.412C298.048 662.033 297.019 660.876 295.722 660.098C298.14 659.185 300.339 657.774 302.176 655.956C303.873 654.018 304.657 651.029 303.322 648.825C307.287 649.328 311.968 649.574 314.571 646.541C316.649 644.118 316.506 640.497 315.685 637.412C314.864 634.328 313.476 631.332 313.433 628.14C322.579 628.574 331.745 628.263 340.841 627.211C339.526 622.78 336.537 619.036 332.508 616.772C336.627 616.075 340.38 611.143 341.682 607.172C342.983 603.201 342.652 598.876 341.847 594.775C341.538 593.719 341.496 592.603 341.724 591.527C342.188 590.048 343.64 589.146 344.984 588.374L365.432 576.629C366.652 576.017 367.758 575.201 368.701 574.215C370.844 571.698 370.526 567.898 369.429 564.78C368.332 561.662 366.575 558.73 366.153 555.452C364.889 545.648 375.383 538.613 378.924 529.384C380.314 525.762 380.597 521.825 380.866 517.955C381.155 513.798 381.176 508.97 377.985 506.291C374.926 503.724 370.147 504.297 366.946 501.908C364.012 499.718 362.999 495.466 359.793 493.697C356.882 492.091 353.232 493.112 349.994 492.357C344.292 491.027 340.705 484.455 334.882 483.846C331.597 483.503 327.879 485.109 325.186 483.196C322.814 481.51 322.719 478.121 322.267 475.245C321.476 470.775 319.334 466.656 316.13 463.441C312.926 460.227 308.815 458.071 304.349 457.265C300.961 456.722 297.274 456.928 294.393 455.067C291.475 453.182 290.137 449.652 287.845 447.041C284.151 442.834 278.333 441.339 272.883 440.057L250.715 434.845C246.78 433.92 241.708 433.429 239.596 436.877C238.971 438.19 238.528 439.582 238.281 441.014C237.489 443.606 235.897 445.88 233.732 447.51C231.567 449.14 228.942 450.041 226.233 450.084C224.375 446.915 221.365 444.585 217.831 443.582C215.583 442.956 213.177 442.886 211.033 441.964C209.866 441.394 208.827 440.592 207.98 439.607C207.133 438.621 206.496 437.473 206.108 436.233C205.721 434.993 205.59 433.686 205.724 432.394C205.859 431.101 206.255 429.85 206.89 428.716C208.168 426.44 208.662 423.807 208.295 421.222C207.928 418.638 206.72 416.246 204.859 414.416C201.089 411.031 195.636 410.213 190.581 410.552C189.257 407.663 191.47 404.403 193.856 402.303C196.241 400.203 199.138 398.139 199.658 395.004C200.475 390.072 194.183 386.325 189.405 387.796C184.628 389.267 181.579 393.908 179.563 398.483C178.407 401.108 177.423 403.872 175.599 406.085C173.775 408.298 170.837 409.883 168.059 409.173C164.125 408.167 162.606 403.493 161.735 399.526C160.567 394.205 159.392 388.809 159.637 383.366C159.881 377.923 161.716 372.335 165.729 368.65C172.268 362.645 182.3 363.234 191.125 364.192C189.04 361.842 189.555 357.883 191.786 355.671C192.964 354.625 194.379 353.881 195.909 353.505C197.438 353.129 199.037 353.132 200.565 353.514C203.224 354.067 205.62 355.5 207.366 357.581C209.874 360.639 210.587 364.768 212.483 368.239C214.379 371.711 218.641 374.671 222.13 372.809C225.143 371.2 225.621 367.021 224.871 363.688C224.122 360.355 222.529 357.115 222.8 353.709C223.319 347.211 230.053 343.3 235.996 340.624C241.939 337.948 248.744 334.348 249.686 327.898C249.718 326.635 249.956 325.386 250.391 324.2C251.05 323.152 251.966 322.291 253.052 321.697C270.397 310.233 288.03 298.628 307.854 292.364C308.885 292.038 309.007 292.4 310.058 292.145C311.529 291.295 310.554 288.942 309.144 287.994C307.733 287.047 305.848 286.32 305.49 284.659C305.227 283.438 305.947 282.239 306.133 281.003C306.593 277.968 302.962 275.166 300.143 276.379C298.551 274.27 301.702 271.819 304.25 271.118C311.9 269.012 319.754 267.729 327.677 267.29C328.591 267.145 329.528 267.304 330.343 267.744C331.673 268.665 331.503 270.78 330.56 272.096C329.617 273.412 328.15 274.238 326.975 275.352C325.691 276.603 324.775 278.183 324.327 279.919C323.88 281.655 323.917 283.48 324.436 285.197C328.573 287.301 333.069 289.467 337.65 288.726C342.231 287.984 346.297 282.836 344.144 278.725C342.139 274.896 336.116 274.033 335.08 269.836C333.867 264.923 340.821 260.554 339.255 255.742C338.568 253.634 336.468 252.394 334.857 250.872C332.953 249.006 331.659 246.608 331.143 243.993C330.627 241.378 330.914 238.668 331.965 236.219C329.34 236.681 326.643 236.506 324.099 235.71C321.556 234.914 319.24 233.52 317.346 231.644C313.85 228.114 311.06 222.546 306.095 222.704C301.538 222.849 297.613 228.166 293.353 226.544C292.305 226.145 291.199 225.333 290.184 225.808C289.851 226.025 289.572 226.314 289.367 226.654C289.162 226.994 289.037 227.376 289.002 227.771C287.919 232.948 289.782 238.848 286.96 243.322C283.89 248.19 276.789 248.865 273.067 253.255C271.046 255.639 270.263 258.85 268.406 261.362C266.549 263.875 262.607 265.472 260.379 263.283C261.474 261.031 261.773 258.473 261.227 256.029C260.681 253.585 259.322 251.398 257.373 249.826C255.304 248.476 253.073 247.391 250.734 246.597C248.12 245.49 245.633 244.104 243.317 242.462C242.157 241.762 241.214 240.753 240.594 239.548C240.104 238.039 240.17 236.405 240.78 234.94C241.91 231.7 243.904 228.829 246.546 226.639C249.188 224.449 252.378 223.022 255.772 222.513C258.739 222.109 262.193 222.251 264.156 219.99C265.196 218.793 265.741 216.984 267.249 216.498C268.214 216.304 269.215 216.428 270.104 216.85L281.18 220.749C282.416 221.307 283.776 221.532 285.126 221.402C285.795 221.312 286.405 220.972 286.834 220.45C287.263 219.929 287.479 219.264 287.439 218.59C287.085 216.75 284.255 215.867 284.512 214.012C284.657 213.411 284.98 212.867 285.439 212.453C289.437 208.198 294.325 204.88 299.754 202.735C305.184 200.591 311.021 199.673 316.846 200.049C318.244 202.345 316.033 205.065 314.193 207.025C312.354 208.985 310.875 212.488 313.1 213.997C314.012 214.462 315.026 214.691 316.049 214.661C318.776 215.03 321.426 215.834 323.899 217.043C327.726 218.708 331.48 220.531 335.16 222.511C334.835 220.084 334.525 217.527 335.445 215.257C336.365 212.988 338.979 211.208 341.262 212.092C343.463 212.943 344.591 215.858 346.936 216.125C350.063 216.481 351.297 211.86 349.991 208.996C348.684 206.132 346.098 203.733 345.882 200.593C345.737 198.474 346.543 195.846 344.851 194.563C344.249 194.178 343.565 193.938 342.854 193.863L300.602 186.086C298.093 185.624 294.467 185.978 294.356 188.527C294.294 189.95 295.565 191.358 295.002 192.666C294.401 194.063 292.428 193.935 290.99 194.429C288.76 195.195 287.641 197.844 287.855 200.193C288.247 202.527 289.151 204.745 290.501 206.689C287.753 205.539 283.592 205.328 280.844 204.178Z" fill="#ABABAB"/>
<path d="M247.13 168.596C244.466 167.714 241.595 167.673 238.906 168.478C236.218 169.284 233.842 170.896 232.101 173.098C231.405 174.014 230.821 175.277 231.403 176.269C232.238 177.691 234.366 177.13 235.934 176.621C238.24 175.797 240.75 175.737 243.092 176.45C244.565 176.956 245.883 177.85 247.362 178.337C248.082 178.638 248.871 178.737 249.643 178.624C250.416 178.512 251.143 178.19 251.747 177.696C252.762 176.66 252.826 175.05 252.827 173.599C252.898 173.114 252.859 172.619 252.714 172.151C252.569 171.682 252.321 171.252 251.988 170.892C251.396 170.549 250.73 170.352 250.047 170.317C248.516 170.034 247.132 169.225 246.134 168.031" fill="#ABABAB"/>
<path d="M262.366 164.353C261.769 164.321 261.175 164.442 260.639 164.706C260.103 164.97 259.644 165.367 259.307 165.86C258.969 166.352 258.763 166.923 258.71 167.518C258.656 168.113 258.757 168.711 259.002 169.256C260.833 169.756 262.746 169.88 264.626 169.623C265.564 169.477 266.438 169.057 267.138 168.416C267.837 167.774 268.332 166.94 268.558 166.018C266.344 166.421 264.059 165.984 262.149 164.794" fill="#ABABAB"/>
<path d="M313.482 157.268C308.498 158.327 303.657 159.972 299.058 162.168C301.226 163.002 303.069 164.509 304.315 166.469C305.561 168.429 306.145 170.738 305.98 173.055C305.785 173.944 305.808 174.868 306.046 175.746C306.575 177.031 308.11 177.513 309.46 177.843C311.885 178.581 314.416 178.904 316.949 178.799C318.215 178.732 319.445 178.351 320.528 177.69C321.61 177.028 322.51 176.107 323.147 175.01C323.514 173.969 323.945 172.951 324.436 171.962C327.671 167.035 337.281 172.993 340.754 168.231C341.977 166.553 341.865 164.028 343.46 162.698C344.285 162.119 345.241 161.754 346.242 161.636C353.227 160.249 360.282 159.244 367.376 158.626C370.737 158.333 375.118 157.126 375.146 153.752C362.485 151.265 349.358 153.031 337.805 158.776C333.642 160.861 328.136 165.248 324.127 162.483C322.626 161.448 322.7 158.661 320.634 157.497C318.521 156.307 315.725 156.791 313.482 157.268Z" fill="#ABABAB"/>
<path d="M354.886 165.012L360.83 166.154C359.736 166.106 358.644 166.291 357.627 166.698C356.611 167.105 355.692 167.724 354.934 168.514C354.175 169.304 353.594 170.247 353.229 171.279C352.863 172.312 352.722 173.41 352.815 174.501C358.381 176.361 364.448 174.551 370.311 174.799C376.174 175.046 382.995 179.234 381.994 185.017C381.691 186.766 380.681 188.513 381.207 190.208C381.575 191.396 382.622 192.239 383.214 193.333C384.446 195.613 383.461 198.497 381.905 200.57C380.349 202.643 378.258 204.296 376.892 206.499C373.496 211.977 375.426 219.06 377.449 225.18C378.034 227.492 379.114 229.65 380.615 231.504C383.613 234.692 388.498 234.969 392.873 235.033C396.057 235.079 399.705 234.922 401.718 232.454C404.347 229.233 402.509 224.207 404.24 220.426C405.812 216.992 409.817 215.519 413.446 214.474C420.093 212.56 426.868 210.933 433.152 208.041C440.956 204.451 448.25 198.856 456.827 198.394C459.234 198.265 461.7 198.549 464.018 197.889C466.336 197.23 468.537 195.225 468.362 192.821C468.212 190.768 466.475 189.259 465.117 187.711C463.759 186.163 462.693 183.782 463.941 182.143L486.424 177.943C484.83 173.599 483.588 167.878 487.25 165.051C488.572 164.031 490.341 163.623 491.466 162.39C493.383 160.288 492.419 156.666 490.206 154.879C487.992 153.091 485 152.676 482.164 152.441C472.306 151.622 462.392 152.163 452.514 152.704C433.206 153.763 413.899 154.821 394.591 155.88C390.704 156.093 386.216 155.767 382.651 157.094C379.634 158.216 377.488 160.278 374.036 161.002C367.664 162.338 360.652 161.434 354.886 165.012Z" fill="#ABABAB"/>
<path d="M461.356 211.996C460.75 211.9 460.131 212.041 459.626 212.388C459.292 212.756 459.093 213.227 459.063 213.723C458.679 215.911 459.136 218.163 460.342 220.029C460.957 220.944 461.805 221.678 462.799 222.155C463.793 222.631 464.896 222.833 465.994 222.739C468.67 222.398 470.642 220.114 473.102 219C476.894 217.284 492.997 214.61 481.858 208.59C478.019 206.516 475.539 208.347 472.513 209.713C469.071 211.475 465.213 212.264 461.356 211.996Z" fill="#ABABAB"/>
<path d="M558.922 161.614C557.622 162.145 556.534 163.093 555.828 164.308C555.503 164.925 555.427 165.643 555.617 166.315C555.807 166.986 556.247 167.558 556.847 167.914C557.333 168.09 557.848 168.172 558.365 168.155L563.653 168.313C565.9 168.38 568.707 168.858 569.31 171.024C569.759 172.632 568.755 174.698 569.966 175.847C570.486 176.25 571.11 176.493 571.765 176.549C573.507 176.997 575.327 177.055 577.094 176.721C580.942 175.689 578.92 173.34 580.132 171.248C581.987 168.048 581.666 169.985 584.933 168.151C587.346 166.796 590.464 164.339 588.45 160.887C584.948 154.883 564.091 159.035 558.922 161.614Z" fill="#ABABAB"/>
<path d="M663.31 158.595L660.239 159.005C653.314 159.93 646.349 160.862 639.679 162.942C642.566 164.084 645.596 164.828 648.683 165.152C650.383 165.236 652.071 165.476 653.727 165.869C656.673 166.747 659.641 169.012 662.488 167.851C664.252 167.132 664.828 165.294 666.29 164.32C667.3 163.648 671.128 162.559 671.556 161.88C675.016 156.392 665.97 158.24 663.31 158.595Z" fill="#ABABAB"/>
<path d="M676.795 172.556C672.693 174.85 668.887 177.638 665.462 180.857C664.019 182.213 662.545 183.901 662.676 185.877C662.85 188.504 665.648 190.027 668.072 191.054L677.889 195.211C679.08 193.532 677.99 191.215 676.759 189.565C675.528 187.915 674.066 186.006 674.609 184.02C675.23 181.755 677.992 180.983 680.308 180.592C684.082 179.956 694.262 180.007 693.039 173.924C691.598 166.757 680.584 170.438 676.795 172.556Z" fill="#ABABAB"/>
<path d="M674.821 578.167C673.886 580.873 673.798 584.061 675.414 586.424C677.229 589.075 680.859 590.063 684 589.391C687.128 588.559 689.916 586.766 691.972 584.265C693.851 582.17 695.398 579.798 696.557 577.232C698.174 573.235 699.315 569.06 699.955 564.795L703.003 548.788C703.684 545.211 703.658 534.243 697.084 537.816C695.288 538.793 691.13 546.5 689.248 548.686C685.855 552.625 685.407 556.448 683.621 561.22C681.384 567.197 676.889 572.179 674.821 578.167Z" fill="#ABABAB"/>
<path d="M590.556 347.415C590.949 349.52 591.334 351.737 590.645 353.764C589.955 355.791 587.785 357.485 585.736 356.864C584.146 356.382 583.228 354.783 582.099 353.563C575.82 346.784 561.653 350.709 557.774 342.321C556.191 338.898 557.267 334.797 556.187 331.183C555.506 329.094 554.151 327.291 552.334 326.057C550.517 324.822 548.341 324.226 546.149 324.363C544.15 324.651 542.203 325.232 540.373 326.087C528.109 331 515.234 334.22 502.101 335.661C499.606 335.813 497.137 336.262 494.748 336.999C489.355 338.954 485.671 343.954 483.049 349.056C480.427 354.159 478.491 359.682 474.976 364.215C471.282 368.979 466.105 372.315 461.276 375.923C459.415 377.122 457.866 378.746 456.756 380.661C455.709 382.811 455.768 385.311 455.849 387.701L456.836 416.726C456.963 420.459 457.123 424.326 458.793 427.667C460.88 431.839 465.001 434.572 467.86 438.257C470.777 442.044 472.297 446.724 472.162 451.503C472.101 453.425 471.91 455.697 473.407 456.904C474.317 457.494 475.382 457.801 476.466 457.784L515.722 460.998C522.627 461.563 530.28 462.492 534.788 467.754C536.916 470.237 538.625 473.809 541.884 474.075C543.282 474.189 544.643 473.616 546.041 473.505C549.568 473.225 552.667 475.903 554.623 478.853C557.583 483.348 558.927 488.717 558.433 494.077C558.113 497.442 557.07 500.713 556.845 504.086C555.989 516.918 566.866 528.067 567.076 540.925C567.2 548.489 563.61 555.556 560.11 562.262C565.759 570.822 561.134 582.219 563.383 592.225C565.516 601.718 573.43 609.15 575.402 618.678C576.305 623.04 576.357 628.408 580.203 630.654C581.89 631.477 583.761 631.851 585.635 631.742C596.939 631.876 608.114 629.331 618.246 624.317C623.001 621.956 627.929 618.433 628.759 613.189C629.429 608.96 627.285 604.23 629.467 600.546C632.039 596.204 638.628 596.549 642.412 593.211C648.551 587.795 643.764 577.468 646.251 569.668C648.487 562.657 656.183 558.932 659.998 552.64C661.5 549.934 662.577 547.013 663.193 543.98C664.94 536.731 666.028 529.339 666.443 521.894C666.545 517.37 666.878 512.855 667.442 508.366C671.555 482.807 696.818 465.693 705.021 441.139C705.804 438.795 706.172 435.671 704.086 434.344C702.849 433.754 701.447 433.607 700.114 433.929L682.018 436.21C679.77 436.494 677.388 436.759 675.324 435.825C673.26 434.891 671.78 432.28 672.875 430.296C675.949 424.728 669.626 417.691 666.818 411.985C659.253 396.62 650.245 382.009 639.916 368.349C639.254 367.646 638.84 366.747 638.736 365.788L643.872 365.959C642.138 359.737 639.277 352.928 633.233 350.652C629.828 349.369 626.056 349.813 622.423 350.011C612.015 350.58 600.857 349.008 590.556 347.415Z" fill="#ABABAB"/>
<path d="M622.431 207.202C625.155 210.095 628.206 213.162 632.147 213.666C639.107 214.556 644.111 207.358 647.297 201.105C647.415 202.699 648.15 204.184 649.346 205.245C650.542 206.305 652.104 206.857 653.7 206.783C655.418 206.494 657.058 205.853 658.517 204.9C672.306 197.363 687.752 193.369 703.467 193.278C703.316 192.087 703.611 190.883 704.296 189.897C704.98 188.912 706.005 188.215 707.174 187.94C710.369 187.307 713.247 190.07 714.788 192.94C716.329 195.81 717.29 199.136 719.739 201.284C722.188 203.433 726.929 203.339 727.896 200.228C728.824 197.242 725.714 194.695 723.129 192.934C720.545 191.173 717.821 187.914 719.561 185.316C732.765 182.393 746.05 179.458 759.561 178.877C761.861 178.958 764.153 178.563 766.294 177.717C768.354 176.706 769.992 174.411 769.438 172.183C766.489 172.876 763.401 172.675 760.568 171.606C757.734 170.537 755.283 168.648 753.526 166.18C772.273 164.633 792.213 163.314 808.827 172.137C810.82 176.418 800.659 179.979 803.378 183.84C804.245 185.071 805.982 185.216 807.488 185.244C819.033 185.458 830.645 185.668 842.06 183.925C846.232 183.288 850.445 182.389 854.633 182.905C861.609 183.766 867.576 188.421 874.439 189.939C877.232 190.557 880.364 190.578 882.719 188.953C885.073 187.328 886.085 183.628 884.156 181.515C890.618 175.181 901.342 176.751 909.867 179.783C918.391 182.816 926.467 187.706 935.49 188.382C941.96 188.867 948.519 187.126 954.913 188.233C958.93 188.928 962.669 190.715 966.595 191.814C974.022 193.891 981.877 193.452 989.588 193.552C1009.26 193.817 1028.72 197.685 1047 204.962C1049.38 205.737 1051.56 207.024 1053.38 208.734C1055.08 210.556 1055.95 213.387 1054.81 215.601L1035.92 212.841C1037.7 216.345 1042.3 216.942 1046.04 218.151C1049.78 219.36 1053.66 223.49 1051.41 226.714C1047.36 225.424 1043.69 229.475 1041.64 233.203C1039.59 236.93 1037.1 241.395 1032.85 241.622C1029.05 241.825 1024.45 238.587 1021.98 241.478C1025.4 245.798 1028.33 250.486 1030.72 255.455C1033.17 260.557 1034.91 266.985 1031.6 271.575C1031.08 272.394 1030.29 273.006 1029.37 273.307C1026.66 273.991 1024.91 270.684 1022.97 268.68C1020.53 266.154 1016.83 265.439 1013.53 264.255C1010.22 263.07 1006.74 260.74 1006.48 257.236C1006.32 255.056 1007.47 253.029 1008.31 251.014C1009.74 247.618 1010.36 243.939 1010.14 240.262C1009.95 237.305 1009.12 234.228 1007 232.162C1004.87 230.096 1001.21 229.44 998.927 231.333C997.863 232.216 997.011 233.628 995.629 233.681C993.188 233.775 991.314 229.518 989.35 230.971C989.581 232.519 989.26 234.099 988.444 235.435C982.584 240.532 973.581 238.376 966.026 240.176C962.434 241.205 958.994 242.707 955.799 244.644C954.603 245.155 953.586 246.009 952.875 247.098C951.932 248.931 952.972 251.278 954.634 252.497C956.397 253.578 958.378 254.255 960.434 254.477C969.644 256.222 978.988 258.922 986.26 264.839C993.531 270.756 998.3 280.537 995.999 289.625L977.836 272.267C978.526 279.556 978.917 286.864 979.01 294.192C979.128 295.623 978.931 297.063 978.435 298.41C977.14 301.27 973.63 302.233 970.555 302.864C969.7 303.027 968.888 303.368 968.174 303.867C967.461 304.365 966.86 305.009 966.413 305.756C965.965 306.503 965.681 307.336 965.578 308.201C965.475 309.066 965.557 309.942 965.817 310.773C966.91 314.335 969.634 317.112 972.128 319.88C974.623 322.647 977.078 325.792 977.404 329.503C977.731 333.215 974.931 337.398 971.215 337.14C968.398 336.945 966.308 334.422 965.106 331.866C963.904 329.31 963.189 326.463 961.384 324.291C955.919 317.717 943.644 320.534 938.749 313.526C937.501 314.942 936.636 316.653 936.235 318.497C935.834 320.342 935.911 322.258 936.459 324.064C938.737 322.638 941.855 323.963 943.566 326.035C945.277 328.107 946.084 330.763 947.428 333.091C949.241 336.231 952.127 339.015 952.38 342.632C952.313 344 952.336 345.371 952.449 346.736C952.899 348.928 954.751 350.502 956.036 352.334C959.024 356.597 958.876 362.454 956.95 367.291C955.024 372.128 951.564 376.169 948.136 380.088C942.149 386.932 936.04 393.737 928.943 399.421C926.918 401.043 924.756 402.637 923.495 404.905C922.234 407.172 922.169 410.355 924.107 412.08C922.72 412.149 920.233 412.832 918.846 412.901C918.359 407.337 918.253 401.745 918.529 396.166C913.056 393.538 907.163 400.577 907.869 406.608C908.576 412.639 912.937 417.479 916.042 422.697C918.313 426.513 920.001 430.962 919.243 435.337C918.484 439.713 914.58 443.749 910.157 443.363C903.121 442.749 900.178 432.648 893.212 431.492C892.597 431.347 891.952 431.411 891.378 431.674C890.344 432.241 890.164 433.625 890.106 434.804C889.821 440.588 889.574 446.601 891.832 451.934C895.134 459.735 903.666 466.287 901.876 474.568C892.235 470.086 887.223 459.272 884.947 448.885C882.671 438.498 882.292 427.594 878.212 417.775C875.114 421.746 868.603 418.463 865.773 414.297C863.089 410.347 861.437 405.778 858.834 401.775C856.23 397.772 852.242 394.188 847.473 393.968C842.472 393.737 838.135 397.169 834.322 400.412C831.185 403.079 827.966 405.85 826.132 409.537C823.465 414.901 824.163 421.224 824.034 427.214C823.895 433.689 822.523 440.521 818.11 445.261C813.698 450.002 805.553 451.653 800.686 447.38C798.146 445.15 796.915 441.818 795.819 438.619C790.537 423.2 786.138 407.492 782.643 391.572C781.825 395.206 778.635 399.889 775.588 397.749C774.904 397.173 774.35 396.459 773.962 395.654C768.278 386.018 757.75 380.238 747.114 376.772C736.477 373.306 725.286 371.69 714.768 367.881C708.873 365.745 703.243 362.941 697.988 359.521C696.649 361.49 695.866 363.784 695.724 366.161C695.582 368.538 696.086 370.909 697.182 373.023C699.515 377.155 704.795 379.545 709.315 378.101C711.65 377.355 713.623 375.733 715.94 374.932C718.258 374.131 721.368 374.524 722.381 376.758C723.351 378.895 721.885 381.481 722.613 383.713C723.72 387.112 728.846 387.374 730.638 390.467C731.972 392.768 730.875 395.825 728.971 397.682C727.067 399.539 724.526 400.557 722.202 401.85C714.66 406.045 709.297 413.205 702.706 418.776C696.115 424.347 686.815 428.414 678.96 424.841C680.833 415.358 669.539 408.396 667.461 398.956C666.777 395.849 667.132 392.548 666.155 389.52C664.742 385.136 660.853 382.122 657.663 378.8C653.793 374.727 650.779 369.919 648.797 364.662C646.816 359.405 645.907 353.803 646.125 348.189C646.297 344.288 647.014 340.323 646.125 336.52C645.236 332.717 642.088 329.037 638.188 329.209C629.278 329.603 618.055 330.265 613.38 322.669C611.712 319.958 610.986 315.988 613.398 313.911C615.1 312.445 617.611 312.583 619.846 312.803L639.92 314.778C644.615 315.24 649.69 315.621 653.719 313.167C657.747 310.712 659.493 304.195 655.763 301.307C653.037 299.197 648.153 299.311 647.361 295.956C646.701 293.162 649.793 289.991 648.123 287.656C646.926 285.981 644.233 286.446 642.602 287.701C640.97 288.956 639.786 290.792 637.96 291.742C634.757 293.41 630.93 291.823 627.484 290.745C624.037 289.666 619.418 289.574 617.746 292.776C615.877 296.356 619.404 301.047 617.549 304.635C615.096 309.378 606.789 306.678 603.345 310.758C599.392 315.44 606.034 322.421 604.701 328.402C602.999 329.245 601.108 329.632 599.212 329.525C597.316 329.419 595.479 328.822 593.883 327.794C592.312 326.725 591.06 325.251 590.261 323.528C589.461 321.805 589.143 319.897 589.341 318.008C589.671 315.317 591.074 312.571 590.134 310.028C589.374 307.973 587.311 306.749 585.393 305.689L565.886 294.907C564.075 298.268 566.364 302.433 569.228 304.957C572.091 307.481 575.678 309.382 577.559 312.704C578.749 315.005 579.016 317.674 578.305 320.165C577.594 322.657 575.959 324.783 573.734 326.109C573.455 326.302 573.138 326.431 572.804 326.49C572.47 326.548 572.128 326.533 571.8 326.446C571.489 326.263 571.217 326.02 571.002 325.73C570.787 325.44 570.632 325.11 570.546 324.76C567.104 315.95 561.937 307.265 553.675 302.663C545.413 298.061 533.542 299.007 528.124 306.759C526.837 308.6 525.974 310.699 524.853 312.646C518.897 322.988 506.129 327.886 494.2 327.566C493.033 327.631 491.872 327.358 490.856 326.78C488.928 325.449 489.015 322.623 489.31 320.298L490.563 310.432C490.814 308.451 491.178 306.261 492.746 305.025C494.956 303.281 498.144 304.381 500.958 304.341C503.09 304.241 505.14 303.488 506.83 302.184C508.52 300.879 509.768 299.087 510.405 297.049C510.973 294.992 510.97 292.818 510.394 290.762C509.819 288.706 508.693 286.847 507.139 285.383C505.849 284.172 504.118 282.649 504.799 281.016C505.071 280.564 505.439 280.177 505.876 279.883C506.313 279.588 506.81 279.393 507.331 279.311C512.386 277.843 517.728 277.458 522.698 275.725C527.669 273.993 532.49 270.448 533.667 265.317C534.028 263.744 534.192 261.839 535.605 261.06C536.313 260.76 537.074 260.605 537.844 260.602C540.539 260.219 542.992 258.84 544.722 256.738C546.452 254.635 547.331 251.961 547.189 249.243C549.571 247.578 552.909 248.802 555.213 250.573C557.518 252.344 559.553 254.684 562.357 255.447C567.583 256.87 572.634 252.242 578.05 252.22C580.327 252.211 582.685 253.017 584.828 252.244C587 251.461 588.297 249.299 589.965 247.701C591.632 246.103 594.557 245.129 596.096 246.85L594.786 237.138C597.426 237.805 600.178 237.899 602.857 237.415C605.537 236.93 608.082 235.878 610.321 234.329L593.379 228.603C592.789 228.456 592.244 228.165 591.794 227.756C590.562 226.429 591.786 224.362 592.788 222.854C595.184 219.246 595.586 213.304 591.646 211.508C588.956 210.282 585.869 211.753 583.287 213.193L570.921 220.089C570.528 222.44 573.403 223.773 575.184 225.356C576.262 226.314 577.024 227.576 577.372 228.976C577.72 230.375 577.636 231.847 577.132 233.198C576.627 234.549 575.726 235.716 574.547 236.546C573.368 237.376 571.965 237.829 570.523 237.847C571.338 238.906 571.903 240.134 572.179 241.441C572.454 242.748 572.432 244.101 572.114 245.398L563.794 245.997C562.86 246.185 561.89 245.995 561.095 245.47C560.205 244.679 560.326 243.294 560.119 242.122C559.622 239.292 556.852 237.309 554.024 236.801C551.197 236.292 548.305 236.944 545.505 237.588C544.317 238.015 543.011 237.985 541.843 237.503C541.174 237.068 540.665 236.426 540.395 235.674C539.167 232.698 540.315 229.199 542.286 226.654C544.257 224.108 546.956 222.248 549.379 220.129C555.175 215.043 559.433 208.437 561.672 201.058C566.253 199.138 570.995 196.53 575.575 194.611C582.636 191.035 590.555 189.501 598.441 190.18L613.952 190.476C618.545 190.564 623.261 190.676 627.508 192.427C631.754 194.179 635.486 197.966 635.779 202.551C635.867 203.07 635.822 203.603 635.648 204.1C635.474 204.597 635.177 205.041 634.784 205.392C634.184 205.719 633.505 205.872 632.823 205.834C628.54 205.984 626.714 207.052 622.431 207.202Z" fill="#ABABAB"/>
<path d="M498.796 255.823C499.402 255.25 499.838 254.52 500.056 253.714C500.274 252.909 500.267 252.059 500.033 251.258C498.559 250.688 496.954 250.542 495.401 250.836C493.848 251.129 492.408 251.85 491.242 252.918C490.323 253.848 489.531 254.895 488.887 256.032C486.849 259.358 485.046 263.331 486.227 267.049C486.323 267.454 486.5 267.836 486.746 268.173C486.991 268.509 487.302 268.793 487.659 269.008C488.188 269.22 488.759 269.31 489.328 269.269C491.574 269.266 493.817 269.128 496.046 268.856C497.414 268.688 499.004 268.302 499.533 267.028C500.228 265.354 498.545 263.459 499.036 261.714C499.359 260.933 499.848 260.233 500.469 259.661C500.778 259.373 501.015 259.017 501.161 258.621C501.308 258.226 501.361 257.802 501.315 257.382C501.117 256.563 499.863 256.099 499.412 256.81" fill="#ABABAB"/>
<path d="M510.439 240.726C508.444 240.267 506.388 240.138 504.352 240.343C503.901 240.33 503.455 240.431 503.055 240.638C502.667 240.924 502.386 241.332 502.255 241.796C501.825 243.176 501.931 244.668 502.551 245.975C503.172 247.281 504.262 248.305 505.603 248.844C506.335 249.012 507.035 249.294 507.68 249.678C509.401 251.014 508.304 253.745 508.63 255.9C508.996 258.32 511.337 260.351 510.908 262.76C510.57 264.659 508.543 266.162 508.869 268.062C509.211 270.052 511.736 270.65 513.749 270.81C514.915 271.014 516.116 270.876 517.206 270.413C518.298 269.666 519.076 268.541 519.387 267.254C520.211 264.801 520.557 262.212 520.407 259.629C520.398 258.454 520.103 257.299 519.547 256.263C518.941 255.443 518.269 254.674 517.539 253.963C513.682 249.476 517.743 242.784 510.439 240.726Z" fill="#ABABAB"/>
<path opacity="0.8" d="M733.023 321.011C733.023 321.011 681.131 444.275 595.726 452.925C595.726 452.925 325.551 483.741 294.321 547.551C294.321 547.551 208.66 279.815 177.43 270.891" stroke="#8B8B8B" stroke-width="2" stroke-miterlimit="10"/>
<path opacity="0.8" d="M294.241 547.155C430.242 407.115 733.484 320.614 733.484 320.614M294.241 547.155C294.241 280.067 601.593 202.216 601.593 202.216M294.241 547.155C294.241 547.155 470.242 302.774 686.457 237.357M733.484 320.614C670.131 336.678 594.946 454.339 594.946 454.339M733.484 320.614C624.295 221.138 177.35 270.494 177.35 270.494M594.946 454.339C594.946 454.339 316.549 251.753 177.35 270.494M594.946 454.339C594.946 454.339 606.998 317.371 686.457 237.357M177.35 270.494C294.241 141.665 601.593 202.216 601.593 202.216M601.593 202.216C661.131 212.328 686.457 237.357 686.457 237.357" stroke="#8B8B8B" stroke-width="2" stroke-miterlimit="10"/>
<path fill-rule="evenodd" clip-rule="evenodd" d="M177.708 259.738C179.293 259.665 179.799 259.649 183.837 259.649C187.874 259.649 188.38 259.666 189.964 259.738C191.547 259.81 192.628 260.063 193.574 260.429C194.565 260.803 195.464 261.388 196.207 262.145C196.964 262.887 197.547 263.785 197.92 264.777C198.288 265.723 198.539 266.804 198.612 268.386C198.685 269.974 198.701 270.479 198.701 274.516C198.701 278.555 198.684 279.06 198.612 280.646C198.541 282.227 198.288 283.308 197.92 284.254C197.547 285.247 196.963 286.146 196.207 286.889C195.464 287.646 194.565 288.229 193.574 288.602C192.628 288.97 191.547 289.221 189.966 289.294C188.38 289.367 187.874 289.384 183.837 289.384C179.799 289.384 179.293 289.366 177.708 289.294C176.127 289.223 175.046 288.97 174.1 288.602C173.108 288.229 172.209 287.645 171.466 286.889C170.71 286.146 170.125 285.248 169.752 284.256C169.385 283.31 169.134 282.228 169.061 280.647C168.988 279.059 168.972 278.553 168.972 274.516C168.972 270.478 168.989 269.972 169.061 268.388C169.133 266.804 169.385 265.723 169.752 264.777C170.125 263.785 170.711 262.886 171.468 262.144C172.21 261.388 173.108 260.802 174.099 260.429C175.045 260.063 176.126 259.811 177.707 259.738H177.708ZM189.843 262.414C188.276 262.343 187.805 262.328 183.837 262.328C179.868 262.328 179.397 262.343 177.83 262.414C176.38 262.48 175.593 262.722 175.069 262.927C174.376 263.197 173.88 263.517 173.36 264.037C172.866 264.517 172.487 265.102 172.249 265.747C172.045 266.272 171.803 267.058 171.737 268.509C171.665 270.076 171.65 270.547 171.65 274.516C171.65 278.486 171.665 278.956 171.737 280.524C171.803 281.974 172.045 282.761 172.249 283.285C172.487 283.93 172.866 284.515 173.36 284.995C173.839 285.488 174.424 285.868 175.069 286.106C175.593 286.31 176.38 286.552 177.83 286.618C179.397 286.69 179.866 286.705 183.837 286.705C187.807 286.705 188.276 286.69 189.843 286.618C191.293 286.552 192.08 286.31 192.604 286.106C193.297 285.836 193.793 285.515 194.314 284.995C194.807 284.515 195.187 283.93 195.424 283.285C195.628 282.761 195.87 281.974 195.937 280.524C196.008 278.956 196.023 278.486 196.023 274.516C196.023 270.547 196.008 270.076 195.937 268.509C195.87 267.058 195.628 266.272 195.424 265.747C195.154 265.054 194.834 264.558 194.314 264.037C193.834 263.544 193.25 263.165 192.604 262.927C192.08 262.722 191.293 262.48 189.843 262.414ZM181.938 279.099C182.998 279.541 184.179 279.601 185.278 279.268C186.378 278.936 187.328 278.232 187.966 277.277C188.604 276.321 188.891 275.174 188.777 274.031C188.664 272.888 188.157 271.82 187.343 271.009C186.825 270.491 186.198 270.094 185.507 269.847C184.817 269.6 184.08 269.509 183.351 269.581C182.621 269.653 181.917 269.886 181.288 270.263C180.659 270.64 180.121 271.152 179.714 271.762C179.307 272.371 179.04 273.064 178.932 273.789C178.824 274.514 178.879 275.255 179.091 275.956C179.304 276.658 179.67 277.304 180.162 277.848C180.654 278.391 181.261 278.819 181.938 279.099ZM178.434 269.113C179.143 268.403 179.986 267.84 180.913 267.456C181.84 267.072 182.833 266.874 183.837 266.874C184.84 266.874 185.834 267.072 186.76 267.456C187.687 267.84 188.53 268.403 189.239 269.113C189.949 269.822 190.512 270.665 190.896 271.592C191.279 272.519 191.477 273.513 191.477 274.516C191.477 275.52 191.279 276.514 190.896 277.441C190.512 278.368 189.949 279.21 189.239 279.92C187.806 281.353 185.863 282.158 183.837 282.158C181.81 282.158 179.867 281.353 178.434 279.92C177.001 278.487 176.196 276.543 176.196 274.516C176.196 272.49 177.001 270.546 178.434 269.113ZM193.172 268.012C193.347 267.847 193.488 267.647 193.586 267.426C193.683 267.205 193.735 266.966 193.738 266.724C193.742 266.483 193.697 266.243 193.606 266.019C193.515 265.795 193.38 265.591 193.209 265.42C193.039 265.249 192.835 265.114 192.611 265.023C192.387 264.933 192.147 264.888 191.906 264.891C191.664 264.895 191.425 264.947 191.204 265.044C190.983 265.141 190.783 265.282 190.618 265.458C190.295 265.8 190.118 266.254 190.125 266.724C190.132 267.194 190.322 267.643 190.654 267.976C190.987 268.308 191.436 268.498 191.906 268.505C192.376 268.512 192.83 268.335 193.172 268.012Z" fill="#FFB703"/>
<g clip-path="url(#clip1_551_46)">
<path d="M305.908 540.387C305.928 540.675 305.928 540.964 305.928 541.252C305.928 550.04 299.24 560.167 287.016 560.167C283.25 560.167 279.752 559.076 276.809 557.183C277.344 557.244 277.859 557.265 278.414 557.265C281.522 557.265 284.382 556.215 286.666 554.425C283.744 554.363 281.295 552.449 280.452 549.814C280.863 549.876 281.275 549.917 281.707 549.917C282.304 549.917 282.9 549.835 283.456 549.691C280.41 549.073 278.126 546.397 278.126 543.166V543.084C279.011 543.578 280.04 543.886 281.131 543.927C279.34 542.734 278.167 540.696 278.167 538.391C278.167 537.156 278.496 536.024 279.073 535.036C282.345 539.07 287.263 541.705 292.778 541.993C292.675 541.499 292.614 540.984 292.614 540.47C292.614 536.806 295.577 533.822 299.261 533.822C301.174 533.822 302.903 534.624 304.117 535.921C305.619 535.633 307.06 535.077 308.336 534.316C307.842 535.859 306.792 537.156 305.414 537.979C306.751 537.835 308.048 537.465 309.241 536.95C308.336 538.267 307.204 539.44 305.908 540.387Z" fill="#FFB703"/>
</g>
<path fill-rule="evenodd" clip-rule="evenodd" d="M605.997 188.015C596.738 188.015 589.24 195.515 589.24 204.775C589.24 212.191 594.036 218.455 600.697 220.676C601.535 220.822 601.849 220.319 601.849 219.88C601.849 219.481 601.828 218.162 601.828 216.758C597.618 217.533 596.529 215.732 596.194 214.789C596.005 214.307 595.188 212.82 594.476 212.421C593.89 212.107 593.052 211.332 594.455 211.311C595.775 211.29 596.718 212.526 597.032 213.029C598.54 215.564 600.949 214.852 601.912 214.412C602.059 213.322 602.499 212.589 602.98 212.17C599.252 211.751 595.356 210.306 595.356 203.895C595.356 202.072 596.005 200.564 597.074 199.391C596.906 198.972 596.32 197.254 597.241 194.95C597.241 194.95 598.645 194.51 601.849 196.668C603.19 196.29 604.614 196.102 606.038 196.102C607.463 196.102 608.887 196.29 610.228 196.668C613.432 194.489 614.836 194.95 614.836 194.95C615.757 197.254 615.171 198.972 615.003 199.391C616.071 200.564 616.721 202.052 616.721 203.895C616.721 210.327 612.804 211.751 609.076 212.17C609.683 212.694 610.207 213.699 610.207 215.271C610.207 217.512 610.186 219.314 610.186 219.88C610.186 220.319 610.5 220.843 611.338 220.676C614.664 219.552 617.555 217.414 619.602 214.562C621.65 211.709 622.752 208.286 622.753 204.775C622.753 195.515 615.255 188.015 605.997 188.015Z" fill="#FFB703"/>
<path fill-rule="evenodd" clip-rule="evenodd" d="M716.807 306.33C716.807 305.635 717.083 304.969 717.574 304.478C718.065 303.986 718.731 303.71 719.426 303.71H745.536C745.88 303.71 746.221 303.777 746.539 303.909C746.857 304.04 747.147 304.233 747.39 304.476C747.634 304.72 747.827 305.009 747.959 305.327C748.09 305.645 748.158 305.986 748.158 306.33V332.445C748.158 332.789 748.091 333.13 747.959 333.448C747.828 333.766 747.635 334.056 747.391 334.299C747.148 334.543 746.859 334.736 746.541 334.868C746.223 335 745.882 335.067 745.537 335.067H719.426C719.082 335.067 718.741 334.999 718.423 334.868C718.105 334.736 717.817 334.543 717.573 334.299C717.33 334.056 717.137 333.767 717.006 333.449C716.874 333.131 716.807 332.79 716.807 332.446V306.33ZM729.216 315.666H733.461V317.798C734.074 316.572 735.642 315.469 737.997 315.469C742.513 315.469 743.584 317.911 743.584 322.39V330.689H739.013V323.411C739.013 320.86 738.401 319.42 736.844 319.42C734.685 319.42 733.788 320.972 733.788 323.411V330.689H729.216V315.666ZM721.378 330.493H725.95V315.469H721.378V330.492V330.493ZM726.604 310.569C726.613 310.96 726.543 311.35 726.399 311.714C726.255 312.078 726.04 312.41 725.766 312.69C725.493 312.97 725.166 313.192 724.805 313.344C724.444 313.496 724.056 313.574 723.665 313.574C723.273 313.574 722.886 313.496 722.525 313.344C722.164 313.192 721.837 312.97 721.563 312.69C721.289 312.41 721.074 312.078 720.931 311.714C720.787 311.35 720.717 310.96 720.726 310.569C720.743 309.801 721.06 309.069 721.609 308.532C722.158 307.994 722.896 307.693 723.665 307.693C724.433 307.693 725.171 307.994 725.721 308.532C726.27 309.069 726.587 309.801 726.604 310.569Z" fill="#FFB703"/>
<path d="M700.389 220.453C702.289 220.453 703.82 221.99 703.91 223.8V252.891L700.294 249.819L698.309 248.013L696.139 246.123L697.042 249.101H678.076C676.18 249.101 674.645 247.664 674.645 245.754V223.806C674.645 221.996 676.181 220.459 678.082 220.459H700.379L700.389 220.453ZM692.122 228.135H692.079L691.805 228.404C694.608 229.217 695.964 230.485 695.964 230.485C694.159 229.581 692.527 229.127 690.902 228.943C689.73 228.763 688.552 228.859 687.56 228.943H687.285C686.652 228.943 685.301 229.217 683.49 229.94C682.861 230.215 682.497 230.394 682.497 230.394C682.497 230.394 683.849 229.037 686.836 228.314L686.652 228.135C686.652 228.135 684.393 228.045 681.954 229.851C681.954 229.851 679.516 234.101 679.516 239.338C679.516 239.338 680.867 241.688 684.573 241.777C684.573 241.777 685.116 241.059 685.661 240.426C683.581 239.792 682.768 238.525 682.768 238.525C682.768 238.525 682.953 238.615 683.222 238.795H683.301C683.344 238.795 683.365 238.816 683.385 238.837V238.847C683.407 238.869 683.428 238.884 683.464 238.884C683.913 239.068 684.356 239.248 684.721 239.427C685.355 239.697 686.162 239.971 687.155 240.151C688.411 240.336 689.852 240.421 691.493 240.151C692.301 239.967 693.114 239.792 693.927 239.427C694.45 239.158 695.098 238.889 695.811 238.43C695.811 238.43 695.003 239.697 692.833 240.33C693.277 240.959 693.905 241.682 693.905 241.682C697.615 241.598 699.056 239.248 699.135 239.348C699.135 234.117 696.681 229.861 696.681 229.861C694.474 228.219 692.405 228.156 692.041 228.156L692.115 228.13L692.122 228.135ZM692.349 234.101C693.299 234.101 694.065 234.909 694.065 235.902C694.065 236.905 693.294 237.712 692.349 237.712C691.398 237.712 690.633 236.904 690.633 235.912C690.633 234.908 691.403 234.101 692.349 234.101ZM686.21 234.101C687.155 234.101 687.921 234.909 687.921 235.902C687.921 236.905 687.151 237.712 686.205 237.712C685.254 237.712 684.484 236.904 684.484 235.912C684.484 234.908 685.254 234.101 686.205 234.101H686.21Z" fill="#FFB703"/>
<path d="M613.05 459.275V441.725C613.05 440.107 611.743 438.8 610.125 438.8H582.805C581.187 438.8 579.88 440.107 579.88 441.725V459.275C579.88 460.894 581.187 462.2 582.805 462.2H610.125C611.743 462.2 613.05 460.894 613.05 459.275ZM610.495 441.511C611.139 442.154 610.788 442.817 610.437 443.149L602.52 450.403L610.125 458.32C610.359 458.593 610.515 459.022 610.242 459.314C609.988 459.626 609.403 459.607 609.15 459.412L600.628 452.138L596.455 455.941L592.302 452.138L583.78 459.412C583.527 459.607 582.942 459.626 582.688 459.314C582.415 459.022 582.571 458.593 582.805 458.32L590.41 450.403L582.493 443.149C582.142 442.817 581.791 442.154 582.435 441.511C583.078 440.867 583.741 441.179 584.287 441.647L596.455 451.475L608.643 441.647C609.189 441.179 609.852 440.867 610.495 441.511Z" fill="#FFB703"/>
</g>
<defs>
<clipPath id="clip0_551_46">
<rect width="762" height="841" fill="white"/>
</clipPath>
<clipPath id="clip1_551_46">
<rect width="32.4323" height="32.4379" fill="white" transform="translate(276.809 530.775)"/>
</clipPath>
</defs>
</svg>
