<svg width="55" height="55" viewBox="0 0 55 55" fill="none" xmlns="http://www.w3.org/2000/svg">
<g clip-path="url(#clip0_620_165)">
<path d="M55 27.5C55.0049 31.2227 54.2514 34.9073 52.7854 38.3291L52.6942 38.5391C50.2144 44.1806 45.9144 48.8276 40.482 51.7369C35.0495 54.6463 28.7984 55.65 22.7282 54.5875C22.563 54.5582 22.3981 54.5278 22.2335 54.4964C20.5325 54.1666 18.8668 53.6754 17.2591 53.0294C16.9979 52.9245 16.7387 52.8157 16.4813 52.7032C16.3055 52.6267 16.1298 52.5478 15.9557 52.4664C11.1928 50.2589 7.16018 46.7359 4.33323 42.3124C1.50628 37.889 0.0027961 32.7496 0 27.5C0 12.3124 12.3124 0 27.5 0C42.6877 0 55 12.3124 55 27.5Z" fill="#F9A826"/>
<path opacity="0.2" d="M22.7282 54.5876C22.563 54.5583 22.3981 54.5279 22.2335 54.4965C22.1261 51.3795 21.7576 44.9821 20.5005 38.2821C19.813 34.6151 18.8587 30.8562 17.5349 27.496C17.0814 26.3334 16.5634 25.1969 15.9834 24.0919C14.6458 21.5656 13.0235 19.4389 11.0562 17.998L11.3458 17.6025C12.982 18.8018 14.4524 20.4854 15.7572 22.6534C16.1485 23.3027 16.5244 23.9953 16.8849 24.7314C17.2713 25.519 17.6399 26.3551 17.9905 27.2397C18.2143 27.8028 18.4304 28.3853 18.639 28.9874C19.547 31.6015 20.3188 34.5842 20.9545 37.9355C21.0953 38.6758 21.2293 39.4344 21.3565 40.2111C22.3417 46.2294 22.6387 51.7937 22.7282 54.5876Z" fill="black"/>
<path opacity="0.2" d="M16.4813 52.7032C16.3056 52.6267 16.1298 52.5478 15.9557 52.4664C15.7857 50.6195 15.4732 48.3284 14.9021 46.1536C14.6519 45.1769 14.3308 44.2197 13.9412 43.2897C13.2895 41.7642 12.4458 40.4673 11.3547 39.6675L11.6444 39.2729C12.7867 40.1093 13.6678 41.4315 14.3488 42.9781C15.1161 44.7209 15.6278 46.7492 15.9687 48.6872C16.2217 50.1265 16.3812 51.517 16.4813 52.7032Z" fill="black"/>
<path opacity="0.2" d="M8.3201 17.9864C9.67212 17.9864 10.7681 16.8904 10.7681 15.5384C10.7681 14.1864 9.67212 13.0903 8.3201 13.0903C6.96809 13.0903 5.87207 14.1864 5.87207 15.5384C5.87207 16.8904 6.96809 17.9864 8.3201 17.9864Z" fill="black"/>
<path opacity="0.2" d="M9.10843 39.0596C10.4604 39.0596 11.5565 37.9636 11.5565 36.6116C11.5565 35.2596 10.4604 34.1636 9.10843 34.1636C7.75642 34.1636 6.6604 35.2596 6.6604 36.6116C6.6604 37.9636 7.75642 39.0596 9.10843 39.0596Z" fill="black"/>
<path opacity="0.2" d="M18.039 19.6503C17.5199 22.5791 18.6659 25.231 18.6659 25.231C18.6659 25.231 20.6535 23.1345 21.1726 20.2057C21.6917 17.277 20.5458 14.625 20.5458 14.625C20.5458 14.625 18.5581 16.7215 18.039 19.6503Z" fill="black"/>
<path opacity="0.2" d="M9.90307 26.6028C12.6966 27.6243 15.5037 26.9687 15.5037 26.9687C15.5037 26.9687 13.7816 24.657 10.9881 23.6356C8.19455 22.6141 5.38745 23.2696 5.38745 23.2696C5.38745 23.2696 7.10954 25.5813 9.90307 26.6028Z" fill="black"/>
<path opacity="0.2" d="M9.4294 45.2636C11.3874 45.9796 13.3578 45.5125 13.3578 45.5125C13.3578 45.5125 12.1535 43.8846 10.1955 43.1686C8.23742 42.4526 6.26709 42.9197 6.26709 42.9197C6.26709 42.9197 7.47137 44.5476 9.4294 45.2636Z" fill="black"/>
<path d="M27.4436 33.5898C33.3646 33.5898 38.1645 28.7899 38.1645 22.8689C38.1645 16.9479 33.3646 12.1479 27.4436 12.1479C21.5226 12.1479 16.7227 16.9479 16.7227 22.8689C16.7227 28.7899 21.5226 33.5898 27.4436 33.5898Z" fill="#BEBEBE"/>
<path d="M23.2556 31.0769C23.2556 31.0769 24.5957 37.4424 24.5957 38.1125C24.5957 38.7825 30.9613 41.7978 30.9613 41.7978L36.6568 40.7927L38.667 34.7622C38.667 34.7622 35.3167 29.7367 35.3167 27.7266L23.2556 31.0769Z" fill="#BEBEBE"/>
<path d="M52.7854 38.3293L52.6943 38.5392C50.2145 44.1807 45.9145 48.8277 40.482 51.7371C35.0496 54.6465 28.7984 55.6502 22.7282 54.5877C22.5631 54.5584 22.3982 54.528 22.2336 54.4965C20.5326 54.1668 18.8669 53.6756 17.2592 53.0296C16.998 52.9246 16.7387 52.8159 16.4813 52.7033C16.3056 52.6269 16.1299 52.5479 15.9557 52.4666C14.3776 51.7354 12.8724 50.856 11.4606 49.8402L10.1897 46.1538L10.904 45.6087L12.3734 44.4867L13.9413 43.2899L14.3489 42.9783L20.5006 38.2821L20.9546 37.9355L24.152 35.4947L24.1529 35.4939C24.1529 35.4939 27.6107 41.1281 32.6364 39.4529C37.662 37.7777 37.5522 32.9741 37.5522 32.9741L52.7854 38.3293Z" fill="#292929"/>
<path d="M18.1464 14.2313C18.1464 14.2313 21.5503 6.85628 28.0743 8.55821C34.5984 10.2601 38.2859 12.813 38.5696 15.3659C38.8532 17.9188 38.4277 21.7482 38.4277 21.7482C38.4277 21.7482 37.7186 16.5005 33.1801 17.6352C28.6416 18.7698 21.5503 17.9188 21.5503 17.9188L20.4156 28.1304C20.4156 28.1304 19.1392 26.2866 17.7209 27.4213C16.3026 28.5559 13.6079 16.5005 18.1464 14.2313Z" fill="#292929"/>
<path d="M17.2592 53.0296C16.998 52.9247 16.7387 52.8159 16.4813 52.7034C16.3056 52.6269 16.1299 52.548 15.9558 52.4666C13.3456 51.2563 10.941 49.6448 8.82935 47.6907C9.57705 46.6721 10.1897 46.1538 10.1897 46.1538H15.2154L15.9688 48.6874L17.2592 53.0296Z" fill="#292929"/>
<path d="M48.3829 37.7773L52.6942 38.5389C51.5405 41.1673 49.9822 43.5988 48.0762 45.745L48.3829 37.7773Z" fill="#292929"/>
</g>
<defs>
<clipPath id="clip0_620_165">
<rect width="55" height="55" fill="white"/>
</clipPath>
</defs>
</svg>
