<svg width="630" height="499" viewBox="0 0 630 499" fill="none" xmlns="http://www.w3.org/2000/svg">
<g clip-path="url(#clip0_913_1945)">
<path d="M169.056 49.638C168.719 46.9734 168.038 44.3639 167.028 41.8749C166.9 41.4042 166.674 40.9655 166.367 40.5867C166.059 40.2079 165.676 39.8973 165.242 39.6747C164.661 39.5237 164.053 39.5169 163.469 39.6548L154.367 41.0473C153.605 41.0821 152.876 41.3655 152.29 41.8542C151.105 43.1007 152.272 45.108 152.236 46.8278C152.195 48.7616 150.476 50.3313 148.613 50.8507C146.711 51.235 144.749 51.2107 142.856 50.7793L130.129 48.8018C133.878 47.6052 137.214 45.3791 139.758 42.3774C141.432 40.3936 142.323 36.6898 139.903 35.7503C139.184 35.553 138.434 35.4928 137.692 35.5729C131.926 35.6177 127.388 30.8038 121.99 28.7764C118.535 27.5626 114.785 27.4723 111.275 28.5184C107.766 29.5644 104.677 31.6933 102.451 34.6004L109.231 34.9273C109.869 34.8921 110.501 35.0607 111.037 35.4089C112.523 36.6295 110.675 38.9741 110.885 40.8854C111.157 43.3687 114.454 43.8989 116.94 44.1501C119.426 44.4012 122.579 46.4206 121.384 48.6141C108.89 52.917 96.1757 40.2027 83.0543 41.7678C79.7334 42.1639 76.5975 43.4684 73.3552 44.2886C53.5487 49.2993 33.0723 35.9303 12.8389 38.7616C8.34076 39.5283 3.91987 40.6941 -0.371372 42.2452C-3.12517 43.1493 -5.99757 44.1263 -7.99846 46.223C-9.99935 48.3197 -10.7609 51.9055 -8.86533 54.0979C-14.0899 54.5281 -19.3494 54.0282 -24.3994 52.6215C-23.0338 53.3805 -21.8977 54.4931 -21.1104 55.8425C-20.3232 57.1919 -19.9137 58.7283 -19.9251 60.2905C-28.0827 61.6205 -36.0242 64.0417 -43.5362 67.4889C-42.1342 69.8201 -40.4966 72.0012 -38.6493 73.9981L-48.9766 80.632C-45.4875 81.5109 -43.6836 86.268 -45.7126 89.239C-42.0948 87.6297 -39.8527 83.4668 -35.9841 82.6228C-33.4497 82.0699 -30.8709 83.1065 -28.4666 84.0803C-26.0623 85.0542 -23.4197 85.9985 -20.9307 85.2676C-18.4418 84.5367 -16.6059 81.3098 -18.1875 79.2539C-7.54903 76.1503 3.44561 74.4328 14.5239 74.1438C15.3786 74.0366 16.2453 74.2011 17.0013 74.6139C18.4434 75.6143 18.064 77.7751 17.9863 79.5283C17.9086 81.2816 19.2752 83.5858 20.8424 82.7956C18.9986 84.3942 20.5748 87.4037 22.3437 89.0848C24.1127 90.7658 26.2447 93.0854 25.1618 95.2721C24.8791 95.8429 24.3997 96.2995 24.1278 96.8754C23.325 98.5753 24.5996 100.557 26.1029 101.686C27.6063 102.815 29.4477 103.604 30.492 105.167C31.5363 106.73 31.0621 109.466 29.1947 109.685L23.887 102.946C22.0735 104.827 20.8303 107.182 20.3015 109.74C25.9299 114.341 26.7765 123.705 22.0644 129.24C19.6565 132.068 16.2321 133.787 13.2434 135.994C10.2547 138.2 7.4892 141.342 7.49672 145.056C7.5097 151.474 6.98528 157.436 9.39036 163.386C13.8253 174.356 18.9457 185.038 24.7211 195.366C26.2377 198.078 28.1978 201.051 31.2703 201.518C27.3873 192.066 23.8919 182.468 20.784 172.722C22.8083 172.73 25.1475 172.891 26.3342 174.531C27.3168 175.888 27.1057 177.734 27.411 179.382C27.7994 180.979 28.447 182.501 29.328 183.888L47.8701 216.913C49.4072 219.651 51.1704 222.59 54.1081 223.698C55.9863 224.407 58.1594 224.274 59.8881 225.294C61.2432 226.094 62.1559 227.514 63.5373 228.268C67.4433 230.398 72.8749 226.312 76.5252 228.856C77.5689 229.583 78.2329 230.739 79.1946 231.571C82.5659 234.49 88.0963 232.538 91.9881 234.715C94.4964 236.119 95.7962 238.925 97.1341 241.469C100.485 247.841 105.908 254.083 113.089 254.59C115.345 254.749 117.65 254.322 119.855 254.823C122.06 255.325 124.231 257.249 123.877 259.483C123.27 263.312 125.162 267.504 124.654 271.348C123.728 278.348 113.797 281.425 112.944 288.434C112.757 289.969 113.05 291.553 112.684 293.056C112.236 294.897 110.853 296.396 110.362 298.226C109.43 301.695 111.916 305.146 114.646 307.48C117.376 309.813 120.632 311.825 122.125 315.091C123.702 318.544 122.927 322.569 123.44 326.33C124.561 334.54 131.653 340.627 138.952 344.551C141.176 345.747 143.564 346.905 145.003 348.979C146.882 351.687 146.695 355.256 147.322 358.491C148.858 366.413 155.529 372.941 155.718 381.009C155.853 386.744 152.665 391.946 150.76 397.357C148.975 402.541 148.329 408.049 148.866 413.506C149.403 418.962 151.111 424.239 153.874 428.975C155.298 431.381 157.002 433.648 158.01 436.256C159.809 440.909 159.225 446.199 160.883 450.903C163.075 457.124 169.099 462.262 168.523 468.832C171.258 474.51 177.297 477.3 183.369 478.99L194.252 482.02C196.336 482.6 198.514 483.184 200.636 482.764C202.758 482.344 204.783 480.582 204.728 478.42C199.391 477.217 193.883 475.937 189.483 472.685C185.084 469.433 182.07 463.643 183.739 458.433C184.513 456.017 186.16 453.228 184.595 451.232C183.698 450.089 182.059 449.791 181.048 448.748C179.471 447.121 180.013 444.389 181.147 442.428C182.28 440.467 183.919 438.714 184.376 436.496C184.607 435.254 184.453 433.972 183.934 432.821C183.416 431.67 182.557 430.705 181.475 430.056C183.493 429.294 185.328 428.117 186.861 426.6C188.278 424.982 188.932 422.488 187.818 420.65C191.127 421.069 195.034 421.275 197.206 418.744C198.941 416.722 198.822 413.701 198.137 411.127C197.451 408.553 196.293 406.053 196.257 403.39C203.89 403.752 211.541 403.492 219.133 402.615C218.035 398.918 215.54 395.794 212.178 393.905C215.616 393.323 218.749 389.208 219.835 385.894C220.921 382.581 220.644 378.972 219.973 375.55C219.715 374.669 219.679 373.738 219.87 372.84C220.257 371.607 221.469 370.854 222.591 370.21L239.657 360.409C240.676 359.899 241.599 359.218 242.386 358.395C244.175 356.295 243.91 353.125 242.994 350.523C242.079 347.921 240.612 345.475 240.259 342.74C239.205 334.559 247.963 328.689 250.919 320.988C252.079 317.966 252.315 314.681 252.54 311.452C252.781 307.984 252.799 303.955 250.135 301.72C247.582 299.578 243.593 300.056 240.922 298.063C238.472 296.236 237.627 292.687 234.951 291.211C232.521 289.871 229.475 290.723 226.772 290.093C222.014 288.983 219.019 283.5 214.159 282.992C211.417 282.705 208.314 284.046 206.067 282.449C204.087 281.042 204.007 278.214 203.63 275.815C202.97 272.086 201.182 268.648 198.508 265.966C195.834 263.284 192.402 261.485 188.675 260.813C185.848 260.36 182.77 260.532 180.365 258.978C177.93 257.405 176.813 254.46 174.9 252.282C171.817 248.771 166.961 247.524 162.413 246.455L143.91 242.105C140.626 241.333 136.392 240.924 134.629 243.801C134.107 244.896 133.738 246.058 133.531 247.253C132.871 249.416 131.542 251.313 129.735 252.673C127.928 254.033 125.737 254.785 123.476 254.821C121.925 252.176 119.413 250.233 116.463 249.396C114.587 248.873 112.579 248.815 110.79 248.046C109.815 247.57 108.948 246.901 108.241 246.078C107.534 245.256 107.003 244.298 106.679 243.263C106.355 242.229 106.246 241.139 106.358 240.06C106.47 238.982 106.802 237.938 107.331 236.991C108.398 235.092 108.81 232.895 108.504 230.739C108.197 228.582 107.19 226.587 105.636 225.06C102.49 222.235 97.938 221.553 93.7189 221.835C92.6139 219.425 94.4615 216.705 96.4525 214.953C98.4435 213.201 100.861 211.478 101.295 208.862C101.977 204.747 96.7252 201.621 92.7378 202.848C88.7504 204.075 86.2054 207.948 84.523 211.765C83.5578 213.955 82.7372 216.261 81.2146 218.108C79.692 219.955 77.24 221.277 74.9209 220.685C71.6376 219.846 70.3695 215.945 69.6428 212.636C68.6679 208.195 67.6873 203.693 67.8915 199.152C68.0958 194.61 69.6271 189.947 72.9764 186.872C78.4343 181.862 86.8071 182.354 94.173 183.153C92.4327 181.192 92.8628 177.888 94.7248 176.043C95.7077 175.17 96.8888 174.549 98.1656 174.236C99.4425 173.922 100.777 173.925 102.052 174.243C104.272 174.705 106.271 175.9 107.729 177.637C109.822 180.188 110.417 183.634 112 186.53C113.582 189.426 117.139 191.897 120.051 190.343C122.566 189.001 122.965 185.514 122.339 182.733C121.714 179.952 120.384 177.247 120.611 174.406C121.043 168.984 126.665 165.72 131.625 163.487C136.585 161.255 142.265 158.252 143.051 152.869C143.078 151.816 143.276 150.773 143.639 149.784C144.189 148.91 144.954 148.191 145.86 147.695C160.337 138.129 175.054 128.447 191.601 123.22C192.461 122.948 192.562 123.25 193.44 123.037C194.668 122.327 193.854 120.365 192.677 119.574C191.5 118.783 189.926 118.177 189.627 116.791C189.408 115.772 190.008 114.771 190.164 113.741C190.548 111.208 187.518 108.87 185.165 109.882C183.836 108.122 186.465 106.077 188.592 105.492C194.978 103.735 201.533 102.664 208.146 102.298C208.909 102.177 209.69 102.31 210.371 102.677C211.481 103.446 211.339 105.21 210.552 106.308C209.765 107.406 208.541 108.096 207.56 109.025C206.488 110.069 205.724 111.387 205.35 112.835C204.976 114.284 205.008 115.807 205.441 117.239C208.893 118.995 212.646 120.803 216.47 120.184C220.293 119.566 223.687 115.27 221.89 111.839C220.216 108.645 215.189 107.924 214.325 104.423C213.312 100.323 219.116 96.6775 217.809 92.6625C217.236 90.9037 215.483 89.8687 214.138 88.5989C212.55 87.0421 211.469 85.0414 211.038 82.8594C210.608 80.6774 210.847 78.4162 211.725 76.3727C209.534 76.7581 207.283 76.6125 205.16 75.9482C203.036 75.2839 201.104 74.1203 199.523 72.5549C196.605 69.6099 194.276 64.9641 190.132 65.0959C186.329 65.2168 183.053 69.6532 179.497 68.2997C178.622 67.9668 177.7 67.2891 176.852 67.6861C176.574 67.8665 176.341 68.1076 176.17 68.3913C175.999 68.675 175.895 68.9938 175.865 69.3236C174.962 73.6437 176.516 78.5659 174.162 82.299C171.599 86.3613 165.672 86.9245 162.565 90.5877C160.879 92.5763 160.226 95.2558 158.676 97.3522C157.126 99.4487 153.836 100.782 151.975 98.9546C152.89 97.0754 153.139 94.9417 152.684 92.9022C152.228 90.8627 151.094 89.0382 149.467 87.7267C147.74 86.6 145.878 85.6946 143.925 85.0317C141.743 84.1082 139.668 82.9516 137.735 81.5819C136.766 80.9978 135.98 80.156 135.462 79.1505C135.053 77.8915 135.108 76.5275 135.618 75.3056C136.561 72.6016 138.225 70.2066 140.43 68.3791C142.635 66.5516 145.298 65.361 148.13 64.936C150.607 64.5991 153.489 64.7178 155.129 62.8309C155.996 61.8325 156.451 60.3231 157.71 59.9176C158.515 59.7558 159.351 59.8588 160.093 60.211L169.337 63.4645C170.369 63.9301 171.504 64.1179 172.631 64.0091C173.189 63.9339 173.698 63.6503 174.057 63.2151C174.415 62.78 174.595 62.2255 174.561 61.663C174.266 60.128 171.904 59.3914 172.118 57.8431C172.239 57.3414 172.509 56.8879 172.892 56.5427C176.228 52.9922 180.308 50.2232 184.84 48.4338C189.372 46.6445 194.243 45.8791 199.106 46.1924C200.272 48.1085 198.427 50.3775 196.892 52.0132C195.356 53.649 194.122 56.5716 195.979 57.8307C196.74 58.219 197.587 58.4096 198.441 58.3849C200.717 58.693 202.928 59.3638 204.992 60.3719C208.187 61.7619 211.32 63.2828 214.392 64.9345C214.12 62.9093 213.861 60.7758 214.629 58.8822C215.397 56.9886 217.579 55.5034 219.484 56.2408C221.321 56.9515 222.263 59.3832 224.22 59.606C226.83 59.9031 227.86 56.0475 226.77 53.6576C225.679 51.2678 223.521 49.2667 223.341 46.6461C223.219 44.8782 223.892 42.6855 222.48 41.615C221.977 41.2936 221.406 41.0935 220.813 41.0307L185.547 34.542C183.453 34.1566 180.427 34.452 180.335 36.579C180.283 37.7663 181.343 38.9409 180.874 40.0325C180.372 41.1976 178.725 41.0911 177.525 41.5032C175.664 42.1426 174.73 44.3527 174.908 46.3127C175.236 48.2601 175.99 50.1111 177.117 51.7326C174.823 50.7735 171.35 50.5971 169.056 49.638Z" fill="#2C2C2C"/>
<path d="M142.266 19.9483C140.042 19.2124 137.646 19.1782 135.402 19.8501C133.158 20.5221 131.175 21.8677 129.722 23.7046C129.141 24.4691 128.654 25.5229 129.14 26.3507C129.837 27.5374 131.612 27.0687 132.922 26.6442C134.846 25.9568 136.941 25.9068 138.896 26.5017C140.125 26.9238 141.225 27.6697 142.46 28.0758C143.061 28.3271 143.719 28.4102 144.364 28.316C145.008 28.2218 145.615 27.9539 146.119 27.5411C146.967 26.6769 147.02 25.3334 147.021 24.1231C147.08 23.7181 147.048 23.3051 146.927 22.9142C146.805 22.5234 146.598 22.1645 146.321 21.8638C145.827 21.5776 145.271 21.4133 144.701 21.3847C143.423 21.1482 142.268 20.4734 141.435 19.4766" fill="#2C2C2C"/>
<path d="M154.982 16.4086C154.485 16.3815 153.989 16.4829 153.541 16.703C153.094 16.9231 152.711 17.2545 152.429 17.6654C152.147 18.0763 151.976 18.5528 151.931 19.0492C151.886 19.5455 151.97 20.045 152.175 20.4995C153.703 20.9163 155.3 21.0204 156.869 20.8056C157.652 20.6841 158.382 20.3335 158.966 19.7982C159.55 19.2629 159.962 18.5667 160.151 17.7974C158.303 18.1337 156.396 17.7695 154.802 16.776" fill="#2C2C2C"/>
<path d="M197.647 10.4958C193.487 11.3801 189.446 12.7526 185.608 14.5848C187.417 15.2802 188.955 16.5383 189.995 18.1737C191.035 19.8091 191.523 21.7354 191.385 23.6686C191.223 24.4107 191.241 25.1811 191.44 25.9145C191.882 26.9862 193.163 27.3884 194.289 27.6635C196.313 28.2793 198.426 28.549 200.54 28.4611C201.597 28.4058 202.624 28.0878 203.527 27.5359C204.43 26.9839 205.182 26.2154 205.713 25.3C206.02 24.4312 206.379 23.5819 206.789 22.7571C209.489 18.6457 217.51 23.6169 220.409 19.6432C221.43 18.2435 221.336 16.1364 222.668 15.0272C223.356 14.5439 224.154 14.2394 224.99 14.1411C230.819 12.9831 236.708 12.1445 242.629 11.6293C245.434 11.3852 249.091 10.3779 249.114 7.56229C238.547 5.4872 227.59 6.96101 217.947 11.7546C214.473 13.4945 209.878 17.1546 206.531 14.8478C205.278 13.9841 205.34 11.6584 203.615 10.6872C201.852 9.69432 199.518 10.0982 197.647 10.4958Z" fill="#2C2C2C"/>
<path d="M232.204 16.9584L237.165 17.9114C236.252 17.871 235.341 18.0257 234.492 18.3653C233.644 18.7049 232.877 19.2214 232.244 19.8806C231.611 20.5398 231.126 21.3263 230.821 22.1878C230.516 23.0493 230.398 23.9659 230.476 24.8765C235.121 26.4281 240.185 24.9182 245.079 25.1245C249.972 25.3307 255.665 28.8256 254.83 33.6508C254.577 35.1098 253.734 36.5678 254.173 37.9821C254.48 38.9734 255.354 39.6768 255.848 40.5897C256.876 42.4922 256.054 44.8985 254.756 46.6279C253.457 48.3573 251.712 49.7372 250.572 51.5751C247.737 56.1462 249.347 62.0556 251.036 67.1623C251.524 69.0919 252.426 70.8923 253.679 72.4392C256.181 75.0991 260.258 75.3304 263.91 75.3837C266.567 75.4224 269.612 75.2912 271.293 73.2322C273.487 70.5442 271.953 66.3503 273.397 63.1956C274.709 60.3304 278.052 59.1012 281.081 58.2294C286.629 56.6323 292.283 55.2745 297.529 52.8621C304.042 49.8665 310.13 45.1982 317.289 44.8126C319.297 44.7044 321.356 44.9414 323.29 44.3912C325.225 43.841 327.063 42.1685 326.916 40.1627C326.791 38.4489 325.341 37.1904 324.208 35.8985C323.075 34.6065 322.185 32.6199 323.226 31.253L341.991 27.7484C340.661 24.1239 339.625 19.3503 342.682 16.991C343.784 16.1398 345.261 15.7995 346.2 14.7705C347.8 13.0165 346.996 9.9951 345.148 8.50345C343.301 7.01179 340.803 6.66551 338.437 6.46898C330.209 5.78572 321.933 6.23721 313.689 6.68904C297.574 7.57227 281.459 8.4555 265.344 9.33873C262.099 9.51653 258.354 9.2449 255.378 10.3515C252.86 11.2884 251.069 13.0081 248.188 13.6123C242.87 14.7278 237.017 13.973 232.204 16.9584Z" fill="#2C2C2C"/>
<path d="M321.068 56.1617C320.563 56.0818 320.046 56.199 319.624 56.4892C319.346 56.796 319.18 57.1887 319.154 57.6024C318.834 59.4283 319.216 61.3077 320.222 62.8643C320.735 63.6279 321.443 64.2404 322.273 64.638C323.102 65.0357 324.023 65.204 324.94 65.1257C327.173 64.8409 328.819 62.9356 330.873 62.0059C334.038 60.5743 347.478 58.3425 338.181 53.3202C334.977 51.5894 332.906 53.1173 330.381 54.2571C327.508 55.7268 324.288 56.3853 321.068 56.1617Z" fill="#2C2C2C"/>
<path d="M402.502 14.1222C401.416 14.5657 400.508 15.3562 399.919 16.3702C399.648 16.8851 399.585 17.4846 399.743 18.0446C399.902 18.6047 400.269 19.0824 400.77 19.379C401.176 19.526 401.605 19.5942 402.036 19.5799L406.451 19.7118C408.326 19.7678 410.668 20.1671 411.172 21.974C411.547 23.3157 410.709 25.0398 411.72 25.9986C412.153 26.3344 412.675 26.5378 413.221 26.5842C414.675 26.9577 416.194 27.0067 417.669 26.7278C420.881 25.8664 419.193 23.9063 420.205 22.1611C421.752 19.4907 421.485 21.1072 424.212 19.5768C426.226 18.4465 428.828 16.3962 427.147 13.5155C424.224 8.50604 406.816 11.9702 402.502 14.1222Z" fill="#2C2C2C"/>
<path d="M489.629 11.6046L487.065 11.9467C481.285 12.7179 475.472 13.4962 469.905 15.2318C472.315 16.1844 474.843 16.8048 477.421 17.0756C478.839 17.1452 480.248 17.3455 481.63 17.674C484.089 18.4059 486.567 20.2959 488.942 19.3277C490.415 18.7274 490.896 17.1939 492.116 16.3813C492.959 15.8201 496.154 14.9118 496.511 14.3454C499.399 9.7664 491.849 11.3085 489.629 11.6046Z" fill="#2C2C2C"/>
<path d="M500.884 23.2521C497.461 25.1663 494.284 27.4924 491.425 30.1784C490.221 31.3104 488.991 32.7183 489.1 34.3674C489.245 36.5591 491.58 37.8305 493.603 38.6869L501.797 42.1557C502.791 40.7548 501.882 38.821 500.854 37.4443C499.827 36.0677 498.606 34.4749 499.06 32.8182C499.578 30.9277 501.883 30.2835 503.817 29.9578C506.966 29.4272 515.463 29.4697 514.442 24.3942C513.239 18.4137 504.046 21.485 500.884 23.2521Z" fill="#2C2C2C"/>
<path d="M499.237 361.693C498.456 363.951 498.382 366.611 499.732 368.583C501.246 370.795 504.276 371.619 506.898 371.058C509.509 370.364 511.836 368.868 513.551 366.781C515.12 365.033 516.411 363.054 517.378 360.913C518.728 357.578 519.68 354.095 520.215 350.536L522.759 337.18C523.327 334.195 523.305 325.043 517.818 328.025C516.319 328.839 512.849 335.271 511.278 337.094C508.446 340.381 508.072 343.571 506.581 347.553C504.714 352.54 500.962 356.697 499.237 361.693Z" fill="#2C2C2C"/>
<path d="M427.557 169.154C427.885 170.911 428.207 172.76 427.631 174.452C427.055 176.143 425.244 177.556 423.534 177.038C422.207 176.636 421.44 175.302 420.498 174.284C415.257 168.627 403.433 171.903 400.196 164.904C398.874 162.047 399.772 158.625 398.871 155.61C398.302 153.867 397.171 152.363 395.655 151.333C394.138 150.303 392.323 149.806 390.493 149.919C388.824 150.16 387.199 150.645 385.672 151.358C375.435 155.457 364.689 158.145 353.729 159.347C351.645 159.474 349.585 159.848 347.591 160.463C343.09 162.095 340.015 166.267 337.827 170.524C335.638 174.781 334.023 179.39 331.089 183.172C328.005 187.147 323.684 189.931 319.654 192.941C318.101 193.942 316.808 195.297 315.881 196.894C315.007 198.688 315.057 200.775 315.125 202.769L315.948 226.987C316.054 230.102 316.187 233.328 317.582 236.116C319.323 239.597 322.763 241.877 325.149 244.952C327.584 248.113 328.853 252.017 328.74 256.005C328.689 257.608 328.53 259.504 329.779 260.511C330.538 261.004 331.427 261.259 332.332 261.246L365.097 263.927C370.861 264.399 377.248 265.174 381.011 269.565C382.787 271.637 384.213 274.617 386.933 274.839C388.1 274.934 389.235 274.455 390.402 274.363C393.347 274.13 395.933 276.364 397.566 278.825C400.036 282.576 401.158 287.056 400.746 291.529C400.478 294.336 399.608 297.065 399.42 299.879C398.706 310.587 407.784 319.889 407.96 330.619C408.063 336.93 405.067 342.826 402.145 348.422C406.86 355.564 403 365.074 404.877 373.423C406.657 381.344 413.263 387.545 414.909 395.495C415.662 399.134 415.706 403.613 418.915 405.488C420.324 406.174 421.885 406.487 423.449 406.396C432.884 406.507 442.211 404.384 450.668 400.2C454.637 398.23 458.75 395.291 459.443 390.915C460.002 387.386 458.212 383.439 460.034 380.366C462.18 376.743 467.68 377.03 470.838 374.245C475.962 369.727 471.966 361.109 474.042 354.601C475.908 348.751 482.332 345.643 485.516 340.393C486.77 338.135 487.669 335.698 488.183 333.167C489.642 327.119 490.55 320.951 490.896 314.739C490.981 310.964 491.259 307.197 491.73 303.451C495.163 282.125 516.248 267.845 523.094 247.357C523.748 245.401 524.055 242.795 522.314 241.688C521.282 241.195 520.111 241.073 518.999 241.341L503.895 243.245C502.019 243.481 500.031 243.702 498.308 242.923C496.585 242.144 495.35 239.965 496.264 238.31C498.829 233.664 493.553 227.792 491.208 223.031C484.895 210.21 477.376 198.019 468.755 186.621C468.203 186.035 467.857 185.285 467.77 184.484L472.057 184.627C470.61 179.435 468.222 173.754 463.177 171.855C460.335 170.785 457.187 171.155 454.154 171.32C445.467 171.795 436.155 170.484 427.557 169.154Z" fill="#2C2C2C"/>
<path d="M455.509 52.1614C457.782 54.5751 460.33 57.1341 463.619 57.5548C469.428 58.2979 473.604 52.2915 476.264 47.0743C476.362 48.4043 476.976 49.6435 477.974 50.5283C478.972 51.4131 480.276 51.8736 481.608 51.8119C483.042 51.5707 484.411 51.0357 485.628 50.2406C497.138 43.9515 510.029 40.6193 523.145 40.5432C523.019 39.5498 523.266 38.5449 523.837 37.7225C524.408 36.9001 525.264 36.3184 526.239 36.0896C528.906 35.561 531.308 37.8663 532.595 40.261C533.881 42.6557 534.683 45.4313 536.727 47.2238C538.771 49.0163 542.728 48.9382 543.535 46.3425C544.31 43.8506 541.714 41.7254 539.557 40.2562C537.399 38.7871 535.126 36.0679 536.578 33.8997C547.599 31.4606 558.687 29.0123 569.964 28.5275C571.884 28.5943 573.797 28.2648 575.584 27.5595C577.303 26.7157 578.67 24.8003 578.208 22.9416C575.747 23.52 573.17 23.3525 570.804 22.4604C568.439 21.5684 566.393 19.9922 564.927 17.9329C580.574 16.6419 597.217 15.5415 611.084 22.9031C612.748 26.4749 604.267 29.4466 606.536 32.6682C607.259 33.6957 608.71 33.8162 609.966 33.8395C619.602 34.0184 629.294 34.1938 638.822 32.7392C642.304 32.2076 645.82 31.4572 649.316 31.8882C655.138 32.6062 660.118 36.4906 665.846 37.7571C668.178 38.2725 670.792 38.29 672.757 36.9341C674.723 35.5783 675.567 32.491 673.957 30.7284C679.35 25.4432 688.301 26.7531 695.416 29.2834C702.531 31.8137 709.272 35.8942 716.802 36.4582C722.202 36.8627 727.678 35.4103 733.013 36.3335C736.367 36.9136 739.487 38.4051 742.765 39.3214C748.963 41.0546 755.52 40.6887 761.955 40.7721C778.375 40.9933 794.616 44.2201 809.874 50.2926C811.858 50.9388 813.677 52.013 815.201 53.4395C816.62 54.9596 817.344 57.3217 816.39 59.1698L800.624 56.8665C802.11 59.7903 805.952 60.2886 809.073 61.2973C812.194 62.3059 815.43 65.7519 813.555 68.4423C810.173 67.3658 807.109 70.7462 805.401 73.8564C803.692 76.9666 801.611 80.6915 798.067 80.8809C794.894 81.0506 791.056 78.3489 788.988 80.7611C791.845 84.3656 794.292 88.2772 796.283 92.4235C798.327 96.6802 799.782 102.044 797.02 105.874C796.586 106.557 795.927 107.068 795.156 107.319C792.901 107.89 791.435 105.131 789.817 103.458C787.779 101.351 784.696 100.754 781.936 99.7658C779.175 98.7775 776.267 96.8333 776.051 93.9095C775.917 92.0903 776.877 90.3993 777.585 88.718C778.774 85.8841 779.294 82.8143 779.105 79.7469C778.95 77.2792 778.258 74.7122 776.485 72.988C774.713 71.2637 771.653 70.7168 769.75 72.296C768.862 73.0328 768.151 74.2115 766.997 74.2556C764.96 74.3335 763.396 70.7821 761.757 71.9944C761.949 73.2861 761.681 74.6043 761 75.7186C756.109 79.9719 748.595 78.1725 742.29 79.675C739.291 80.533 736.42 81.7865 733.753 83.4025C732.755 83.8291 731.906 84.5417 731.313 85.4504C730.526 86.9797 731.394 88.9384 732.781 89.9553C734.252 90.8576 735.906 91.4218 737.622 91.6073C745.309 93.0631 753.108 95.3166 759.177 100.254C765.247 105.19 769.227 113.352 767.306 120.935L752.146 106.452C752.722 112.533 753.049 118.631 753.127 124.746C753.225 125.94 753.061 127.141 752.646 128.265C751.565 130.651 748.636 131.455 746.069 131.982C745.356 132.117 744.678 132.402 744.083 132.818C743.487 133.234 742.985 133.771 742.612 134.394C742.238 135.018 742.001 135.713 741.915 136.434C741.83 137.156 741.898 137.887 742.115 138.581C743.027 141.553 745.301 143.87 747.383 146.179C749.465 148.488 751.514 151.112 751.786 154.209C752.059 157.306 749.722 160.797 746.62 160.581C744.269 160.418 742.524 158.313 741.521 156.181C740.518 154.048 739.922 151.672 738.415 149.86C733.854 144.375 723.609 146.725 719.523 140.878C718.481 142.059 717.759 143.487 717.424 145.026C717.09 146.565 717.154 148.163 717.612 149.67C719.513 148.481 722.115 149.586 723.543 151.315C724.971 153.044 725.645 155.26 726.767 157.202C728.28 159.823 730.689 162.145 730.9 165.164C730.844 166.305 730.863 167.449 730.958 168.588C731.333 170.417 732.879 171.73 733.951 173.259C736.445 176.816 736.322 181.703 734.714 185.739C733.107 189.775 730.218 193.147 727.358 196.417C722.361 202.128 717.262 207.805 711.338 212.548C709.648 213.901 707.844 215.232 706.791 217.124C705.738 219.016 705.684 221.672 707.302 223.111C706.145 223.169 704.069 223.738 702.911 223.796C702.504 219.153 702.416 214.487 702.646 209.832C698.078 207.639 693.16 213.513 693.749 218.545C694.339 223.577 697.979 227.616 700.571 231.97C702.466 235.153 703.875 238.866 703.242 242.517C702.609 246.167 699.35 249.535 695.658 249.213C689.786 248.701 687.33 240.272 681.515 239.308C681.002 239.187 680.464 239.241 679.985 239.46C679.122 239.933 678.972 241.088 678.923 242.071C678.685 246.897 678.479 251.915 680.364 256.365C683.12 262.874 690.241 268.341 688.747 275.25C680.7 271.51 676.517 262.488 674.617 253.821C672.717 245.154 672.401 236.056 668.996 227.862C666.41 231.176 660.976 228.437 658.613 224.961C656.374 221.665 654.995 217.853 652.822 214.513C650.649 211.173 647.32 208.182 643.339 207.998C639.166 207.806 635.546 210.669 632.363 213.375C629.745 215.6 627.058 217.913 625.528 220.989C623.301 225.464 623.884 230.741 623.776 235.738C623.66 241.141 622.515 246.842 618.832 250.797C615.149 254.752 608.352 256.13 604.289 252.565C602.169 250.704 601.142 247.924 600.227 245.255C595.818 232.389 592.147 219.283 589.23 205.999C588.547 209.031 585.884 212.939 583.341 211.153C582.77 210.673 582.308 210.077 581.984 209.405C577.24 201.364 568.453 196.542 559.575 193.65C550.697 190.758 541.357 189.409 532.578 186.231C527.658 184.449 522.959 182.109 518.573 179.256C517.455 180.898 516.802 182.813 516.683 184.796C516.565 186.779 516.985 188.758 517.9 190.521C519.847 193.969 524.254 195.964 528.026 194.759C529.976 194.136 531.622 192.783 533.556 192.115C535.49 191.446 538.087 191.775 538.932 193.638C539.742 195.421 538.518 197.579 539.125 199.441C540.05 202.277 544.328 202.496 545.824 205.077C546.937 206.997 546.021 209.547 544.432 211.097C542.843 212.646 540.722 213.496 538.782 214.575C532.488 218.075 528.011 224.049 522.51 228.698C517.009 233.346 509.247 236.74 502.691 233.758C504.254 225.846 494.827 220.037 493.093 212.16C492.522 209.567 492.818 206.813 492.003 204.287C490.824 200.629 487.578 198.114 484.915 195.342C481.686 191.943 479.17 187.932 477.516 183.545C475.862 179.159 475.103 174.485 475.285 169.8C475.429 166.545 476.027 163.237 475.285 160.064C474.544 156.891 471.916 153.82 468.66 153.964C461.224 154.292 451.857 154.845 447.955 148.507C446.563 146.245 445.957 142.932 447.97 141.199C449.39 139.976 451.487 140.091 453.352 140.275L470.106 141.923C474.025 142.308 478.261 142.626 481.623 140.578C484.986 138.529 486.443 133.092 483.329 130.682C481.054 128.922 476.978 129.017 476.317 126.217C475.766 123.886 478.347 121.24 476.953 119.292C475.954 117.894 473.706 118.282 472.344 119.329C470.983 120.377 469.995 121.909 468.471 122.702C465.797 124.093 462.603 122.769 459.726 121.869C456.85 120.969 452.994 120.893 451.599 123.564C450.039 126.551 452.983 130.466 451.434 133.459C449.387 137.417 442.454 135.164 439.579 138.568C436.28 142.474 441.824 148.299 440.711 153.29C439.291 153.993 437.712 154.316 436.129 154.227C434.547 154.139 433.014 153.641 431.681 152.783C430.371 151.891 429.326 150.661 428.658 149.223C427.991 147.785 427.726 146.194 427.891 144.617C428.167 142.372 429.337 140.081 428.553 137.959C427.919 136.244 426.196 135.223 424.595 134.338L408.314 125.342C406.802 128.146 408.713 131.622 411.103 133.728C413.493 135.834 416.487 137.42 418.057 140.192C419.05 142.112 419.273 144.339 418.679 146.417C418.086 148.496 416.721 150.27 414.864 151.377C414.631 151.538 414.367 151.646 414.088 151.694C413.809 151.743 413.524 151.731 413.25 151.658C412.991 151.506 412.764 151.303 412.584 151.061C412.404 150.819 412.275 150.544 412.204 150.251C409.331 142.9 405.018 135.653 398.122 131.813C391.227 127.974 381.318 128.763 376.796 135.231C375.722 136.768 375.002 138.519 374.066 140.143C369.095 148.773 358.438 152.86 348.482 152.593C347.508 152.647 346.539 152.419 345.691 151.937C344.082 150.826 344.154 148.468 344.401 146.528L345.446 138.296C345.656 136.643 345.96 134.816 347.268 133.784C349.113 132.33 351.774 133.248 354.123 133.214C355.902 133.13 357.613 132.502 359.023 131.414C360.434 130.325 361.475 128.83 362.007 127.13C362.481 125.413 362.478 123.599 361.998 121.884C361.518 120.168 360.579 118.617 359.282 117.396C358.205 116.384 356.76 115.114 357.329 113.751C357.555 113.374 357.862 113.052 358.227 112.806C358.592 112.56 359.007 112.397 359.441 112.329C363.661 111.104 368.119 110.783 372.268 109.337C376.417 107.892 380.44 104.934 381.423 100.652C381.724 99.34 381.861 97.7505 383.04 97.0999C383.631 96.8502 384.267 96.7205 384.909 96.7182C387.158 96.3982 389.206 95.2479 390.65 93.4937C392.093 91.7395 392.828 89.5084 392.709 87.2399C394.697 85.8507 397.483 86.8726 399.406 88.3501C401.33 89.8277 403.028 91.7799 405.369 92.4168C409.731 93.6038 413.946 89.7423 418.467 89.7244C420.368 89.7168 422.335 90.3889 424.124 89.7445C425.937 89.0912 427.02 87.2866 428.411 85.9534C429.803 84.6203 432.244 83.8071 433.529 85.2433L432.435 77.1397C434.639 77.6963 436.936 77.7751 439.172 77.3708C441.409 76.9665 443.533 76.0885 445.402 74.7957L431.261 70.0182C430.768 69.8953 430.314 69.6525 429.938 69.3113C428.91 68.2044 429.931 66.4795 430.767 65.2212C432.767 62.2111 433.103 57.2527 429.814 55.7541C427.569 54.7312 424.993 55.959 422.838 57.1603L412.517 62.9145C412.189 64.8761 414.588 65.9878 416.075 67.3092C416.974 68.1086 417.611 69.1614 417.901 70.3292C418.191 71.497 418.121 72.7253 417.7 73.8526C417.279 74.98 416.527 75.9537 415.543 76.6459C414.559 77.3381 413.388 77.7164 412.185 77.7312C412.864 78.6147 413.336 79.6397 413.566 80.7304C413.796 81.8211 413.778 82.9496 413.512 84.0321L406.568 84.5315C405.788 84.6883 404.979 84.5303 404.315 84.092C403.573 83.4324 403.673 82.2766 403.501 81.2984C403.086 78.9375 400.774 77.2827 398.414 76.8584C396.054 76.4341 393.64 76.978 391.304 77.515C390.311 77.872 389.222 77.8468 388.247 77.4444C387.688 77.0814 387.264 76.5454 387.038 75.9184C386.014 73.4349 386.971 70.5157 388.616 68.3918C390.262 66.268 392.514 64.7154 394.537 62.9473C399.374 58.7035 402.928 53.1917 404.797 47.0346C408.62 45.4331 412.578 43.257 416.401 41.6555C422.295 38.6718 428.904 37.3914 435.486 37.9582L448.432 38.2055C452.265 38.2787 456.202 38.3725 459.747 39.8336C463.291 41.2947 466.405 44.4548 466.65 48.2803C466.724 48.7134 466.686 49.1581 466.541 49.5727C466.396 49.9874 466.148 50.3583 465.82 50.6508C465.319 50.9239 464.752 51.0517 464.183 51.0197C460.608 51.1453 459.084 52.0359 455.509 52.1614Z" fill="#2C2C2C"/>
<path d="M352.317 92.7311C352.823 92.2523 353.187 91.6435 353.37 90.9714C353.552 90.2993 353.545 89.59 353.351 88.9214C352.12 88.4465 350.781 88.3246 349.484 88.5693C348.188 88.8141 346.986 89.4158 346.013 90.3068C345.246 91.0825 344.585 91.9562 344.047 92.9052C342.346 95.6804 340.841 98.9953 341.827 102.097C341.908 102.436 342.055 102.755 342.26 103.035C342.465 103.316 342.724 103.553 343.022 103.732C343.464 103.909 343.941 103.984 344.416 103.95C346.29 103.948 348.162 103.833 350.022 103.605C351.165 103.465 352.491 103.143 352.933 102.08C353.513 100.683 352.109 99.1022 352.518 97.646C352.788 96.9948 353.196 96.4102 353.714 95.933C353.972 95.6927 354.17 95.3958 354.292 95.0658C354.414 94.7357 354.458 94.3817 354.42 94.0318C354.255 93.3485 353.208 92.9609 352.832 93.5545" fill="#2C2C2C"/>
<path d="M362.036 80.1331C360.371 79.7509 358.655 79.6432 356.955 79.8141C356.579 79.8029 356.207 79.8876 355.873 80.0601C355.549 80.2988 355.314 80.6388 355.206 81.0261C354.847 82.1781 354.935 83.423 355.453 84.5129C355.971 85.6028 356.88 86.4577 358 86.9072C358.61 87.0475 359.195 87.2824 359.733 87.6035C361.17 88.7182 360.254 90.9968 360.526 92.7948C360.831 94.8139 362.786 96.5087 362.427 98.519C362.145 100.103 360.453 101.357 360.726 102.942C361.011 104.603 363.118 105.102 364.798 105.235C365.772 105.406 366.774 105.291 367.684 104.904C368.596 104.281 369.244 103.342 369.504 102.268C370.192 100.221 370.481 98.0617 370.356 95.906C370.348 94.9256 370.102 93.9617 369.638 93.0978C369.132 92.4135 368.572 91.7715 367.962 91.1781C364.743 87.4347 368.132 81.8509 362.036 80.1331Z" fill="#2C2C2C"/>
<path d="M540 141C540.733 141 541.361 140.739 541.884 140.216C542.407 139.694 542.668 139.066 542.667 138.334C542.667 137.6 542.405 136.972 541.883 136.45C541.36 135.927 540.733 135.666 540 135.667C539.267 135.667 538.639 135.928 538.116 136.451C537.593 136.974 537.333 137.601 537.333 138.334C537.333 139.067 537.595 139.695 538.117 140.218C538.64 140.74 539.268 141.001 540 141ZM540 150.8C542.711 148.311 544.722 146.05 546.033 144.016C547.345 141.983 548 140.177 548 138.6C548 136.178 547.228 134.195 545.683 132.651C544.138 131.107 542.244 130.335 540 130.334C537.756 130.334 535.861 131.106 534.316 132.651C532.771 134.196 531.999 136.179 532 138.6C532 140.178 532.656 141.984 533.967 144.018C535.278 146.051 537.289 148.312 540 150.8ZM540 153.834C539.822 153.834 539.645 153.8 539.467 153.734C539.289 153.667 539.133 153.578 539 153.467C535.756 150.6 533.333 147.939 531.733 145.483C530.133 143.027 529.333 140.733 529.333 138.6C529.333 135.267 530.406 132.611 532.551 130.634C534.696 128.656 537.179 127.667 540 127.667C542.822 127.667 545.306 128.656 547.451 130.634C549.596 132.611 550.668 135.267 550.667 138.6C550.667 140.734 549.867 143.028 548.267 145.484C546.667 147.94 544.245 150.601 541 153.467C540.867 153.578 540.711 153.667 540.533 153.734C540.356 153.8 540.178 153.834 540 153.834Z" fill="#FF9F1C"/>
<path d="M459.208 120C458.92 120 458.696 119.925 458.536 119.776C458.387 119.616 458.312 119.392 458.312 119.104V109.616C458.312 109.328 458.387 109.109 458.536 108.96C458.696 108.8 458.92 108.72 459.208 108.72H465.048C465.272 108.72 465.443 108.779 465.56 108.896C465.677 109.003 465.736 109.163 465.736 109.376C465.736 109.6 465.677 109.771 465.56 109.888C465.443 110.005 465.272 110.064 465.048 110.064H459.912V113.6H464.696C464.931 113.6 465.101 113.659 465.208 113.776C465.325 113.893 465.384 114.059 465.384 114.272C465.384 114.496 465.325 114.667 465.208 114.784C465.101 114.891 464.931 114.944 464.696 114.944H459.912V118.656H465.048C465.272 118.656 465.443 118.715 465.56 118.832C465.677 118.949 465.736 119.115 465.736 119.328C465.736 119.552 465.677 119.723 465.56 119.84C465.443 119.947 465.272 120 465.048 120H459.208ZM470.2 120.144C469.731 120.144 469.245 120.091 468.744 119.984C468.253 119.877 467.8 119.696 467.384 119.44C467.245 119.344 467.149 119.237 467.096 119.12C467.043 119.003 467.021 118.885 467.032 118.768C467.053 118.64 467.101 118.533 467.176 118.448C467.261 118.352 467.363 118.293 467.48 118.272C467.608 118.251 467.741 118.277 467.88 118.352C468.296 118.587 468.696 118.752 469.08 118.848C469.464 118.933 469.843 118.976 470.216 118.976C470.781 118.976 471.208 118.875 471.496 118.672C471.784 118.469 471.928 118.197 471.928 117.856C471.928 117.579 471.832 117.365 471.64 117.216C471.448 117.056 471.16 116.933 470.776 116.848L469.256 116.544C468.595 116.405 468.093 116.16 467.752 115.808C467.411 115.456 467.24 115.008 467.24 114.464C467.24 113.973 467.373 113.547 467.64 113.184C467.907 112.821 468.28 112.544 468.76 112.352C469.24 112.149 469.795 112.048 470.424 112.048C470.893 112.048 471.336 112.107 471.752 112.224C472.168 112.341 472.552 112.517 472.904 112.752C473.043 112.827 473.133 112.928 473.176 113.056C473.219 113.173 473.224 113.291 473.192 113.408C473.171 113.525 473.117 113.632 473.032 113.728C472.947 113.813 472.84 113.867 472.712 113.888C472.595 113.899 472.461 113.867 472.312 113.792C471.992 113.589 471.672 113.445 471.352 113.36C471.043 113.275 470.733 113.232 470.424 113.232C469.859 113.232 469.432 113.339 469.144 113.552C468.867 113.755 468.728 114.032 468.728 114.384C468.728 114.651 468.813 114.869 468.984 115.04C469.155 115.211 469.421 115.333 469.784 115.408L471.304 115.712C471.997 115.851 472.52 116.085 472.872 116.416C473.235 116.747 473.416 117.195 473.416 117.76C473.416 118.496 473.123 119.077 472.536 119.504C471.949 119.931 471.171 120.144 470.2 120.144ZM476.494 120.112C476.238 120.112 476.035 120.043 475.886 119.904C475.747 119.755 475.678 119.552 475.678 119.296V113.44H474.782C474.579 113.44 474.419 113.387 474.302 113.28C474.185 113.163 474.126 113.008 474.126 112.816C474.126 112.613 474.185 112.459 474.302 112.352C474.419 112.245 474.579 112.192 474.782 112.192H476.142L475.678 112.624V112.048C475.678 110.992 475.939 110.197 476.462 109.664C476.985 109.12 477.747 108.8 478.75 108.704L479.246 108.672C479.427 108.651 479.571 108.677 479.678 108.752C479.785 108.827 479.854 108.923 479.886 109.04C479.918 109.157 479.918 109.28 479.886 109.408C479.865 109.525 479.811 109.632 479.726 109.728C479.641 109.824 479.534 109.877 479.406 109.888L479.102 109.904C478.473 109.957 478.014 110.139 477.726 110.448C477.438 110.747 477.294 111.205 477.294 111.824V112.448L477.07 112.192H478.846C479.07 112.192 479.235 112.245 479.342 112.352C479.459 112.459 479.518 112.613 479.518 112.816C479.518 113.008 479.459 113.163 479.342 113.28C479.235 113.387 479.07 113.44 478.846 113.44H477.294V119.296C477.294 119.84 477.027 120.112 476.494 120.112ZM483.179 120.144C482.635 120.144 482.144 120.037 481.707 119.824C481.28 119.611 480.944 119.323 480.699 118.96C480.454 118.597 480.331 118.187 480.331 117.728C480.331 117.152 480.475 116.699 480.763 116.368C481.062 116.027 481.547 115.787 482.219 115.648C482.902 115.499 483.819 115.424 484.971 115.424H485.723V116.416H484.987C484.219 116.416 483.611 116.453 483.163 116.528C482.715 116.603 482.395 116.731 482.203 116.912C482.022 117.083 481.931 117.323 481.931 117.632C481.931 118.037 482.07 118.368 482.347 118.624C482.624 118.869 483.008 118.992 483.499 118.992C483.894 118.992 484.24 118.901 484.539 118.72C484.838 118.528 485.072 118.272 485.243 117.952C485.424 117.632 485.515 117.264 485.515 116.848V115.008C485.515 114.4 485.387 113.963 485.131 113.696C484.875 113.429 484.454 113.296 483.867 113.296C483.526 113.296 483.168 113.339 482.795 113.424C482.432 113.509 482.054 113.653 481.659 113.856C481.478 113.941 481.323 113.968 481.195 113.936C481.067 113.904 480.966 113.835 480.891 113.728C480.816 113.611 480.774 113.488 480.763 113.36C480.763 113.221 480.795 113.088 480.859 112.96C480.934 112.832 481.056 112.736 481.227 112.672C481.696 112.448 482.16 112.288 482.619 112.192C483.078 112.096 483.51 112.048 483.915 112.048C484.63 112.048 485.216 112.16 485.675 112.384C486.144 112.608 486.491 112.949 486.715 113.408C486.939 113.867 487.051 114.459 487.051 115.184V119.296C487.051 119.552 486.987 119.755 486.859 119.904C486.731 120.043 486.544 120.112 486.299 120.112C486.064 120.112 485.878 120.043 485.739 119.904C485.6 119.755 485.531 119.552 485.531 119.296V118.256H485.675C485.59 118.651 485.43 118.992 485.195 119.28C484.971 119.557 484.688 119.771 484.347 119.92C484.006 120.069 483.616 120.144 483.179 120.144ZM490.077 120.112C489.821 120.112 489.623 120.043 489.485 119.904C489.346 119.755 489.277 119.552 489.277 119.296V109.424C489.277 109.157 489.346 108.955 489.485 108.816C489.623 108.677 489.821 108.608 490.077 108.608C490.333 108.608 490.53 108.677 490.669 108.816C490.818 108.955 490.893 109.157 490.893 109.424V113.856H490.669C490.903 113.259 491.271 112.811 491.773 112.512C492.274 112.203 492.85 112.048 493.501 112.048C494.119 112.048 494.631 112.165 495.037 112.4C495.453 112.624 495.762 112.971 495.965 113.44C496.167 113.899 496.269 114.48 496.269 115.184V119.296C496.269 119.552 496.199 119.755 496.061 119.904C495.922 120.043 495.725 120.112 495.469 120.112C495.202 120.112 494.999 120.043 494.861 119.904C494.722 119.755 494.653 119.552 494.653 119.296V115.28C494.653 114.608 494.519 114.117 494.253 113.808C493.997 113.499 493.591 113.344 493.037 113.344C492.386 113.344 491.863 113.547 491.469 113.952C491.085 114.357 490.893 114.901 490.893 115.584V119.296C490.893 119.84 490.621 120.112 490.077 120.112ZM500.991 120.144C500.447 120.144 499.957 120.037 499.519 119.824C499.093 119.611 498.757 119.323 498.511 118.96C498.266 118.597 498.143 118.187 498.143 117.728C498.143 117.152 498.287 116.699 498.575 116.368C498.874 116.027 499.359 115.787 500.031 115.648C500.714 115.499 501.631 115.424 502.783 115.424H503.535V116.416H502.799C502.031 116.416 501.423 116.453 500.975 116.528C500.527 116.603 500.207 116.731 500.015 116.912C499.834 117.083 499.743 117.323 499.743 117.632C499.743 118.037 499.882 118.368 500.159 118.624C500.437 118.869 500.821 118.992 501.311 118.992C501.706 118.992 502.053 118.901 502.351 118.72C502.65 118.528 502.885 118.272 503.055 117.952C503.237 117.632 503.327 117.264 503.327 116.848V115.008C503.327 114.4 503.199 113.963 502.943 113.696C502.687 113.429 502.266 113.296 501.679 113.296C501.338 113.296 500.981 113.339 500.607 113.424C500.245 113.509 499.866 113.653 499.471 113.856C499.29 113.941 499.135 113.968 499.007 113.936C498.879 113.904 498.778 113.835 498.703 113.728C498.629 113.611 498.586 113.488 498.575 113.36C498.575 113.221 498.607 113.088 498.671 112.96C498.746 112.832 498.869 112.736 499.039 112.672C499.509 112.448 499.973 112.288 500.431 112.192C500.89 112.096 501.322 112.048 501.727 112.048C502.442 112.048 503.029 112.16 503.487 112.384C503.957 112.608 504.303 112.949 504.527 113.408C504.751 113.867 504.863 114.459 504.863 115.184V119.296C504.863 119.552 504.799 119.755 504.671 119.904C504.543 120.043 504.357 120.112 504.111 120.112C503.877 120.112 503.69 120.043 503.551 119.904C503.413 119.755 503.343 119.552 503.343 119.296V118.256H503.487C503.402 118.651 503.242 118.992 503.007 119.28C502.783 119.557 502.501 119.771 502.159 119.92C501.818 120.069 501.429 120.144 500.991 120.144ZM507.889 120.112C507.633 120.112 507.436 120.043 507.297 119.904C507.158 119.755 507.089 119.552 507.089 119.296V112.896C507.089 112.629 507.158 112.427 507.297 112.288C507.436 112.149 507.628 112.08 507.873 112.08C508.129 112.08 508.321 112.149 508.449 112.288C508.588 112.427 508.657 112.629 508.657 112.896V114.144L508.481 113.856C508.716 113.259 509.084 112.811 509.585 112.512C510.086 112.203 510.662 112.048 511.313 112.048C511.932 112.048 512.444 112.165 512.849 112.4C513.265 112.624 513.574 112.971 513.777 113.44C513.98 113.899 514.081 114.48 514.081 115.184V119.296C514.081 119.552 514.012 119.755 513.873 119.904C513.734 120.043 513.537 120.112 513.281 120.112C513.014 120.112 512.812 120.043 512.673 119.904C512.534 119.755 512.465 119.552 512.465 119.296V115.28C512.465 114.608 512.332 114.117 512.065 113.808C511.809 113.499 511.404 113.344 510.849 113.344C510.198 113.344 509.676 113.547 509.281 113.952C508.897 114.357 508.705 114.901 508.705 115.584V119.296C508.705 119.84 508.433 120.112 507.889 120.112ZM517.268 121.616C517.151 121.765 517.023 121.851 516.884 121.872C516.756 121.893 516.644 121.867 516.548 121.792C516.452 121.717 516.399 121.611 516.388 121.472C516.377 121.344 516.436 121.2 516.564 121.04C516.756 120.805 516.884 120.56 516.948 120.304C517.023 120.059 517.06 119.84 517.06 119.648L517.124 120.064C516.804 120.064 516.543 119.973 516.34 119.792C516.148 119.6 516.052 119.349 516.052 119.04C516.052 118.741 516.143 118.501 516.324 118.32C516.505 118.128 516.751 118.032 517.06 118.032C517.38 118.032 517.631 118.144 517.812 118.368C518.004 118.581 518.1 118.891 518.1 119.296C518.1 119.531 518.073 119.776 518.02 120.032C517.977 120.288 517.897 120.549 517.78 120.816C517.663 121.083 517.492 121.349 517.268 121.616ZM525.332 120.112C525.065 120.112 524.857 120.037 524.708 119.888C524.569 119.739 524.5 119.531 524.5 119.264V109.456C524.5 109.179 524.569 108.971 524.708 108.832C524.857 108.683 525.065 108.608 525.332 108.608C525.598 108.608 525.801 108.683 525.94 108.832C526.089 108.971 526.164 109.179 526.164 109.456V119.264C526.164 119.531 526.094 119.739 525.956 119.888C525.817 120.037 525.609 120.112 525.332 120.112ZM529.421 120.112C529.154 120.112 528.951 120.043 528.813 119.904C528.674 119.755 528.605 119.552 528.605 119.296V112.896C528.605 112.629 528.674 112.427 528.813 112.288C528.951 112.149 529.143 112.08 529.389 112.08C529.645 112.08 529.837 112.149 529.965 112.288C530.103 112.427 530.173 112.629 530.173 112.896V114.064H530.013C530.183 113.424 530.498 112.939 530.957 112.608C531.415 112.277 532.002 112.085 532.717 112.032C532.909 112.021 533.058 112.069 533.165 112.176C533.282 112.283 533.346 112.448 533.357 112.672C533.378 112.896 533.33 113.077 533.213 113.216C533.095 113.344 532.914 113.419 532.669 113.44L532.365 113.472C531.671 113.536 531.143 113.755 530.781 114.128C530.418 114.501 530.237 115.013 530.237 115.664V119.296C530.237 119.552 530.167 119.755 530.029 119.904C529.901 120.043 529.698 120.112 529.421 120.112ZM536.991 120.144C536.447 120.144 535.957 120.037 535.519 119.824C535.093 119.611 534.757 119.323 534.511 118.96C534.266 118.597 534.143 118.187 534.143 117.728C534.143 117.152 534.287 116.699 534.575 116.368C534.874 116.027 535.359 115.787 536.031 115.648C536.714 115.499 537.631 115.424 538.783 115.424H539.535V116.416H538.799C538.031 116.416 537.423 116.453 536.975 116.528C536.527 116.603 536.207 116.731 536.015 116.912C535.834 117.083 535.743 117.323 535.743 117.632C535.743 118.037 535.882 118.368 536.159 118.624C536.437 118.869 536.821 118.992 537.311 118.992C537.706 118.992 538.053 118.901 538.351 118.72C538.65 118.528 538.885 118.272 539.055 117.952C539.237 117.632 539.327 117.264 539.327 116.848V115.008C539.327 114.4 539.199 113.963 538.943 113.696C538.687 113.429 538.266 113.296 537.679 113.296C537.338 113.296 536.981 113.339 536.607 113.424C536.245 113.509 535.866 113.653 535.471 113.856C535.29 113.941 535.135 113.968 535.007 113.936C534.879 113.904 534.778 113.835 534.703 113.728C534.629 113.611 534.586 113.488 534.575 113.36C534.575 113.221 534.607 113.088 534.671 112.96C534.746 112.832 534.869 112.736 535.039 112.672C535.509 112.448 535.973 112.288 536.431 112.192C536.89 112.096 537.322 112.048 537.727 112.048C538.442 112.048 539.029 112.16 539.487 112.384C539.957 112.608 540.303 112.949 540.527 113.408C540.751 113.867 540.863 114.459 540.863 115.184V119.296C540.863 119.552 540.799 119.755 540.671 119.904C540.543 120.043 540.357 120.112 540.111 120.112C539.877 120.112 539.69 120.043 539.551 119.904C539.413 119.755 539.343 119.552 539.343 119.296V118.256H539.487C539.402 118.651 539.242 118.992 539.007 119.28C538.783 119.557 538.501 119.771 538.159 119.92C537.818 120.069 537.429 120.144 536.991 120.144ZM543.889 120.112C543.633 120.112 543.436 120.043 543.297 119.904C543.158 119.755 543.089 119.552 543.089 119.296V112.896C543.089 112.629 543.158 112.427 543.297 112.288C543.436 112.149 543.628 112.08 543.873 112.08C544.129 112.08 544.321 112.149 544.449 112.288C544.588 112.427 544.657 112.629 544.657 112.896V114.144L544.481 113.856C544.716 113.259 545.084 112.811 545.585 112.512C546.086 112.203 546.662 112.048 547.313 112.048C547.932 112.048 548.444 112.165 548.849 112.4C549.265 112.624 549.574 112.971 549.777 113.44C549.98 113.899 550.081 114.48 550.081 115.184V119.296C550.081 119.552 550.012 119.755 549.873 119.904C549.734 120.043 549.537 120.112 549.281 120.112C549.014 120.112 548.812 120.043 548.673 119.904C548.534 119.755 548.465 119.552 548.465 119.296V115.28C548.465 114.608 548.332 114.117 548.065 113.808C547.809 113.499 547.404 113.344 546.849 113.344C546.198 113.344 545.676 113.547 545.281 113.952C544.897 114.357 544.705 114.901 544.705 115.584V119.296C544.705 119.84 544.433 120.112 543.889 120.112Z" fill="#FF9F1C"/>
</g>
<defs>
<clipPath id="clip0_913_1945">
<rect width="630" height="499" fill="white"/>
</clipPath>
</defs>
</svg>
