<svg width="256" height="256" viewBox="0 0 256 256" fill="none" xmlns="http://www.w3.org/2000/svg">
<rect width="256" height="256" rx="40" fill="#242938"/>
<path d="M34 127.668C34 110.547 38.2802 94.6852 46.7567 80.1661C55.2331 65.647 66.7309 54.1492 81.25 45.6727C95.7691 37.1963 111.547 33 128.584 33C141.341 33 153.594 35.5178 165.259 40.4694C176.925 45.421 186.912 52.2189 195.389 60.6115C203.865 69.004 210.579 79.075 215.531 90.8246C220.482 102.574 223 114.743 223 127.668C223 140.425 220.482 152.678 215.531 164.343C210.579 176.009 203.781 186.08 195.389 194.472C186.996 202.865 176.925 209.579 165.259 214.531C153.594 219.482 141.425 222 128.584 222C115.743 222 103.406 219.482 91.7407 214.531C80.075 209.579 70.004 202.781 61.5275 194.389C53.0511 185.996 46.421 175.925 41.3854 164.343C36.3499 152.762 34 140.508 34 127.668ZM54.8135 127.668C54.8135 147.558 62.0311 164.847 76.5502 179.534C91.0693 194.053 108.358 201.27 128.584 201.27C141.844 201.27 154.181 197.997 165.427 191.367C176.673 184.737 185.737 175.841 192.367 164.511C198.997 153.181 202.354 140.928 202.354 127.668C202.354 114.408 198.997 102.071 192.367 90.7407C185.737 79.4107 176.757 70.4307 165.427 63.8006C154.097 57.1705 141.844 53.8974 128.584 53.8974C115.324 53.8974 102.987 57.1705 91.7407 63.8006C80.4947 70.4307 71.4307 79.4107 64.7167 90.7407C58.0027 102.071 54.8135 114.408 54.8135 127.668ZM121.282 127.668V71.7735C121.282 69.8433 121.954 68.1647 123.297 66.8219C124.639 65.4791 126.318 64.8077 128.248 64.8077C130.179 64.8077 131.857 65.4791 133.2 66.8219C134.543 68.1647 135.214 69.8433 135.214 71.7735V123.388L165.343 140.928C167.022 141.935 168.029 143.362 168.532 145.208C169.036 147.055 168.784 148.817 167.777 150.412C166.434 152.762 164.42 153.937 161.734 153.937C160.308 153.937 159.133 153.601 158.21 152.929L126.15 134.214C124.723 133.794 123.548 132.955 122.625 131.78C121.702 130.605 121.282 129.262 121.282 127.668Z" fill="#92BFFE"/>
</svg>
