<svg width="256" height="256" viewBox="0 0 256 256" fill="none" xmlns="http://www.w3.org/2000/svg">
<rect width="256" height="256" rx="40" fill="#242938"/>
<path d="M127.474 29C119.196 29.0237 110.952 30.0723 102.931 32.122C64.3228 41.7277 33.692 76.7391 29.7569 116.45C24.8896 154.014 43.8555 193.138 76.3178 212.539C108.17 232.51 151.332 231.701 182.523 210.698C210.547 192.477 227.995 159.258 226.956 125.75C226.478 92.5805 207.899 60.369 179.438 43.3217C163.929 33.7491 145.689 28.9339 127.482 29.0083L127.474 29ZM126.954 43.0079C167.748 42.95 207.71 74.5008 211.777 116.714C219.573 163.462 180.816 210.978 133.504 212.358C88.5107 216.851 45.0352 178.659 43.7483 133.423C40.3989 96.801 64.5126 60.4516 99.0043 48.3517C107.897 44.8082 117.383 42.9889 126.954 43.0079ZM168.953 69.636C146.786 86.8568 125.56 105.217 103.872 122.967C113.796 123.107 123.77 123.099 133.743 123.049C145.375 105.168 157.337 87.534 168.953 69.636ZM122.219 132.853C110.587 150.743 98.6248 168.443 86.9928 186.324C109.209 169.145 130.345 150.644 152.181 133.002C142.194 132.881 132.206 132.832 122.219 132.853Z" fill="#7CDE00"/>
</svg>
