<svg width="26" height="26" viewBox="0 0 26 26" fill="none" xmlns="http://www.w3.org/2000/svg">
<path d="M13.0297 26C9.38619 26 6.30347 24.739 3.7815 22.2171C1.2605 19.6962 0 16.614 0 12.9706C0 9.64086 1.08581 6.75122 3.25742 4.3017C5.42903 1.85313 8.20387 0.423757 11.5819 0.0135723C12.1852 -0.0588133 12.6557 0.158344 12.9935 0.665043C13.3313 1.17174 13.3192 1.70257 12.9573 2.25753C12.5471 2.88487 12.2392 3.5484 12.0336 4.24813C11.829 4.94786 11.7267 5.68378 11.7267 6.45589C11.7267 8.62746 12.4868 10.4733 14.0069 11.9934C15.527 13.5135 17.3729 14.2735 19.5445 14.2735C20.2925 14.2735 21.0347 14.165 21.7711 13.9478C22.5066 13.7306 23.1639 13.429 23.743 13.043C24.2497 12.7052 24.7685 12.6868 25.2993 12.988C25.8301 13.2901 26.0594 13.7668 25.987 14.4183C25.6492 17.748 24.2318 20.5108 21.735 22.7065C19.2371 24.9022 16.3354 26 13.0297 26Z" fill="#B4B4B4"/>
</svg>
