<svg width="20" height="20" viewBox="0 0 20 20" fill="none" xmlns="http://www.w3.org/2000/svg">
<g clip-path="url(#clip0_577_61)">
<path d="M18.2917 7.5H18.0667L14.6 12.5167L13.9167 12.0417L17.0584 7.5H15.1084C15.1084 7.22373 14.9986 6.95878 14.8033 6.76343C14.6079 6.56808 14.343 6.45833 14.0667 6.45833C13.7904 6.45833 13.5255 6.56808 13.3301 6.76343C13.1348 6.95878 13.025 7.22373 13.025 7.5H12.6667L11.625 10.8333L10.8334 10.5833L11.7917 7.5H11.0417C11.0417 7.22373 10.932 6.95878 10.7366 6.76343C10.5413 6.56808 10.2763 6.45833 10 6.45833C9.72377 6.45833 9.45882 6.56808 9.26347 6.76343C9.06812 6.95878 8.95837 7.22373 8.95837 7.5H8.20837L9.16671 10.5833L8.37504 10.8333L7.33337 7.5H6.98337C6.98337 7.22373 6.87363 6.95878 6.67828 6.76343C6.48293 6.56808 6.21797 6.45833 5.94171 6.45833C5.66544 6.45833 5.40049 6.56808 5.20514 6.76343C5.00979 6.95878 4.90004 7.22373 4.90004 7.5H2.92504L6.06671 12.0417L5.38337 12.5167L1.91671 7.5H1.70837C1.91472 5.44429 2.87735 3.53852 4.40948 2.15248C5.94161 0.766437 7.934 -0.00104141 10 -0.00104141C12.0661 -0.00104141 14.0585 0.766437 15.5906 2.15248C17.1227 3.53852 18.0854 5.44429 18.2917 7.5Z" fill="#3E3E3E"/>
<path d="M9.16665 12.8375L7.98832 11.6667L4.97332 14.6625L3.79498 15.8333L7.98832 20L9.16665 18.8292L6.15165 15.8333L9.16665 12.8375Z" fill="#3E3E3E"/>
<path d="M10.8508 18.8292L12.0292 20L15.0442 17.0042L16.2225 15.8333L12.0292 11.6667L10.8508 12.8375L13.8658 15.8333L10.8508 18.8292Z" fill="#3E3E3E"/>
</g>
<defs>
<clipPath id="clip0_577_61">
<rect width="20" height="20" fill="white"/>
</clipPath>
</defs>
</svg>
