<svg width="20" height="20" viewBox="0 0 20 20" fill="none" xmlns="http://www.w3.org/2000/svg">
<path fill-rule="evenodd" clip-rule="evenodd" d="M7.01247 0C4.9733 0 3.3333 1.71083 3.3333 3.80667C3.3333 5.08083 3.93997 6.2125 4.87247 6.90333C4.39187 7.2634 4.00231 7.73106 3.73503 8.26882C3.46774 8.80658 3.33015 9.39948 3.3333 10C3.3333 11.275 3.93997 12.4058 4.87247 13.0967C4.39187 13.4567 4.00231 13.9244 3.73503 14.4622C3.46774 14.9999 3.33015 15.5928 3.3333 16.1933C3.3333 18.2892 4.9733 20 7.01247 20C9.05081 20 10.6916 18.2892 10.6916 16.1933V12.975C11.3361 13.5123 12.1484 13.8069 12.9875 13.8075C15.0266 13.8067 16.6666 12.0958 16.6666 10C16.67 9.39945 16.5325 8.80648 16.2652 8.26869C15.9979 7.7309 15.6082 7.26327 15.1275 6.90333C15.6081 6.54326 15.9976 6.0756 16.2649 5.53784C16.5322 5.00008 16.6698 4.40718 16.6666 3.80667C16.6666 1.71083 15.0266 0 12.9875 0H7.01247V0ZM4.7158 3.80667C4.7158 2.48083 5.7508 1.41917 7.01247 1.41917H9.30831V6.19417H7.01247C5.7508 6.19417 4.7158 5.13167 4.7158 3.80667V3.80667ZM12.9875 6.19333H10.6916V1.41833H12.9875C14.25 1.41833 15.2841 2.48083 15.2841 3.80667C15.2841 5.13167 14.25 6.19333 12.9875 6.19333ZM4.71664 10C4.71664 8.675 5.75164 7.6125 7.01331 7.6125H9.30914V12.3875H7.01247C5.74997 12.3875 4.7158 11.325 4.7158 10H4.71664ZM10.6916 10C10.6916 8.675 11.7266 7.6125 12.9883 7.6125C14.2508 7.6125 15.285 8.67417 15.285 10C15.285 11.325 14.2508 12.3875 12.9883 12.3875C11.7266 12.3875 10.6925 11.3258 10.6925 10H10.6916ZM4.71664 16.1933C4.71664 14.8683 5.75164 13.8067 7.01331 13.8067H9.30914V16.1933C9.30914 17.5192 8.27581 18.5808 7.01331 18.5808C5.75164 18.5808 4.71664 17.5192 4.71664 16.1933Z" fill="#3E3E3E"/>
</svg>
