<svg width="20" height="20" viewBox="0 0 20 20" fill="none" xmlns="http://www.w3.org/2000/svg">
<path fill-rule="evenodd" clip-rule="evenodd" d="M6.22081 0.888332C7.19831 0.843332 7.50998 0.833332 9.99998 0.833332C12.49 0.833332 12.8016 0.844165 13.7783 0.888332C14.755 0.932499 15.4216 1.08833 16.005 1.31417C16.6158 1.545 17.17 1.90583 17.6283 2.3725C18.095 2.83 18.455 3.38333 18.685 3.995C18.9116 4.57833 19.0666 5.245 19.1116 6.22C19.1566 7.19916 19.1666 7.51083 19.1666 10C19.1666 12.49 19.1558 12.8017 19.1116 13.7792C19.0675 14.7542 18.9116 15.4208 18.685 16.0042C18.455 16.6159 18.0944 17.1702 17.6283 17.6283C17.17 18.095 16.6158 18.455 16.005 18.685C15.4216 18.9117 14.755 19.0667 13.78 19.1117C12.8016 19.1567 12.49 19.1667 9.99998 19.1667C7.50998 19.1667 7.19831 19.1558 6.22081 19.1117C5.24581 19.0675 4.57915 18.9117 3.99581 18.685C3.38408 18.455 2.82983 18.0944 2.37165 17.6283C1.9053 17.1706 1.54441 16.6166 1.31415 16.005C1.08831 15.4217 0.933313 14.755 0.888313 13.78C0.843313 12.8008 0.833313 12.4892 0.833313 10C0.833313 7.51 0.844146 7.19833 0.888313 6.22166C0.93248 5.245 1.08831 4.57833 1.31415 3.995C1.54475 3.3834 1.90591 2.82943 2.37248 2.37167C2.83001 1.90542 3.38371 1.54453 3.99498 1.31417C4.57831 1.08833 5.24498 0.933332 6.21998 0.888332H6.22081ZM13.7041 2.53833C12.7375 2.49417 12.4475 2.485 9.99998 2.485C7.55248 2.485 7.26248 2.49417 6.29581 2.53833C5.40165 2.57917 4.91665 2.72833 4.59331 2.85417C4.16581 3.02083 3.85998 3.21833 3.53915 3.53917C3.23502 3.83504 3.00096 4.19523 2.85415 4.59333C2.72831 4.91667 2.57915 5.40166 2.53831 6.29583C2.49415 7.2625 2.48498 7.5525 2.48498 10C2.48498 12.4475 2.49415 12.7375 2.53831 13.7042C2.57915 14.5983 2.72831 15.0833 2.85415 15.4067C3.00081 15.8042 3.23498 16.165 3.53915 16.4608C3.83498 16.765 4.19581 16.9992 4.59331 17.1458C4.91665 17.2717 5.40165 17.4208 6.29581 17.4617C7.26248 17.5058 7.55165 17.515 9.99998 17.515C12.4483 17.515 12.7375 17.5058 13.7041 17.4617C14.5983 17.4208 15.0833 17.2717 15.4066 17.1458C15.8341 16.9792 16.14 16.7817 16.4608 16.4608C16.765 16.165 16.9991 15.8042 17.1458 15.4067C17.2716 15.0833 17.4208 14.5983 17.4616 13.7042C17.5058 12.7375 17.515 12.4475 17.515 10C17.515 7.5525 17.5058 7.2625 17.4616 6.29583C17.4208 5.40166 17.2716 4.91667 17.1458 4.59333C16.9791 4.16583 16.7816 3.86 16.4608 3.53917C16.1649 3.23506 15.8047 3.00101 15.4066 2.85417C15.0833 2.72833 14.5983 2.57917 13.7041 2.53833ZM8.82915 12.8258C9.48303 13.098 10.2111 13.1348 10.8891 12.9298C11.567 12.7248 12.1528 12.2908 12.5463 11.7019C12.9398 11.113 13.1167 10.4057 13.0467 9.70092C12.9767 8.99611 12.6641 8.33748 12.1625 7.8375C11.8427 7.5179 11.456 7.27317 11.0303 7.12095C10.6045 6.96873 10.1503 6.9128 9.70039 6.95718C9.25045 7.00156 8.81594 7.14515 8.42815 7.37761C8.04036 7.61007 7.70893 7.92562 7.45773 8.30154C7.20653 8.67746 7.0418 9.10441 6.97541 9.55163C6.90901 9.99886 6.94261 10.4552 7.07376 10.8879C7.20492 11.3206 7.43038 11.7188 7.73391 12.0539C8.03745 12.389 8.4115 12.6527 8.82915 12.8258ZM6.66831 6.66833C7.10583 6.23081 7.62525 5.88375 8.19689 5.64697C8.76854 5.41018 9.38123 5.28831 9.99998 5.28831C10.6187 5.28831 11.2314 5.41018 11.8031 5.64697C12.3747 5.88375 12.8941 6.23081 13.3316 6.66833C13.7692 7.10585 14.1162 7.62526 14.353 8.19691C14.5898 8.76856 14.7117 9.38125 14.7117 10C14.7117 10.6187 14.5898 11.2314 14.353 11.8031C14.1162 12.3747 13.7692 12.8941 13.3316 13.3317C12.448 14.2153 11.2496 14.7117 9.99998 14.7117C8.75036 14.7117 7.55193 14.2153 6.66831 13.3317C5.7847 12.4481 5.28829 11.2496 5.28829 10C5.28829 8.75038 5.7847 7.55194 6.66831 6.66833ZM15.7566 5.99C15.8651 5.88772 15.9519 5.76473 16.0119 5.62831C16.0719 5.49189 16.104 5.34481 16.1062 5.19577C16.1083 5.04674 16.0806 4.89879 16.0245 4.76067C15.9685 4.62256 15.8853 4.49709 15.7799 4.3917C15.6746 4.2863 15.5491 4.20313 15.411 4.1471C15.2729 4.09106 15.1249 4.06331 14.9759 4.06548C14.8268 4.06766 14.6798 4.09971 14.5433 4.15975C14.4069 4.21978 14.2839 4.30658 14.1816 4.415C13.9827 4.62586 13.8738 4.90593 13.8781 5.19577C13.8823 5.48561 13.9993 5.7624 14.2043 5.96737C14.4092 6.17234 14.686 6.28936 14.9759 6.29358C15.2657 6.29781 15.5458 6.18891 15.7566 5.99Z" fill="#3E3E3E"/>
</svg>
