<svg width="43" height="43" viewBox="0 0 43 43" fill="none" xmlns="http://www.w3.org/2000/svg">
<path fill-rule="evenodd" clip-rule="evenodd" d="M6.4502 10.75C6.4502 10.1798 6.67671 9.6329 7.07992 9.2297C7.48312 8.82649 8.02998 8.59998 8.6002 8.59998H34.4002C34.9704 8.59998 35.5173 8.82649 35.9205 9.2297C36.3237 9.6329 36.5502 10.1798 36.5502 10.75C36.5502 11.3202 36.3237 11.8671 35.9205 12.2703C35.5173 12.6735 34.9704 12.9 34.4002 12.9H8.6002C8.02998 12.9 7.48312 12.6735 7.07992 12.2703C6.67671 11.8671 6.4502 11.3202 6.4502 10.75ZM6.4502 21.5C6.4502 20.9298 6.67671 20.3829 7.07992 19.9797C7.48312 19.5765 8.02998 19.35 8.6002 19.35H34.4002C34.9704 19.35 35.5173 19.5765 35.9205 19.9797C36.3237 20.3829 36.5502 20.9298 36.5502 21.5C36.5502 22.0702 36.3237 22.6171 35.9205 23.0203C35.5173 23.4235 34.9704 23.65 34.4002 23.65H8.6002C8.02998 23.65 7.48312 23.4235 7.07992 23.0203C6.67671 22.6171 6.4502 22.0702 6.4502 21.5ZM6.4502 32.25C6.4502 31.6798 6.67671 31.1329 7.07992 30.7297C7.48312 30.3265 8.02998 30.1 8.6002 30.1H34.4002C34.9704 30.1 35.5173 30.3265 35.9205 30.7297C36.3237 31.1329 36.5502 31.6798 36.5502 32.25C36.5502 32.8202 36.3237 33.3671 35.9205 33.7703C35.5173 34.1735 34.9704 34.4 34.4002 34.4H8.6002C8.02998 34.4 7.48312 34.1735 7.07992 33.7703C6.67671 33.3671 6.4502 32.8202 6.4502 32.25Z" fill="#999999"/>
</svg>
