<svg width="20" height="20" viewBox="0 0 20 20" fill="none" xmlns="http://www.w3.org/2000/svg">
<path d="M17.9441 5.92641C17.9568 6.10406 17.9568 6.28176 17.9568 6.45941C17.9568 11.8782 13.8325 18.1218 6.29441 18.1218C3.97207 18.1218 1.81473 17.4492 0 16.2818C0.329961 16.3198 0.647187 16.3325 0.989844 16.3325C2.90605 16.3325 4.67004 15.6853 6.07867 14.5813C4.27664 14.5432 2.76648 13.363 2.24617 11.7386C2.5 11.7766 2.75379 11.802 3.02031 11.802C3.38832 11.802 3.75637 11.7513 4.09898 11.6625C2.22082 11.2817 0.812148 9.63199 0.812148 7.63961V7.58887C1.35781 7.89344 1.99238 8.08379 2.66492 8.10914C1.56086 7.37309 0.837539 6.11676 0.837539 4.69543C0.837539 3.93402 1.04055 3.23606 1.3959 2.62692C3.41367 5.11422 6.44668 6.73856 9.84766 6.91625C9.78422 6.61168 9.74613 6.29445 9.74613 5.97719C9.74613 3.71828 11.5736 1.8782 13.8451 1.8782C15.0253 1.8782 16.0913 2.37313 16.84 3.17262C17.7664 2.99496 18.6547 2.65231 19.4416 2.18277C19.137 3.13457 18.4898 3.93406 17.6395 4.44164C18.4644 4.35285 19.2639 4.12438 19.9999 3.80715C19.4416 4.6193 18.7436 5.34262 17.9441 5.92641Z" fill="#3E3E3E"/>
</svg>
