<svg width="550" height="518" viewBox="0 0 550 518" fill="none" xmlns="http://www.w3.org/2000/svg">
<g clip-path="url(#clip0_1316_1882)">
<path d="M399.303 293.944V437.038L423.233 476.046L425.055 479.013H519.479L521.387 293.944H399.303Z" fill="#292929"/>
<path opacity="0.1" d="M399.303 293.944V437.038L423.233 476.046L424.702 293.944H399.303Z" fill="black"/>
<path d="M171.35 290.128V433.222L147.419 472.23L145.598 475.196H51.1735L49.2656 290.128H171.35Z" fill="#292929"/>
<path opacity="0.1" d="M171.348 290.128V433.222L147.418 472.23L145.949 290.128H171.348Z" fill="black"/>
<path d="M550 287.266V295.851H36.8652V283.45L84.5541 258.646H508.033L550 287.266Z" fill="#999999"/>
<g filter="url(#filter0_d_1316_1882)">
<path d="M399.5 439L426 478.257L146 474.5L171.5 434L399.5 439Z" fill="#060606" fill-opacity="0.07" shape-rendering="crispEdges"/>
</g>
<path opacity="0.1" d="M550 287.267V295.852H36.8652V283.45L550 287.267Z" fill="black"/>
<path d="M110.308 330.194H87.4167L77.8789 323.517H120.799L110.308 330.194Z" fill="#FF9F1C"/>
<path d="M110.308 357.859H87.4167L77.8789 351.182H120.799L110.308 357.859Z" fill="#FF9F1C"/>
<path d="M110.308 396.972H87.4167L77.8789 390.294H120.799L110.308 396.972Z" fill="#FF9F1C"/>
<path d="M110.308 436.084H87.4167L77.8789 429.406H120.799L110.308 436.084Z" fill="#FF9F1C"/>
<path d="M460.345 334.01H483.236L492.774 327.332H449.854L460.345 334.01Z" fill="#FF9F1C"/>
<path d="M460.345 361.675H483.236L492.774 354.997H449.854L460.345 361.675Z" fill="#FF9F1C"/>
<path d="M460.345 400.788H483.236L492.774 394.11H449.854L460.345 400.788Z" fill="#FF9F1C"/>
<path d="M460.345 439.9H483.236L492.774 433.223H449.854L460.345 439.9Z" fill="#FF9F1C"/>
<g filter="url(#filter1_d_1316_1882)">
<path d="M475.932 93.173H283.224C282.266 93.1729 281.319 93.3613 280.434 93.7276C279.55 94.0939 278.747 94.6308 278.07 95.3077C277.393 95.9846 276.856 96.7882 276.49 97.6727C276.124 98.5571 275.935 99.5051 275.936 100.462V230.3C275.935 231.258 276.124 232.206 276.49 233.09C276.856 233.975 277.393 234.778 278.07 235.455C278.747 236.132 279.55 236.669 280.434 237.035C281.319 237.401 282.266 237.59 283.224 237.59H356.377L353.637 255.091C353.637 255.091 337.974 263.413 348.987 263.658C360 263.903 411.882 263.658 411.882 263.658C411.882 263.658 421.916 263.658 406.008 254.846L403.43 237.59H475.932C476.889 237.59 477.837 237.401 478.721 237.035C479.606 236.669 480.409 236.132 481.086 235.455C481.763 234.778 482.299 233.975 482.666 233.09C483.032 232.206 483.22 231.258 483.22 230.3V100.462C483.22 99.5051 483.032 98.5571 482.666 97.6727C482.299 96.7882 481.763 95.9846 481.086 95.3077C480.409 94.6308 479.606 94.0939 478.721 93.7276C477.837 93.3613 476.889 93.1728 475.932 93.173Z" fill="#373737"/>
</g>
<path d="M476.245 100.884H282.91V209.074H476.245V100.884Z" fill="#1B1B1B"/>
<path d="M379.579 98.6802C380.255 98.6802 380.803 98.1322 380.803 97.4563C380.803 96.7804 380.255 96.2324 379.579 96.2324C378.903 96.2324 378.355 96.7804 378.355 97.4563C378.355 98.1322 378.903 98.6802 379.579 98.6802Z" fill="#F2F2F2"/>
<path d="M379.58 232.327C382.148 232.327 384.229 230.245 384.229 227.676C384.229 225.108 382.148 223.025 379.58 223.025C377.011 223.025 374.93 225.108 374.93 227.676C374.93 230.245 377.011 232.327 379.58 232.327Z" fill="#F2F2F2"/>
<path d="M372.333 276.876V279.324H240.67V277.366L240.851 276.876L244.096 268.064H369.641L372.333 276.876Z" fill="#3E3E3E"/>
<path d="M423.001 274.48C422.761 275.505 421.856 276.587 419.81 277.61C412.468 281.282 397.539 276.631 397.539 276.631C397.539 276.631 386.037 274.673 386.037 269.533C386.36 269.312 386.697 269.111 387.045 268.933C390.132 267.3 400.367 263.269 418.514 269.104C419.85 269.524 421.045 270.306 421.963 271.365C422.37 271.765 422.676 272.256 422.856 272.797C423.037 273.339 423.086 273.915 423.001 274.48Z" fill="#3E3E3E"/>
<path opacity="0.1" d="M423.002 274.48C414.016 277.924 406.006 278.181 397.786 272.47C394.677 270.172 390.913 268.932 387.047 268.933C390.134 267.3 400.368 263.27 418.515 269.104C419.852 269.524 421.046 270.307 421.964 271.365C422.371 271.765 422.678 272.256 422.858 272.798C423.038 273.339 423.088 273.916 423.002 274.48Z" fill="black"/>
<path d="M411.734 272.47C413.491 272.47 414.916 272.032 414.916 271.491C414.916 270.95 413.491 270.512 411.734 270.512C409.977 270.512 408.553 270.95 408.553 271.491C408.553 272.032 409.977 272.47 411.734 272.47Z" fill="#F2F2F2"/>
<path opacity="0.1" d="M372.333 276.876V279.324H240.67V277.366L240.851 276.876H372.333Z" fill="black"/>
<path d="M73.2067 -0.000267358C71.8704 -0.109999 70.5324 0.188962 69.3699 0.857003C68.2284 1.63886 67.5089 3.00858 66.7746 4.2832C63.9668 9.21474 60.1656 13.5093 55.6118 16.8948C52.2949 19.3252 48.078 22.3555 48.6455 26.8364C48.9449 28.3162 49.4914 29.7349 50.2622 31.033C53.3221 37.211 61.672 41.9852 60.8507 49.0348C63.8907 43.9445 59.8244 41.4274 62.8645 36.3371C64.3122 33.913 66.8272 31.1766 69.0131 32.6989C69.7449 33.2087 70.2255 34.1229 70.9876 34.5702C72.8059 35.6374 74.7403 33.5971 76.3499 32.1519C81.9001 27.1686 89.7931 28.4741 96.6998 30.0268C99.9605 30.7598 103.542 31.7215 105.469 34.8385C108.004 38.9367 103.062 43.3628 101.813 47.9962C101.711 48.391 101.706 48.8046 101.799 49.2017C101.892 49.5987 102.079 49.9674 102.345 50.2762C102.612 50.585 102.949 50.8247 103.328 50.9749C103.707 51.125 104.117 51.181 104.522 51.1382C106.594 50.9337 109.049 50.7662 109.172 49.8566C111.779 49.9494 114.974 49.6541 116.091 46.9385C116.433 45.8641 116.613 44.7451 116.627 43.6178C117.037 39.0563 118.973 34.8948 120.255 30.5534C121.537 26.2119 122.095 21.124 119.931 17.2748C119.159 15.9942 118.203 14.8331 117.096 13.8285C104.816 1.94227 88.6699 -0.0179109 73.2067 -0.000267358Z" fill="black"/>
<path d="M63.5221 57.9392C63.5221 57.9392 66.1928 80.1993 56.4002 81.9801C46.6076 83.761 65.3026 114.035 65.3026 114.035L109.814 119.377L99.1315 83.7609C99.1315 83.7609 92.0097 81.0897 96.4608 63.2816C100.912 45.4735 63.5221 57.9392 63.5221 57.9392Z" fill="#FFB8B8"/>
<path d="M36.3691 440.368L39.9304 489.341H58.6247L53.2839 440.368H36.3691Z" fill="#FFB8B8"/>
<path d="M173.465 347.766L176.135 388.724L196.611 379.821L188.599 345.985L173.465 347.766Z" fill="#FFB8B8"/>
<path d="M23.0156 253.383C23.0156 253.383 23.9058 305.026 29.2473 321.944C34.5888 338.862 33.6985 339.752 32.8082 342.423C31.918 345.095 31.0278 343.314 31.0278 347.766C31.0278 352.218 29.2473 422.56 31.0278 428.793C32.8082 435.026 25.6864 445.71 31.0278 446.601C36.3692 447.491 61.2958 446.601 62.186 441.258C63.0763 435.916 55.0641 434.135 58.6251 430.574C62.186 427.012 67.5274 353.999 67.5274 353.999L79.9907 303.246L103.137 276.534H152.1L167.234 335.3C167.234 335.3 161.002 352.218 165.453 352.218C169.905 352.218 196.612 357.56 196.612 337.971C196.612 318.383 187.709 260.506 185.929 258.725C184.148 256.945 186.819 250.712 184.148 248.041C181.478 245.369 150.319 226.671 138.746 223.109C127.173 219.548 110.938 215.309 110.938 215.309L23.0156 253.383Z" fill="#151515"/>
<path d="M196.612 372.698C196.612 372.698 183.258 368.246 177.026 381.602C170.795 394.958 173.465 398.519 173.465 398.519C173.465 398.519 193.941 405.643 197.502 402.081C199.051 400.531 203.971 399.993 209.035 399.879C216.747 399.706 218.799 388.793 211.515 386.251C211.298 386.175 211.078 386.11 210.855 386.054C203.733 384.273 196.612 372.698 196.612 372.698Z" fill="black"/>
<path d="M83.5508 72.6313C98.3007 72.6313 110.258 60.6719 110.258 45.9192C110.258 31.1665 98.3007 19.207 83.5508 19.207C68.8009 19.207 56.8438 31.1665 56.8438 45.9192C56.8438 60.6719 68.8009 72.6313 83.5508 72.6313Z" fill="#FFB8B8"/>
<path d="M48.8321 93.1102C48.8321 93.1102 92.4536 102.014 103.136 87.7678C113.819 73.5213 118.27 127.836 118.27 127.836L123.612 184.822L115.6 215.986C115.6 215.986 73.7587 249.821 60.4051 252.493C47.0516 255.164 26.5762 256.945 26.5762 256.945C26.5762 256.945 32.8079 158.11 32.8079 156.329C32.8079 154.548 48.8321 93.1102 48.8321 93.1102Z" fill="#FF9F1C"/>
<path d="M62.0993 76.4106C62.0993 76.4106 52.3939 70.8497 49.7232 76.1921C47.0525 81.5346 22.1259 94.8906 19.4552 94.8906C16.7845 94.8906 24.7966 168.794 21.2357 177.698C17.6747 186.602 0.760249 251.602 10.5528 256.944C20.3454 262.287 13.2235 251.602 23.0161 264.958C32.8087 278.314 80.8815 278.314 83.5522 272.972C86.2229 267.629 62.1865 227.561 66.6377 190.164C71.0889 152.767 78.2108 101.123 71.9791 94.0002C65.7475 86.877 62.0993 76.4106 62.0993 76.4106Z" fill="#151515"/>
<path d="M94.2344 82.4254L95.4744 78.1572C95.4744 78.1572 132.515 90.4391 134.295 98.4527C136.075 106.466 135.185 162.562 128.954 167.014C122.722 171.466 113.82 178.589 120.051 189.274C126.283 199.959 133.405 211.534 138.746 212.424C144.088 213.315 153.88 219.548 151.209 225.781C148.539 232.013 116.49 220.438 116.49 220.438C116.49 220.438 95.1246 204.411 96.0148 179.479C96.9051 154.548 94.2344 82.4254 94.2344 82.4254Z" fill="#151515"/>
<path d="M125.394 187.493L104.028 227.561C104.028 227.561 72.8702 259.616 90.675 263.178C108.48 266.739 118.272 233.794 118.272 233.794L141.418 200.849L125.394 187.493Z" fill="#FFB8B8"/>
<path d="M74.5086 6.98923C73.4321 6.90945 72.3539 7.11863 71.3853 7.59515C70.5095 8.23488 69.7877 9.06224 69.2726 10.0168C66.8981 13.5892 63.8028 16.6255 60.1856 18.9306C57.4855 20.6483 54.0528 22.7901 54.5148 25.9572C54.7655 27.0191 55.2118 28.025 55.8309 28.9234C58.3303 33.334 59.3253 38.439 58.6654 43.4657L66.0896 32.6723C67.2682 30.9589 69.3155 29.0248 71.0948 30.1008C71.6906 30.4611 72.0818 31.1073 72.7022 31.4234C74.1824 32.1777 75.7571 30.7357 77.0673 29.7142C81.5855 26.192 88.0107 27.1147 93.633 28.2122C96.2873 28.7303 99.2028 29.41 100.772 31.6131C103.379 35.2741 100.657 40.5641 102.178 44.7935C102.604 44.4952 102.966 44.1144 103.242 43.6737C103.518 43.2329 103.703 42.7412 103.786 42.2277C105.908 42.2933 108.509 42.0846 109.419 40.1652C109.695 39.4131 109.843 38.6195 109.855 37.8181C110.188 34.5941 111.764 31.6528 112.808 28.5843C113.852 25.5158 114.306 21.9197 112.544 19.1992C111.9 18.2774 111.122 17.4564 110.236 16.7633C100.24 8.3622 87.0963 6.97677 74.5086 6.98923Z" fill="black"/>
<path d="M125.393 94.8906L133.688 97.0927C133.688 97.0927 152.991 146.534 148.54 180.369C144.088 214.205 141.418 207.082 141.418 207.082C141.418 207.082 134.296 191.054 118.271 194.616L125.393 94.8906Z" fill="#151515"/>
<path d="M37.6022 482.869C35.4554 485.786 35.8859 489.957 33.9842 493.041C32.3359 495.713 29.2294 497.115 27.1676 499.483C26.5097 500.27 25.9232 501.114 25.4151 502.004C23.5025 505.209 21.9479 509.315 23.8315 512.537C25.3468 515.128 28.5318 516.141 31.4529 516.831C35.145 517.704 38.981 518.402 42.7157 517.735C46.4503 517.069 50.1003 514.781 51.4319 511.228C51.6936 510.335 52.0048 509.457 52.3639 508.598C54.3881 504.612 60.7374 504.569 62.809 500.608C64.2588 497.835 62.9261 494.484 61.5939 491.654L57.5252 483.008C56.175 480.139 50.7015 481.789 47.848 481.102C44.1264 480.205 40.2795 479.217 37.6022 482.869Z" fill="black"/>
<path d="M7.88281 205.301L45.2727 263.177C45.2727 263.177 68.4188 292.561 75.5407 279.205C82.6626 265.849 50.6141 243.589 50.6141 243.589L26.5777 199.068L7.88281 205.301Z" fill="#FFB8B8"/>
<path d="M26.5767 96.6714L19.4548 94.8906C19.4548 94.8906 5.21106 99.3426 1.65012 118.041C-1.91081 136.74 0.759884 211.534 5.21106 212.424C9.66224 213.314 27.1954 199.401 30.0019 202.351C32.8084 205.301 23.906 190.164 26.5767 182.15C29.2474 174.137 26.5767 96.6714 26.5767 96.6714Z" fill="#151515"/>
<path d="M358.984 140H335.975V145.54H358.984V140Z" fill="#FF9F1C"/>
<path d="M438.664 140H430.568V145.54H438.664V140Z" fill="#FF9F1C"/>
<path d="M454.856 140H446.76V145.54H454.856V140Z" fill="#FF9F1C"/>
<path d="M422.046 140H367.08V145.54H422.046V140Z" fill="#FF9F1C"/>
<path d="M330.009 175.799H307V181.339H330.009V175.799Z" fill="#FF9F1C"/>
<path d="M409.69 175.799H401.594V181.339H409.69V175.799Z" fill="#FF9F1C"/>
<path d="M425.881 175.799H417.785V181.339H425.881V175.799Z" fill="#FF9F1C"/>
<path d="M393.072 175.799H338.105V181.339H393.072V175.799Z" fill="#FF9F1C"/>
<path d="M425.029 152.359H402.02V157.9H425.029V152.359Z" fill="#FF9F1C"/>
<path d="M456.134 152.359H433.125V157.9H456.134V152.359Z" fill="#FF9F1C"/>
<path d="M315.096 152.359H307V157.9H315.096V152.359Z" fill="#FF9F1C"/>
<path d="M331.287 152.359H323.191V157.9H331.287V152.359Z" fill="#FF9F1C"/>
<path d="M394.349 152.359H339.383V157.9H394.349V152.359Z" fill="#FF9F1C"/>
<path d="M377.306 164.292H354.297V169.832H377.306V164.292Z" fill="#FF9F1C"/>
<path d="M346.201 164.292H323.191V169.832H346.201V164.292Z" fill="#FF9F1C"/>
<path d="M315.096 164.292H307V169.832H315.096V164.292Z" fill="#FF9F1C"/>
<path d="M456.133 164.292H448.037V169.832H456.133V164.292Z" fill="#FF9F1C"/>
<path d="M439.941 164.292H384.975V169.832H439.941V164.292Z" fill="#FF9F1C"/>
</g>
<defs>
<filter id="filter0_d_1316_1882" x="126" y="414" width="320" height="84.2573" filterUnits="userSpaceOnUse" color-interpolation-filters="sRGB">
<feFlood flood-opacity="0" result="BackgroundImageFix"/>
<feColorMatrix in="SourceAlpha" type="matrix" values="0 0 0 0 0 0 0 0 0 0 0 0 0 0 0 0 0 0 127 0" result="hardAlpha"/>
<feOffset/>
<feGaussianBlur stdDeviation="10"/>
<feComposite in2="hardAlpha" operator="out"/>
<feColorMatrix type="matrix" values="0 0 0 0 0.0235294 0 0 0 0 0.0235294 0 0 0 0 0.0235294 0 0 0 0.11 0"/>
<feBlend mode="normal" in2="BackgroundImageFix" result="effect1_dropShadow_1316_1882"/>
<feBlend mode="normal" in="SourceGraphic" in2="effect1_dropShadow_1316_1882" result="shape"/>
</filter>
<filter id="filter1_d_1316_1882" x="271.936" y="93.173" width="215.285" height="178.594" filterUnits="userSpaceOnUse" color-interpolation-filters="sRGB">
<feFlood flood-opacity="0" result="BackgroundImageFix"/>
<feColorMatrix in="SourceAlpha" type="matrix" values="0 0 0 0 0 0 0 0 0 0 0 0 0 0 0 0 0 0 127 0" result="hardAlpha"/>
<feOffset dy="4"/>
<feGaussianBlur stdDeviation="2"/>
<feComposite in2="hardAlpha" operator="out"/>
<feColorMatrix type="matrix" values="0 0 0 0 0 0 0 0 0 0 0 0 0 0 0 0 0 0 0.25 0"/>
<feBlend mode="normal" in2="BackgroundImageFix" result="effect1_dropShadow_1316_1882"/>
<feBlend mode="normal" in="SourceGraphic" in2="effect1_dropShadow_1316_1882" result="shape"/>
</filter>
<clipPath id="clip0_1316_1882">
<rect width="550" height="518" fill="white"/>
</clipPath>
</defs>
</svg>
