<svg width="256" height="256" viewBox="0 0 256 256" fill="none" xmlns="http://www.w3.org/2000/svg">
<rect width="256" height="256" rx="30" fill="#242938"/>
<path d="M69.5 169C67.6667 169 66.25 168.542 65.25 167.625C64.3333 166.625 63.875 165.208 63.875 163.375V86.5C63.875 84.6667 64.3333 83.2917 65.25 82.375C66.25 81.375 67.6667 80.875 69.5 80.875H116C117.417 80.875 118.5 81.25 119.25 82C120 82.75 120.375 83.7917 120.375 85.125C120.375 86.5417 120 87.625 119.25 88.375C118.5 89.125 117.417 89.5 116 89.5H73.875V120H113.375C114.792 120 115.875 120.375 116.625 121.125C117.375 121.792 117.75 122.833 117.75 124.25C117.75 125.667 117.375 126.75 116.625 127.5C115.875 128.25 114.792 128.625 113.375 128.625H73.875V160.375H116C117.417 160.375 118.5 160.75 119.25 161.5C120 162.25 120.375 163.292 120.375 164.625C120.375 166.042 120 167.125 119.25 167.875C118.5 168.625 117.417 169 116 169H69.5ZM140.376 169.875C138.709 169.875 137.459 169.417 136.626 168.5C135.793 167.583 135.376 166.292 135.376 164.625V112.5C135.376 110.833 135.793 109.583 136.626 108.75C137.459 107.833 138.668 107.375 140.251 107.375C141.834 107.375 143.043 107.833 143.876 108.75C144.793 109.583 145.251 110.833 145.251 112.5V123.25L143.876 121.75C145.626 116.917 148.459 113.292 152.376 110.875C156.376 108.375 160.959 107.125 166.126 107.125C170.959 107.125 174.959 108 178.126 109.75C181.376 111.5 183.793 114.167 185.376 117.75C186.959 121.25 187.751 125.708 187.751 131.125V164.625C187.751 166.292 187.293 167.583 186.376 168.5C185.543 169.417 184.334 169.875 182.751 169.875C181.084 169.875 179.793 169.417 178.876 168.5C178.043 167.583 177.626 166.292 177.626 164.625V131.75C177.626 126.083 176.501 121.958 174.251 119.375C172.084 116.708 168.584 115.375 163.751 115.375C158.168 115.375 153.709 117.125 150.376 120.625C147.126 124.042 145.501 128.625 145.501 134.375V164.625C145.501 168.125 143.793 169.875 140.376 169.875Z" fill="#FF9F1C"/>
</svg>
