<svg width="256" height="256" viewBox="0 0 256 256" fill="none" xmlns="http://www.w3.org/2000/svg">
<rect width="256" height="256" rx="30" fill="#242938"/>
<path d="M78.375 168.875C76.625 168.875 75.25 168.417 74.25 167.5C73.3333 166.5 72.875 165.083 72.875 163.25V85.5C72.875 83.6667 73.3333 82.2917 74.25 81.375C75.25 80.375 76.6667 79.875 78.5 79.875H123.875C125.292 79.875 126.375 80.25 127.125 81C127.875 81.75 128.25 82.7917 128.25 84.125C128.25 85.5417 127.875 86.625 127.125 87.375C126.375 88.125 125.292 88.5 123.875 88.5H83.125V119.25H121.25C122.667 119.25 123.75 119.625 124.5 120.375C125.333 121.125 125.75 122.167 125.75 123.5C125.75 124.917 125.333 126 124.5 126.75C123.75 127.5 122.667 127.875 121.25 127.875H83.125V163.25C83.125 167 81.5417 168.875 78.375 168.875ZM156.665 169.125C152.498 169.125 148.748 168.333 145.415 166.75C142.165 165.083 139.582 162.833 137.665 160C135.748 157.167 134.79 154 134.79 150.5C134.79 146 135.915 142.458 138.165 139.875C140.498 137.292 144.29 135.458 149.54 134.375C154.873 133.292 162.123 132.75 171.29 132.75H176.915V139.375H171.415C164.665 139.375 159.332 139.708 155.415 140.375C151.582 140.958 148.873 142 147.29 143.5C145.79 145 145.04 147.125 145.04 149.875C145.04 153.292 146.207 156.083 148.54 158.25C150.957 160.417 154.207 161.5 158.29 161.5C161.623 161.5 164.54 160.708 167.04 159.125C169.623 157.542 171.623 155.375 173.04 152.625C174.54 149.875 175.29 146.708 175.29 143.125V128.875C175.29 123.708 174.248 120 172.165 117.75C170.082 115.417 166.665 114.25 161.915 114.25C158.998 114.25 156.082 114.625 153.165 115.375C150.248 116.125 147.165 117.333 143.915 119C142.748 119.583 141.748 119.792 140.915 119.625C140.082 119.375 139.415 118.917 138.915 118.25C138.415 117.583 138.123 116.833 138.04 116C137.957 115.083 138.123 114.208 138.54 113.375C139.04 112.542 139.79 111.875 140.79 111.375C144.457 109.542 148.082 108.208 151.665 107.375C155.248 106.542 158.665 106.125 161.915 106.125C167.165 106.125 171.498 107 174.915 108.75C178.332 110.417 180.873 113 182.54 116.5C184.207 119.917 185.04 124.333 185.04 129.75V163.625C185.04 165.292 184.623 166.583 183.79 167.5C183.04 168.417 181.915 168.875 180.415 168.875C178.832 168.875 177.623 168.417 176.79 167.5C175.957 166.583 175.54 165.292 175.54 163.625V153.875H176.665C175.998 157.042 174.707 159.75 172.79 162C170.957 164.25 168.665 166 165.915 167.25C163.165 168.5 160.082 169.125 156.665 169.125Z" fill="#FF9F1C"/>
</svg>
